<?xml version="1.0" standalone="no"?>
<!DOCTYPE svg PUBLIC "-//W3C//DTD SVG 20010904//EN"
 "http://www.w3.org/TR/2001/REC-SVG-20010904/DTD/svg10.dtd">
<svg version="1.0" xmlns="http://www.w3.org/2000/svg"
 width="960.000000pt" height="960.000000pt" viewBox="0 0 960.000000 960.000000"
 preserveAspectRatio="xMidYMid meet">

<g transform="translate(0.000000,960.000000) scale(0.100000,-0.100000)"
fill="#000000" stroke="none">
<path d="M2748 5893 c-40 -3 -48 -8 -48 -24 0 -12 7 -19 20 -19 11 0 20 5 20
10 0 6 62 11 163 11 137 2 153 3 102 11 -73 11 -193 16 -257 11z"/>
<path d="M7508 5833 c-6 -74 -5 -103 3 -103 5 0 9 27 9 60 0 33 -2 60 -5 60
-3 0 -6 -8 -7 -17z"/>
<path d="M2715 5800 c-3 -5 -1 -10 4 -10 6 0 11 5 11 10 0 6 -2 10 -4 10 -3 0
-8 -4 -11 -10z"/>
<path d="M7445 5700 l-60 -7 68 -1 c43 -1 66 2 62 8 -3 6 -7 9 -8 8 -1 -1 -29
-4 -62 -8z"/>
<path d="M5056 5213 c-9 -22 -7 -543 2 -543 13 1 46 30 34 30 -7 0 -12 13 -12
30 0 30 14 41 23 18 4 -8 6 -6 7 5 2 9 4 22 5 27 1 6 3 14 4 20 0 5 19 13 41
16 47 8 52 19 11 27 -16 3 -32 14 -36 24 -4 10 -9 81 -11 158 -4 161 -8 187
-29 179 -9 -4 -15 0 -15 10 0 21 -16 21 -24 -1z"/>
<path d="M6563 4733 c9 -2 23 -2 30 0 6 3 -1 5 -18 5 -16 0 -22 -2 -12 -5z"/>
<path d="M6615 4730 c4 -6 -11 -10 -41 -10 -26 0 -44 -3 -40 -7 9 -9 13 -10
64 -12 21 -1 32 -5 25 -9 -8 -5 -9 -13 -3 -22 8 -13 11 -13 22 -1 9 10 10 12
1 7 -9 -5 -11 -2 -7 8 6 16 25 23 23 9 -1 -5 0 -35 1 -68 l3 -60 7 45 7 45 1
-53 c1 -29 -4 -61 -10 -72 -11 -17 -10 -22 1 -29 8 -5 12 -18 8 -30 -3 -13 0
-21 8 -21 10 0 13 33 14 145 l2 145 -26 0 c-14 0 -25 -6 -25 -12 0 -8 -3 -9
-8 -3 -9 13 -35 18 -27 5z"/>
<path d="M6554 4681 c4 -5 0 -11 -6 -13 -7 -3 -1 -7 14 -10 15 -3 33 -1 40 3
11 7 11 9 0 9 -7 0 -10 5 -7 10 4 6 -5 10 -20 10 -14 0 -24 -4 -21 -9z"/>
<path d="M6468 4673 c7 -3 16 -2 19 1 4 3 -2 6 -13 5 -11 0 -14 -3 -6 -6z"/>
<path d="M5059 4413 c-5 -221 -3 -533 2 -553 8 -27 13 121 13 400 0 108 4 178
11 182 6 5 3 8 -7 8 -14 0 -18 -9 -19 -37z"/>
<path d="M1880 4170 c0 -207 2 -240 15 -240 8 0 15 6 16 13 4 75 14 97 44 97
24 0 34 13 16 24 -4 3 -11 40 -14 82 -3 42 -10 80 -16 83 -5 4 -11 42 -12 86
-1 45 -7 83 -13 87 -34 23 -36 12 -36 -232z"/>
<path d="M2230 4408 c-1 -2 -3 -25 -5 -53 -8 -95 -17 -145 -26 -145 -5 0 -9
-10 -8 -22 0 -22 1 -22 10 -3 6 15 8 10 5 -20 -3 -22 1 -46 7 -54 9 -12 9 -13
0 -7 -10 5 -13 -11 -13 -69 0 -58 3 -74 13 -69 10 6 10 4 0 -7 -15 -15 -18
-43 -4 -35 5 4 7 -3 4 -14 -3 -11 -8 -20 -12 -20 -4 0 -7 -11 -7 -24 0 -13 5
-22 11 -20 6 3 12 -10 13 -31 2 -29 0 -34 -15 -29 -15 5 -16 4 -3 -5 18 -12
20 -31 6 -50 -8 -11 -8 -13 1 -8 6 4 14 3 18 -3 3 -5 -2 -10 -11 -10 -13 0
-15 -3 -7 -11 6 -6 9 -18 6 -25 -3 -8 1 -21 8 -30 10 -12 10 -15 -2 -12 -9 2
-15 -8 -17 -29 -2 -19 1 -33 7 -33 6 0 11 -7 11 -16 0 -8 -4 -12 -10 -9 -5 3
-10 -3 -10 -14 0 -12 5 -21 11 -21 8 0 7 -5 -1 -15 -11 -13 -10 -24 0 -58 8
-23 17 -46 21 -51 5 -5 9 223 9 507 0 284 -2 517 -5 517 -3 0 -5 -1 -5 -2z
m-13 -940 c-3 -8 -6 -5 -6 6 -1 11 2 17 5 13 3 -3 4 -12 1 -19z"/>
<path d="M7500 4370 c0 -5 5 -10 11 -10 5 0 7 5 4 10 -3 6 -8 10 -11 10 -2 0
-4 -4 -4 -10z"/>
<path d="M7499 4343 c-1 -5 0 -16 1 -27 1 -15 -3 -18 -25 -14 -15 3 -23 2 -18
-2 4 -5 19 -10 33 -12 22 -3 25 1 28 30 2 18 -1 32 -7 32 -6 0 -12 -3 -12 -7z"/>
<path d="M1844 4195 c0 -82 2 -115 3 -72 2 43 2 110 0 150 -1 40 -3 5 -3 -78z"/>
<path d="M2705 4319 c-10 -29 -2 -829 8 -829 5 0 6 -4 3 -9 -7 -11 17 -21 52
-21 21 0 24 2 12 10 -8 5 -10 10 -5 11 37 5 55 5 55 0 0 -3 51 -7 114 -8 110
-2 114 -2 120 20 8 30 8 332 0 391 -6 43 -9 46 -36 46 -26 0 -29 -3 -25 -27 3
-16 10 -41 17 -58 6 -16 12 -68 12 -114 1 -84 1 -85 -32 -113 -19 -15 -41 -28
-50 -28 -9 0 -25 -8 -36 -18 -10 -9 -36 -19 -57 -21 l-38 -3 0 159 c1 87 0
168 -2 180 -1 12 3 21 8 20 6 -1 9 -10 9 -19 -1 -10 3 -18 8 -18 5 0 6 -4 3
-10 -4 -6 6 -10 22 -10 21 0 29 5 30 19 1 14 -4 19 -17 16 -17 -3 -36 19 -32
38 1 4 -10 7 -24 7 -23 0 -26 -3 -22 -29 2 -17 0 -27 -5 -24 -5 3 -6 23 -3 45
5 27 3 37 -4 33 -7 -4 -14 2 -17 15 -4 16 -8 18 -14 8 -5 -8 -9 9 -9 44 0 31
-2 62 -3 70 -2 7 -2 10 0 6 3 -5 12 -8 21 -8 15 0 15 2 2 10 -11 7 0 10 40 11
30 1 59 1 63 0 5 -1 6 3 2 9 -4 6 4 10 19 10 14 0 26 5 26 10 0 15 -50 12 -56
-3 -3 -9 -18 -13 -42 -12 -36 3 -37 3 -38 46 -1 30 3 48 14 57 10 8 12 12 3
12 -7 0 -9 4 -6 10 3 6 -1 7 -9 4 -9 -3 -16 -1 -16 6 0 6 -5 8 -11 4 -7 -4 -9
2 -7 17 2 18 -2 25 -19 27 -14 2 -20 8 -16 18 3 8 3 14 0 14 -3 0 -9 -9 -12
-21z m54 -131 c-1 -55 -2 -59 -10 -33 -9 28 -4 95 6 95 3 0 5 -28 4 -62z m1
-708 c0 -5 -7 -10 -16 -10 -8 0 -12 5 -9 10 3 6 10 10 16 10 5 0 9 -4 9 -10z"/>
<path d="M3849 4318 c0 -13 -2 -31 -4 -40 -2 -10 0 -18 4 -18 4 0 8 18 9 40 1
22 0 40 -3 40 -3 0 -5 -10 -6 -22z"/>
<path d="M5091 4304 c0 -11 3 -14 6 -6 3 7 2 16 -1 19 -3 4 -6 -2 -5 -13z"/>
<path d="M7099 4307 c-14 -7 -24 -17 -22 -22 2 -6 -6 -16 -18 -23 -16 -10 -19
-10 -13 -1 5 9 2 10 -12 5 -10 -4 -85 -7 -165 -7 l-145 1 0 -47 1 -48 -122 0
c-90 0 -123 3 -123 12 0 7 -7 10 -15 7 -16 -6 -16 -21 0 -40 7 -9 12 -9 17 0
4 6 8 7 8 1 0 -6 43 -11 105 -11 57 -1 116 -5 131 -8 15 -4 23 -3 20 3 -4 6
43 10 124 10 120 1 192 12 176 28 -3 4 3 17 15 29 12 13 22 34 22 48 0 17 5
26 16 26 13 0 13 2 2 9 -11 7 -9 10 8 16 11 3 21 11 21 16 0 5 -1 9 -2 8 -2 0
-15 -6 -29 -12z"/>
<path d="M5422 4260 c0 -25 2 -39 5 -32 2 6 9 10 14 6 5 -3 9 10 8 28 -1 31
-2 31 -9 8 l-7 -25 -5 30 c-4 23 -5 20 -6 -15z"/>
<path d="M4332 4226 c3 -39 5 -41 38 -42 19 -1 36 -7 38 -12 4 -13 44 -26 126
-42 32 -7 54 -15 49 -19 -18 -11 -25 -49 -13 -71 19 -35 32 -23 26 23 -4 30
-2 49 9 63 8 10 15 27 15 37 0 9 5 17 10 17 6 0 10 19 10 43 l0 42 -155 0
-156 1 3 -40z"/>
<path d="M3845 4240 c3 -5 8 -10 11 -10 2 0 4 5 4 10 0 6 -5 10 -11 10 -5 0
-7 -4 -4 -10z"/>
<path d="M7443 4210 c-1 -11 2 -18 8 -15 11 7 12 35 1 35 -4 0 -8 -9 -9 -20z"/>
<path d="M2800 4204 c0 -6 3 -14 8 -18 4 -4 7 -12 7 -18 0 -6 8 -16 18 -22 14
-8 20 -8 27 4 7 11 5 16 -7 19 -9 2 -25 13 -34 25 -10 11 -18 16 -19 10z"/>
<path d="M3845 4200 c3 -5 8 -10 11 -10 2 0 4 5 4 10 0 6 -5 10 -11 10 -5 0
-7 -4 -4 -10z"/>
<path d="M6538 4183 c7 -3 16 -2 19 1 4 3 -2 6 -13 5 -11 0 -14 -3 -6 -6z"/>
<path d="M2893 4163 c9 -2 23 -2 30 0 6 3 -1 5 -18 5 -16 0 -22 -2 -12 -5z"/>
<path d="M7396 4161 c-3 -5 1 -11 9 -15 9 -3 15 0 15 9 0 16 -16 20 -24 6z"/>
<path d="M2958 4148 c-9 -5 -4 -8 15 -8 15 0 27 4 27 8 0 11 -25 11 -42 0z"/>
<path d="M3023 4146 c-4 -8 -28 -17 -53 -21 -67 -10 -64 -19 3 -12 48 5 58 3
53 -9 -3 -8 -2 -14 3 -14 8 0 31 44 31 60 0 15 -28 12 -37 -4z"/>
<path d="M6109 4148 c-3 -90 -1 -280 4 -285 4 -3 7 62 7 145 0 84 -2 152 -5
152 -3 0 -5 -6 -6 -12z"/>
<path d="M7357 4126 c-3 -8 0 -17 7 -19 10 -4 12 1 9 14 -6 23 -9 24 -16 5z"/>
<path d="M5620 4100 c0 -5 5 -10 11 -10 5 0 7 5 4 10 -3 6 -8 10 -11 10 -2 0
-4 -4 -4 -10z"/>
<path d="M2803 4093 c9 -2 23 -2 30 0 6 3 -1 5 -18 5 -16 0 -22 -2 -12 -5z"/>
<path d="M2913 4093 c9 -2 23 -2 30 0 6 3 -1 5 -18 5 -16 0 -22 -2 -12 -5z"/>
<path d="M7310 4060 c-9 -6 -10 -10 -3 -10 6 0 15 5 18 10 8 12 4 12 -15 0z"/>
<path d="M3473 4010 c0 -30 2 -43 4 -27 2 15 2 39 0 55 -2 15 -4 2 -4 -28z"/>
<path d="M1842 4015 c0 -16 2 -22 5 -12 2 9 2 23 0 30 -3 6 -5 -1 -5 -18z"/>
<path d="M1980 4020 c0 -5 10 -10 23 -10 18 0 19 2 7 10 -19 13 -30 13 -30 0z"/>
<path d="M2173 4008 c-2 -18 0 -20 7 -8 12 18 13 30 2 30 -4 0 -9 -10 -9 -22z"/>
<path d="M3890 4015 c-11 -13 -10 -14 4 -9 9 3 16 10 16 15 0 13 -6 11 -20 -6z"/>
<path d="M5620 4019 c0 -5 5 -7 10 -4 6 3 10 8 10 11 0 2 -4 4 -10 4 -5 0 -10
-5 -10 -11z"/>
<path d="M3906 3985 c-9 -26 -7 -35 8 -35 10 0 13 8 11 21 -6 29 -11 33 -19
14z"/>
<path d="M3882 3970 c0 -14 2 -19 5 -12 2 6 2 18 0 25 -3 6 -5 1 -5 -13z"/>
<path d="M3900 3922 c0 -5 12 -11 28 -13 35 -5 120 4 107 12 -18 10 -135 11
-135 1z"/>
<path d="M4492 3833 c-1 -8 -18 -13 -39 -14 -21 -1 -30 -3 -20 -6 15 -4 16 -7
5 -21 -7 -9 -8 -13 -2 -9 6 3 11 0 11 -8 0 -8 -4 -12 -9 -9 -7 5 -13 -27 -9
-50 4 -24 -24 -32 -123 -34 -123 -4 -142 0 -150 33 -6 22 -9 23 -32 15 -14 -6
-30 -8 -35 -4 -5 3 -18 2 -30 -1 -16 -5 -18 -10 -9 -20 7 -8 9 -19 5 -25 -4
-6 -2 -17 5 -25 8 -9 8 -15 0 -20 -5 -3 -9 -20 -8 -36 3 -36 27 -44 101 -35
95 12 110 18 100 41 -3 8 0 15 7 15 6 0 8 -4 5 -10 -3 -5 -1 -10 4 -10 6 0 11
5 11 11 0 5 8 9 18 8 29 -4 102 12 102 23 0 6 -11 7 -27 3 -22 -5 -25 -4 -16
6 11 11 27 15 69 18 7 1 14 10 17 20 2 11 15 21 28 23 13 1 24 10 24 18 1 24
15 40 30 33 20 -7 19 8 -1 33 -8 10 -13 14 -10 7 4 -6 2 -14 -3 -17 -5 -4 -12
8 -14 26 -2 18 -5 27 -5 21z"/>
<path d="M2171 3534 c0 -11 3 -14 6 -6 3 7 2 16 -1 19 -3 4 -6 -2 -5 -13z"/>
</g>
</svg>
