<svg width="75" height="25" viewBox="0 0 75 25" fill="none" xmlns="http://www.w3.org/2000/svg">
<g clip-path="url(#clip0_268_986)">
<path d="M39.5267 6.72441C39.5267 7.57126 38.8472 8.25344 38.0037 8.25344C37.1603 8.25344 36.4808 7.57126 36.4808 6.72441C36.4808 5.87756 37.1368 5.19538 38.0037 5.19538C38.8707 5.21891 39.5267 5.90109 39.5267 6.72441ZM33.2474 9.80599C33.2474 9.94713 33.2474 10.1824 33.2474 10.1824C33.2474 10.1824 32.5211 9.24143 30.9747 9.24143C28.4208 9.24143 26.4292 11.1939 26.4292 13.8991C26.4292 16.5808 28.3974 18.5567 30.9747 18.5567C32.5445 18.5567 33.2474 17.5923 33.2474 17.5923V17.9922C33.2474 18.1804 33.388 18.3215 33.5754 18.3215H35.4733V9.47666C35.4733 9.47666 33.7395 9.47666 33.5754 9.47666C33.388 9.47666 33.2474 9.64133 33.2474 9.80599ZM33.2474 15.4752C32.896 15.9927 32.1931 16.4396 31.3496 16.4396C29.85 16.4396 28.702 15.4987 28.702 13.8991C28.702 12.2995 29.85 11.3585 31.3496 11.3585C32.1696 11.3585 32.9194 11.829 33.2474 12.323V15.4752ZM36.8791 9.47666H39.1284V18.3215H36.8791V9.47666ZM70.478 9.24143C68.9316 9.24143 68.2052 10.1824 68.2052 10.1824V5.21891H65.9559V18.3215C65.9559 18.3215 67.6898 18.3215 67.8538 18.3215C68.0412 18.3215 68.1818 18.1568 68.1818 17.9922V17.5923C68.1818 17.5923 68.9082 18.5567 70.4545 18.5567C73.0084 18.5567 75 16.5808 75 13.8991C75 11.2174 73.0084 9.24143 70.478 9.24143ZM70.1031 16.4161C69.2362 16.4161 68.5567 15.9692 68.2052 15.4516V12.2995C68.5567 11.829 69.3065 11.335 70.1031 11.335C71.6026 11.335 72.7507 12.276 72.7507 13.8756C72.7507 15.4752 71.6026 16.4161 70.1031 16.4161ZM64.7844 13.0758V18.345H62.5351V13.3345C62.5351 11.8761 62.0665 11.288 60.8013 11.288C60.1218 11.288 59.4189 11.6408 58.9738 12.1583V18.3215H56.7245V9.47666H58.5051C58.6926 9.47666 58.8332 9.64133 58.8332 9.80599V10.1824C59.4892 9.50019 60.3561 9.24143 61.223 9.24143C62.2071 9.24143 63.0272 9.52371 63.6832 10.0883C64.4798 10.7469 64.7844 11.5938 64.7844 13.0758ZM51.2652 9.24143C49.7188 9.24143 48.9925 10.1824 48.9925 10.1824V5.21891H46.7432V18.3215C46.7432 18.3215 48.477 18.3215 48.641 18.3215C48.8285 18.3215 48.9691 18.1568 48.9691 17.9922V17.5923C48.9691 17.5923 49.6954 18.5567 51.2418 18.5567C53.7957 18.5567 55.7873 16.5808 55.7873 13.8991C55.8107 11.2174 53.8191 9.24143 51.2652 9.24143ZM50.8903 16.4161C50.0234 16.4161 49.344 15.9692 48.9925 15.4516V12.2995C49.344 11.829 50.0937 11.335 50.8903 11.335C52.3899 11.335 53.538 12.276 53.538 13.8756C53.538 15.4752 52.3899 16.4161 50.8903 16.4161ZM44.7985 9.24143C45.478 9.24143 45.8294 9.35905 45.8294 9.35905V11.4526C45.8294 11.4526 43.955 10.8175 42.7835 12.1583V18.345H40.5342V9.47666C40.5342 9.47666 42.268 9.47666 42.4321 9.47666C42.6195 9.47666 42.7601 9.64133 42.7601 9.80599V10.1824C43.1818 9.68838 44.0956 9.24143 44.7985 9.24143ZM21.4386 17.5217C21.3215 17.2394 21.2043 16.9336 21.0872 16.6749C20.8997 16.2514 20.7123 15.8515 20.5483 15.4752L20.5248 15.4516C18.9082 11.9231 17.1743 8.34753 15.3468 4.81901L15.2765 4.67787C15.089 4.32501 14.9016 3.94864 14.7142 3.57226C14.4798 3.14884 14.2455 2.70189 13.8707 2.27847C13.1209 1.33752 12.0431 0.820007 10.895 0.820007C9.72352 0.820007 8.66917 1.33752 7.89597 2.23142C7.54452 2.65484 7.28678 3.10179 7.05248 3.52521C6.86504 3.90159 6.6776 4.27797 6.49016 4.63082L6.41987 4.77196C4.61574 8.30049 2.85848 11.8761 1.2418 15.4046L1.21837 15.4516C1.05436 15.828 0.866916 16.2279 0.679475 16.6513C0.562324 16.9101 0.445173 17.1924 0.328022 17.4982C0.0234296 18.3686 -0.0702911 19.1919 0.0468597 20.0387C0.304592 21.803 1.4761 23.285 3.09278 23.9436C3.70197 24.2024 4.33458 24.32 4.99063 24.32C5.17807 24.32 5.41237 24.2965 5.59981 24.273C6.37301 24.1789 7.16963 23.9201 7.94283 23.4732C8.90347 22.9321 9.81724 22.1558 10.8482 21.0267C11.8791 22.1558 12.8163 22.9321 13.7535 23.4732C14.5267 23.9201 15.3233 24.1789 16.0965 24.273C16.284 24.2965 16.5183 24.32 16.7057 24.32C17.3618 24.32 18.0178 24.2024 18.6036 23.9436C20.2437 23.285 21.3918 21.7795 21.6495 20.0387C21.8369 19.2154 21.7432 18.3921 21.4386 17.5217ZM10.8716 18.7449C9.60637 17.1453 8.78632 15.6398 8.50515 14.3696C8.388 13.8285 8.36457 13.358 8.43486 12.9346C8.48172 12.5582 8.6223 12.2289 8.80975 11.9466C9.25492 11.3115 10.0047 10.9116 10.8716 10.9116C11.7385 10.9116 12.5117 11.288 12.9335 11.9466C13.1209 12.2289 13.2615 12.5582 13.3083 12.9346C13.3786 13.358 13.3552 13.852 13.2381 14.3696C12.9569 15.6163 12.1368 17.1218 10.8716 18.7449ZM20.2202 19.8505C20.0562 21.0738 19.2362 22.1323 18.0881 22.6028C17.5258 22.838 16.9166 22.9086 16.3074 22.838C15.7216 22.7675 15.1359 22.5793 14.5267 22.2264C13.6832 21.7559 12.8397 21.0267 11.8557 19.9446C13.4021 18.0392 14.3393 16.2985 14.6907 14.7459C14.8547 14.0167 14.8782 13.358 14.8079 12.7464C14.7142 12.1583 14.5033 11.6173 14.1753 11.1468C13.4489 10.0883 12.2306 9.47666 10.8716 9.47666C9.51265 9.47666 8.29428 10.1118 7.56795 11.1468C7.23992 11.6173 7.02905 12.1583 6.93533 12.7464C6.84161 13.358 6.86504 14.0402 7.05248 14.7459C7.40394 16.2985 8.36457 18.0627 9.88754 19.9682C8.9269 21.0502 8.05998 21.7795 7.21649 22.2499C6.60731 22.6028 6.02155 22.791 5.4358 22.8615C4.80319 22.9321 4.194 22.838 3.65511 22.6263C2.50703 22.1558 1.68697 21.0973 1.52296 19.8741C1.45267 19.286 1.49953 18.6979 1.73383 18.0392C1.80412 17.804 1.92127 17.5688 2.03842 17.2865C2.20244 16.9101 2.38988 16.5102 2.57732 16.1103L2.60075 16.0633C4.21743 12.5582 5.95126 8.98267 7.75539 5.50119L7.82568 5.36005C8.01312 5.00719 8.20056 4.63082 8.388 4.27797C8.57544 3.90159 8.78632 3.54874 9.04405 3.24293C9.53608 2.67837 10.1921 2.37256 10.9185 2.37256C11.6448 2.37256 12.3008 2.67837 12.7929 3.24293C13.0506 3.54874 13.2615 3.90159 13.4489 4.27797C13.6364 4.63082 13.8238 5.00719 14.0112 5.36005L14.0815 5.50119C15.8622 9.00619 17.5961 12.5818 19.2127 16.0868V16.1103C19.4002 16.4867 19.5642 16.9101 19.7516 17.2865C19.8688 17.5688 19.9859 17.804 20.0562 18.0392C20.2437 18.6508 20.314 19.2389 20.2202 19.8505Z" fill="#FF385C"/>
</g>
<defs>
<clipPath id="clip0_268_986">
<rect width="75" height="23.5" fill="white" transform="translate(0 0.820007)"/>
</clipPath>
</defs>
</svg>
