<svg width="91" height="15" viewBox="0 0 91 15" fill="none" xmlns="http://www.w3.org/2000/svg">
<path d="M82.9931 13.268C83.7782 14.57 85.0179 14.57 85.3622 14.57H89.4118L84.6184 8.70398C82.4008 8.80198 81.2575 10.216 81.5055 10.818L82.9931 13.268Z" fill="url(#paint0_linear_268_965)"/>
<path d="M81.5606 10.804C81.5606 10.804 81.4091 10.496 81.4091 10.146C81.4091 8.78804 82.5936 8.03204 83.9297 7.73804L84.6735 8.69004C82.4559 8.74604 81.3126 10.202 81.5606 10.804Z" fill="url(#paint1_linear_268_965)"/>
<path d="M83.3925 6.43604C81.3677 6.43604 79.8939 6.78603 79.8939 7.58403C79.8939 7.89203 79.9903 8.13003 80.2383 8.59203L81.5744 10.846C81.5744 10.846 81.4228 10.538 81.4228 10.188C81.4228 8.83003 82.6074 8.07403 83.9435 7.78003C84.343 7.68203 84.7286 7.68203 85.1281 7.68203C85.4724 7.68203 85.7755 7.68203 86.0234 7.78003C85.8168 7.19203 85.4587 6.43604 83.3925 6.43604Z" fill="url(#paint2_linear_268_965)"/>
<path d="M78.1033 5.03601C78.6405 5.94601 78.8471 6.18401 80.1832 6.18401C81.1749 6.18401 82.7038 6.18401 82.7038 6.18401L79.2465 1.71801C78.4614 0.766007 78.062 0.570007 77.3182 0.570007H75.4449L78.1033 5.03601Z" fill="url(#paint3_linear_268_965)"/>
<path d="M39.6047 11.756V8.39604C39.6047 7.73804 39.3017 7.34604 38.7645 7.34604C38.0758 7.34604 37.5799 8.10204 37.5799 9.15204V11.714H36.3953C36.3953 11.714 36.3953 8.00404 36.3953 7.90604C36.3953 7.50004 36.3402 6.85604 36.3402 6.50604C36.3402 6.50604 36.8774 6.50604 37.2769 6.50604C37.3733 6.50604 37.4284 6.56204 37.4284 6.66004C37.4284 6.75804 37.4284 7.31804 37.4284 7.31804H37.4835C37.635 7.06604 37.9793 6.40804 39.0675 6.40804C40.1556 6.40804 40.7893 7.15004 40.7893 7.99004V11.658H39.6047V11.756ZM30.5138 10.65C30.5689 10.65 30.6102 10.65 30.6102 10.748C30.6102 11 30.6653 11.406 30.6653 11.546C30.4174 11.644 29.9215 11.896 29.3292 11.896C27.8003 11.896 26.8085 10.986 26.8085 9.18004C26.8085 7.52803 27.6488 6.46404 29.3292 6.46404C29.8664 6.46404 30.3623 6.66004 30.6653 6.81403C30.6653 7.01004 30.6653 7.41604 30.6102 7.61204C30.6102 7.66804 30.5551 7.71004 30.5138 7.71004C30.4587 7.71004 30.4587 7.71004 30.4174 7.71004C30.0179 7.51404 29.6736 7.40203 29.3843 7.40203C28.3926 7.40203 28.0069 8.06003 28.0069 9.15204C28.0069 10.16 28.3512 10.902 29.3843 10.902C29.7837 10.902 30.1694 10.748 30.376 10.65C30.4725 10.65 30.5138 10.65 30.5138 10.65ZM34.5634 11.756C34.4669 11.756 34.4118 11.7 34.3705 11.602C34.3705 11.448 34.3154 11.098 34.3154 11.098C34.2603 11.196 33.8196 11.854 32.7865 11.854C31.7534 11.854 31.2025 11.056 31.2025 10.202C31.2025 8.99804 32.332 8.39604 34.0675 8.39604H34.3154V8.20004C34.3154 7.65404 33.916 7.34604 33.2273 7.34604C32.5799 7.34604 32.0427 7.59804 31.8499 7.69604C31.8499 7.69604 31.7948 7.75204 31.7534 7.75204C31.6983 7.75204 31.657 7.69603 31.657 7.65404C31.657 7.45803 31.6019 7.10804 31.6019 6.85604C31.7948 6.75804 32.4972 6.50604 33.2824 6.50604C34.8113 6.50604 35.4587 7.20604 35.4587 8.36804V10.37C35.4587 11.126 35.5138 11.574 35.5551 11.77C35.5551 11.756 34.6185 11.756 34.5634 11.756ZM34.2741 9.15204H34.0813C32.5937 9.15204 32.3595 9.65604 32.3595 10.202C32.3595 10.65 32.6625 11.056 33.1997 11.056C33.9435 11.056 34.3292 10.356 34.3292 9.60004V9.15204H34.2741ZM19.7011 10.65C19.7562 10.65 19.7975 10.706 19.7975 10.748C19.7975 10.944 19.8526 11.448 19.8526 11.602C19.7011 11.658 19.1088 11.854 18.2686 11.854C16.6432 11.854 15.6515 11 15.6515 9.13804C15.6515 7.58404 16.4917 6.42204 17.9656 6.42204C19.4532 6.42204 20.1419 7.43004 20.1419 8.67604C20.1419 8.83004 20.1419 9.08204 20.0868 9.37604H16.8223C16.8223 10.286 17.3595 10.888 18.4063 10.888C18.9435 10.888 19.4394 10.692 19.5909 10.58C19.6598 10.65 19.6598 10.65 19.7011 10.65ZM16.8361 8.64804H19.0124C19.0675 7.79404 18.6129 7.34604 17.9793 7.34604C17.2906 7.34604 16.8912 7.85004 16.8361 8.64804ZM13.6267 11.756V8.45204C13.6267 7.85004 13.3788 7.40203 12.7865 7.40203C12.0978 7.40203 11.6983 8.15804 11.6983 9.20804V11.77H10.5138V8.41004C10.5138 7.86404 10.2658 7.36004 9.67355 7.36004C8.98485 7.36004 8.5854 8.11604 8.5854 9.22204V11.784H7.40083C7.40083 11.784 7.40083 8.52204 7.40083 8.01804C7.40083 7.51404 7.34573 6.81404 7.34573 6.61804C7.34573 6.61804 7.93802 6.61804 8.28237 6.61804C8.37879 6.61804 8.43388 6.67404 8.43388 6.77204C8.43388 6.92604 8.43388 7.43004 8.43388 7.43004H8.48898C8.54408 7.27604 8.92975 6.52004 10.0179 6.52004C11.0096 6.52004 11.3953 7.22004 11.5055 7.47204C11.6019 7.27604 12.0427 6.52004 13.0344 6.52004C14.0675 6.52004 14.7562 7.06604 14.7562 8.22804V11.84H13.6267V11.756ZM22.2218 9.25003V11.812H21.0372C21.0372 11.812 21.0372 8.29804 21.0372 7.94804C21.0372 7.59804 20.9821 6.84204 20.9821 6.59004C20.9821 6.59004 21.478 6.59004 21.9187 6.59004C22.0152 6.59004 22.0702 6.64603 22.0702 6.74404C22.0702 6.89804 22.0702 7.40203 22.0702 7.40203H22.1253C22.2218 7.20604 22.5661 6.49204 23.5028 6.49204C23.8471 6.49204 24.0399 6.59004 24.095 6.59004C24.095 6.78604 24.095 7.29004 24.0399 7.44404C24.0399 7.54204 23.9848 7.54204 23.9435 7.54204C23.9022 7.54204 23.8884 7.54204 23.8471 7.54204C23.792 7.48604 23.5992 7.44404 23.3512 7.44404C22.759 7.44404 22.2218 7.89204 22.2218 9.25003ZM24.6873 11.756V6.59004H25.8719V11.812H24.6873V11.756ZM24.6873 5.83404V4.68604H25.8719V5.83404H24.6873ZM5.67906 11.756L5.14187 10.202H2.27686L1.73967 11.756H0.5L3.11708 4.93804H4.45317L6.97383 11.756H5.67906ZM3.76446 6.18403L2.67631 9.29204H4.85262L3.76446 6.18403ZM72.2355 11.854C73.7645 11.854 74.4532 11.196 74.4532 10.3C74.4532 9.40404 73.8058 8.99804 73.1171 8.74604C72.9242 8.69004 72.7176 8.59204 72.5799 8.55004C72.1391 8.39604 71.8912 8.20004 71.8912 7.89204C71.8912 7.58404 72.1942 7.34604 72.7865 7.34604C73.3237 7.34604 73.7782 7.54204 73.916 7.65404C73.9711 7.65404 73.9711 7.71004 74.0124 7.71004C74.0675 7.71004 74.1088 7.71004 74.1088 7.61204C74.1088 7.45803 74.1639 7.10804 74.1639 6.81403C74.0124 6.75803 73.5165 6.46404 72.6763 6.46404C71.4366 6.46404 70.6515 7.12204 70.6515 8.01804C70.6515 8.87204 71.2438 9.27803 71.8361 9.47403C71.9876 9.53003 72.2355 9.62804 72.3733 9.67003C73.0207 9.86603 73.2135 10.076 73.2135 10.426C73.2135 10.832 72.7727 11.028 72.084 11.028C71.4917 11.028 71.0923 10.832 70.8995 10.72C70.8444 10.72 70.8444 10.664 70.803 10.664C70.7066 10.664 70.7066 10.762 70.7066 10.818C70.7066 10.874 70.6515 11.42 70.6515 11.574C70.803 11.616 71.4504 11.854 72.2355 11.854ZM69.522 10.65C69.5771 10.65 69.6185 10.706 69.6185 10.748C69.6185 10.944 69.6736 11.448 69.6736 11.602C69.522 11.658 68.9298 11.854 68.0895 11.854C66.4642 11.854 65.4725 11 65.4725 9.13804C65.4725 7.52804 66.3127 6.42204 67.7865 6.42204C69.2603 6.42204 69.9628 7.43004 69.9628 8.67604C69.9628 8.83004 69.9628 9.08204 69.9077 9.37604H66.6432C66.6432 10.286 67.1804 10.888 68.2273 10.888C68.7645 10.888 69.2603 10.692 69.4118 10.58C69.4256 10.65 69.4669 10.65 69.522 10.65ZM66.657 8.64804H68.8333C68.8884 7.79404 68.4339 7.34604 67.8003 7.34604C67.0565 7.34604 66.657 7.85004 66.657 8.64804ZM63.3926 11.756V8.39604C63.3926 7.73804 63.0895 7.34604 62.5523 7.34604C61.8636 7.34604 61.3678 8.10204 61.3678 9.15204V11.714H60.1832C60.1832 11.714 60.1832 8.00404 60.1832 7.90604C60.1832 7.50004 60.1281 6.85604 60.1281 6.54804C60.1281 6.54804 60.6653 6.54804 61.0647 6.54804C61.1612 6.54804 61.2163 6.60404 61.2163 6.70204C61.2163 6.80003 61.2163 7.36004 61.2163 7.36004H61.2714C61.4229 7.10804 61.7672 6.45004 62.8554 6.45004C63.9435 6.45004 64.5771 7.20604 64.5771 8.06004V11.728H63.3926V11.756ZM52.8278 9.25003V11.812H51.6432C51.6432 11.812 51.6432 8.29804 51.6432 7.94804C51.6432 7.59804 51.5882 6.89804 51.5882 6.59004C51.5882 6.59004 52.084 6.59004 52.5248 6.59004C52.6212 6.59004 52.6763 6.64603 52.6763 6.74404C52.6763 6.89804 52.6763 7.40203 52.6763 7.40203H52.7314C52.8278 7.20604 53.1722 6.49204 54.1088 6.49204C54.4532 6.49204 54.646 6.59004 54.7011 6.59004C54.7011 6.78604 54.7011 7.29004 54.646 7.44404C54.646 7.54204 54.5909 7.54204 54.5496 7.54204C54.4945 7.54204 54.4945 7.54204 54.4532 7.54204C54.3981 7.48604 54.2052 7.44404 53.9573 7.44404C53.4201 7.44404 52.8278 7.89204 52.8278 9.25003ZM56.5331 11.756V4.68604H55.3485V11.756H56.5331ZM49.2741 11.756V6.59004H50.4587V11.812H49.2741V11.756ZM49.2328 5.83404V4.68604H50.4174V5.83404H49.2328ZM57.814 11.756V6.59004H58.9986V11.812H57.814V11.756ZM57.814 5.83404V4.68604H58.9986V5.83404H57.814ZM47.4972 11.756L46.9601 10.202H44.095L43.5578 11.756H42.3182L44.8802 4.93804H46.2163L48.7369 11.756H47.4972ZM45.5275 6.18403L44.4394 9.30604H46.657L45.5275 6.18403Z" fill="#36495A"/>
<path d="M90.5 14.262C90.5 14.416 90.3485 14.57 90.197 14.57C90.0454 14.57 89.8939 14.416 89.8939 14.262C89.8939 14.108 90.0454 13.954 90.197 13.954C90.4036 13.912 90.5 14.066 90.5 14.262ZM89.9628 14.262C89.9628 14.416 90.0592 14.514 90.2107 14.514C90.3622 14.514 90.4587 14.416 90.4587 14.262C90.4587 14.108 90.3622 14.01 90.2107 14.01C90.0592 14.01 89.9628 14.122 89.9628 14.262ZM90.2107 14.262L90.1556 14.416H90.1005V14.108C90.1005 14.108 90.1556 14.108 90.197 14.108C90.252 14.108 90.2934 14.164 90.2934 14.206C90.2934 14.262 90.2383 14.304 90.2383 14.304L90.3347 14.458H90.3071L90.2107 14.262ZM90.2107 14.22C90.2658 14.22 90.2658 14.22 90.2658 14.164C90.2658 14.108 90.2658 14.108 90.2107 14.108V14.22Z" fill="#36495A"/>
<defs>
<linearGradient id="paint0_linear_268_965" x1="85.4483" y1="8.52192" x2="85.4483" y2="17.5986" gradientUnits="userSpaceOnUse">
<stop stop-color="#ED1C24"/>
<stop offset="0.1263" stop-color="#E81B23"/>
<stop offset="0.2703" stop-color="#DB1A21"/>
<stop offset="0.4229" stop-color="#C4171D"/>
<stop offset="0.5816" stop-color="#A41317"/>
<stop offset="0.7436" stop-color="#7B0E10"/>
<stop offset="0.7546" stop-color="#780E0F"/>
</linearGradient>
<linearGradient id="paint1_linear_268_965" x1="81.4126" y1="9.27613" x2="84.671" y2="9.27613" gradientUnits="userSpaceOnUse">
<stop stop-color="#69231D"/>
<stop offset="0.2647" stop-color="#8D2922"/>
<stop offset="0.5812" stop-color="#B22F26"/>
<stop offset="0.8377" stop-color="#C93329"/>
<stop offset="1" stop-color="#D1342A"/>
</linearGradient>
<linearGradient id="paint2_linear_268_965" x1="81.0735" y1="8.82527" x2="84.7363" y2="6.65996" gradientUnits="userSpaceOnUse">
<stop offset="0.1" stop-color="#E7EBEE"/>
<stop offset="0.3511" stop-color="#D5DCE0"/>
<stop offset="0.8549" stop-color="#A5B4BB"/>
<stop offset="1" stop-color="#96A7B0"/>
</linearGradient>
<linearGradient id="paint3_linear_268_965" x1="79.0716" y1="6.92546" x2="79.0716" y2="0.654665" gradientUnits="userSpaceOnUse">
<stop stop-color="#1C2F72"/>
<stop offset="0.1275" stop-color="#174687"/>
<stop offset="0.4038" stop-color="#0D72AF"/>
<stop offset="0.6512" stop-color="#0692CC"/>
<stop offset="0.8584" stop-color="#02A6DE"/>
<stop offset="1" stop-color="#00ADE4"/>
</linearGradient>
</defs>
</svg>
