<svg width="75" height="25" viewBox="0 0 75 25" fill="none" xmlns="http://www.w3.org/2000/svg">
<g clip-path="url(#clip0_268_796)">
<path d="M9.3817 8.99363V11.5573H15.4396C15.2788 12.9754 14.7963 14.0664 14.0457 14.7754C13.188 15.6482 11.7941 16.63 9.3817 16.63C5.68263 16.63 2.78771 13.5754 2.78771 9.81181C2.78771 6.04817 5.62902 2.99363 9.3817 2.99363C11.3653 2.99363 12.8663 3.81181 13.9385 4.84818L15.7076 3.04817C14.2066 1.57545 12.1694 0.429993 9.3817 0.429993C4.28878 0.429993 0 4.62999 0 9.81181C0 14.9936 4.28878 19.1936 9.3817 19.1936C12.1158 19.1936 14.2066 18.2664 15.8149 16.5754C17.4768 14.8845 18.0129 12.4845 18.0129 10.5754C18.0129 9.97545 17.9593 9.42999 17.9056 8.99363H9.3817Z" fill="#4285F4"/>
<path d="M25.5182 6.86633C22.248 6.86633 19.5139 9.42997 19.5139 12.9209C19.5139 16.4118 22.1944 18.9754 25.5182 18.9754C28.842 18.9754 31.5225 16.4663 31.5225 12.9754C31.5225 9.42997 28.842 6.86633 25.5182 6.86633ZM25.5182 16.63C23.6955 16.63 22.1408 15.1027 22.1408 12.9754C22.1408 10.7936 23.6955 9.32088 25.5182 9.32088C27.341 9.32088 28.8956 10.7936 28.8956 12.9754C28.8956 15.1027 27.341 16.63 25.5182 16.63Z" fill="#EA4335"/>
<path d="M54.8427 8.22997H54.7355C54.1458 7.52088 53.02 6.86633 51.5725 6.86633C48.5704 6.86633 45.9971 9.48451 45.9971 12.9209C45.9971 16.3027 48.5704 18.9754 51.5725 18.9754C53.02 18.9754 54.1458 18.3209 54.7355 17.6118H54.8427V18.4845C54.8427 20.7754 53.6097 22.03 51.6798 22.03C50.0715 22.03 49.1065 20.8845 48.6776 19.8482L46.426 20.83C47.0693 22.4118 48.8384 24.43 51.7334 24.43C54.7891 24.43 57.416 22.5754 57.416 18.1027V7.19361H54.95V8.22997H54.8427ZM51.8406 16.63C50.0179 16.63 48.6776 15.0482 48.6776 12.9754C48.6776 10.8482 50.0715 9.32088 51.8406 9.32088C53.6097 9.32088 55.0036 10.9027 55.0036 13.03C55.0572 15.1027 53.6633 16.63 51.8406 16.63Z" fill="#4285F4"/>
<path d="M38.8671 6.86633C35.5969 6.86633 32.8628 9.42997 32.8628 12.9209C32.8628 16.4118 35.5432 18.9754 38.8671 18.9754C42.1909 18.9754 44.8713 16.4663 44.8713 12.9754C44.8713 9.42997 42.1909 6.86633 38.8671 6.86633ZM38.8671 16.63C37.0443 16.63 35.4896 15.1027 35.4896 12.9754C35.4896 10.7936 37.0443 9.32088 38.8671 9.32088C40.6898 9.32088 42.2445 10.7936 42.2445 12.9754C42.2445 15.1027 40.6898 16.63 38.8671 16.63Z" fill="#FBBC05"/>
<path d="M59.3996 0.702698H61.9728V19.03H59.3996V0.702698Z" fill="#34A853"/>
<path d="M69.9071 16.63C68.5668 16.63 67.6555 16.03 67.0122 14.7754L75 11.4482L74.7319 10.7391C74.2495 9.37542 72.6948 6.86633 69.639 6.86633C66.5833 6.86633 64.01 9.32088 64.01 12.9209C64.01 16.3027 66.5297 18.9754 69.9071 18.9754C72.6412 18.9754 74.1959 17.2845 74.8928 16.3027L72.8556 14.9391C72.1587 15.9754 71.2473 16.63 69.9071 16.63ZM69.7463 9.15724C70.8184 9.15724 71.7298 9.7027 71.9979 10.4663L66.6369 12.7572C66.5833 10.2482 68.406 9.15724 69.7463 9.15724Z" fill="#EA4335"/>
</g>
<defs>
<clipPath id="clip0_268_796">
<rect width="75" height="24" fill="white" transform="translate(0 0.429993)"/>
</clipPath>
</defs>
</svg>
