<?xml version="1.0" encoding="UTF-8"?>
<svg version="1.1" xmlns="http://www.w3.org/2000/svg" width="200" height="200">
<path d="M0 0 C66 0 132 0 200 0 C200 66 200 132 200 200 C134 200 68 200 0 200 C0 134 0 68 0 0 Z " fill="#FDFEFE" transform="translate(0,0)"/>
<path d="M0 0 C66 0 132 0 200 0 C200 11.22 200 22.44 200 34 C134 34 68 34 0 34 C0 22.78 0 11.56 0 0 Z " fill="#FEFEFE" transform="translate(0,166)"/>
<path d="M0 0 C3.46679688 0.04882812 3.46679688 0.04882812 6.93359375 0.09765625 C6.93359375 3.72765625 6.93359375 7.35765625 6.93359375 11.09765625 C5.94359375 11.59265625 5.94359375 11.59265625 4.93359375 12.09765625 C5.59359375 12.75765625 6.25359375 13.41765625 6.93359375 14.09765625 C7.1088443 16.89450422 7.16502564 19.59093705 7.12890625 22.38671875 C7.12607635 23.20514252 7.12324646 24.02356628 7.12033081 24.86679077 C7.10911907 27.48556018 7.08401304 30.10398989 7.05859375 32.72265625 C7.04856522 34.49608882 7.03943915 36.26952674 7.03125 38.04296875 C7.00917653 42.39466251 6.97464019 46.74610175 6.93359375 51.09765625 C1.98359375 51.59265625 1.98359375 51.59265625 -3.06640625 52.09765625 C-3.06640625 44.83765625 -3.06640625 37.57765625 -3.06640625 30.09765625 C-5.37640625 30.42765625 -7.68640625 30.75765625 -10.06640625 31.09765625 C-10.06116943 31.75886475 -10.05593262 32.42007324 -10.05053711 33.10131836 C-10.02982969 36.07925476 -10.01676613 39.05717607 -10.00390625 42.03515625 C-9.99552734 43.07607422 -9.98714844 44.11699219 -9.97851562 45.18945312 C-9.97529297 46.17880859 -9.97207031 47.16816406 -9.96875 48.1875 C-9.96351318 49.10394287 -9.95827637 50.02038574 -9.95288086 50.96459961 C-10.06640625 53.09765625 -10.06640625 53.09765625 -11.06640625 54.09765625 C-14.03640625 54.09765625 -17.00640625 54.09765625 -20.06640625 54.09765625 C-20.06640625 36.93765625 -20.06640625 19.77765625 -20.06640625 2.09765625 C-17.06640625 1.09765625 -17.06640625 1.09765625 -10.06640625 1.09765625 C-10.06640625 8.02765625 -10.06640625 14.95765625 -10.06640625 22.09765625 C-7.75640625 22.09765625 -5.44640625 22.09765625 -3.06640625 22.09765625 C-3.07426147 21.15128296 -3.07426147 21.15128296 -3.08227539 20.18579102 C-3.10298451 17.34392278 -3.11604691 14.50207037 -3.12890625 11.66015625 C-3.13728516 10.66693359 -3.14566406 9.67371094 -3.15429688 8.65039062 C-3.15913086 7.2340332 -3.15913086 7.2340332 -3.1640625 5.7890625 C-3.17191772 4.47723999 -3.17191772 4.47723999 -3.17993164 3.13891602 C-3.02507601 0.35451179 -2.78681512 0.13170204 0 0 Z " fill="#6CBBE0" transform="translate(58.06640625,76.90234375)"/>
<path d="M0 0 C0.07431567 6.15638608 0.12868084 12.31250935 0.16479492 18.46923828 C0.17985469 20.56238353 0.20030671 22.65549736 0.22631836 24.74853516 C0.26282501 27.76212328 0.27975473 30.77529312 0.29296875 33.7890625 C0.30845261 34.72054108 0.32393646 35.65201965 0.33988953 36.61172485 C0.341237 41.84754075 -0.07414281 45.46581886 -3 50 C-6.4282448 53.26861478 -10.36596613 55.29760176 -15.125 55.5625 C-19.58437021 54.91517207 -21.69941335 54.06483046 -25 51 C-27.11497755 45.40145091 -27.26652269 40.2851619 -27.1953125 34.34765625 C-27.1924826 33.44752304 -27.18965271 32.54738983 -27.18673706 31.61997986 C-27.17561278 28.7673468 -27.15052283 25.91503689 -27.125 23.0625 C-27.11496017 21.11914518 -27.10583608 19.17578541 -27.09765625 17.23242188 C-27.07569888 12.48815824 -27.04122301 7.74413376 -27 3 C-23.7 2.67 -20.4 2.34 -17 2 C-17 5.63 -17 9.26 -17 13 C-17.99 13.495 -17.99 13.495 -19 14 C-19 12.68 -19 11.36 -19 10 C-19.99 10 -20.98 10 -22 10 C-21.67 11.32 -21.34 12.64 -21 14 C-21.99 14 -22.98 14 -24 14 C-23.34 14.66 -22.68 15.32 -22 16 C-21.5859375 18.1640625 -21.5859375 18.1640625 -21.375 20.625 C-21.30023438 21.44226563 -21.22546875 22.25953125 -21.1484375 23.1015625 C-21.07496094 24.04128906 -21.07496094 24.04128906 -21 25 C-20.34 24.67 -19.68 24.34 -19 24 C-19.185625 23.21625 -19.37125 22.4325 -19.5625 21.625 C-20 19 -20 19 -19 17 C-18.34 17 -17.68 17 -17 17 C-16.67 26.24 -16.34 35.48 -16 45 C-14.35 45 -12.7 45 -11 45 C-10.12000837 30.65299359 -9.87286115 16.37255792 -10 2 C-6.38026598 0.68373308 -3.90432869 0 0 0 Z " fill="#409CC6" transform="translate(98,72)"/>
<path d="M0 0 C3.13339747 4.09443951 2.56187734 8.65005706 2.125 13.5625 C-0.845 13.8925 -3.815 14.2225 -6.875 14.5625 C-7.205 11.9225 -7.535 9.2825 -7.875 6.5625 C-9.195 6.5625 -10.515 6.5625 -11.875 6.5625 C-12.64034775 9.3177519 -13.06522104 11.00768864 -12.125 13.75 C-10.83916127 15.85363844 -10.83916127 15.85363844 -7.875 17.5625 C-7.875 18.2225 -7.875 18.8825 -7.875 19.5625 C-7.28074219 19.82289062 -6.68648437 20.08328125 -6.07421875 20.3515625 C-3.73389461 21.64019569 -2.40903359 22.91060441 -0.6875 24.9375 C-0.17832031 25.52273437 0.33085937 26.10796875 0.85546875 26.7109375 C3.63139194 30.75951471 3.7961929 35.79059428 3.125 40.5625 C0.42955136 45.66459922 -2.3964311 48.73631037 -7.875 50.5625 C-12.48950983 51.08962565 -15.83473686 51.19099232 -19.875 48.75 C-23.0553322 45.27151166 -22.99075037 42.4012814 -22.9375 37.875 C-22.92847656 36.88113281 -22.91945312 35.88726562 -22.91015625 34.86328125 C-22.89855469 34.10402344 -22.88695312 33.34476563 -22.875 32.5625 C-19.905 32.5625 -16.935 32.5625 -13.875 32.5625 C-13.545 35.2025 -13.215 37.8425 -12.875 40.5625 C-11.225 41.2225 -9.575 41.8825 -7.875 42.5625 C-6.76995111 37.52030988 -6.76995111 37.52030988 -8.1875 32.6875 C-9.70225163 30.4729069 -9.70225163 30.4729069 -11.875 29.5625 C-11.875 28.9025 -11.875 28.2425 -11.875 27.5625 C-12.7103125 27.253125 -12.7103125 27.253125 -13.5625 26.9375 C-17.34550286 24.68814695 -20.25688256 21.46836211 -21.625 17.25 C-21.7075 16.693125 -21.79 16.13625 -21.875 15.5625 C-22.205 15.2325 -22.535 14.9025 -22.875 14.5625 C-23.28579803 9.32482506 -22.7305662 5.99355099 -19.875 1.5625 C-14.11174866 -4.20075134 -6.40463007 -5.43001245 0 0 Z " fill="#59A8CC" transform="translate(154.875,68.4375)"/>
<path d="M0 0 C0 2.31 0 4.62 0 7 C-1.32 6.67 -2.64 6.34 -4 6 C-4.33 6.66 -4.66 7.32 -5 8 C-7.62194106 8.89800095 -10.28951964 9.39767103 -13 10 C-13.33 13.96 -13.66 17.92 -14 22 C-10.7 21.67 -7.4 21.34 -4 21 C-4 23.64 -4 26.28 -4 29 C-6.97 29.66 -9.94 30.32 -13 31 C-13.33 35.29 -13.66 39.58 -14 44 C-11.03 43.505 -11.03 43.505 -8 43 C-5.32189925 42.88803927 -2.68267314 42.95374701 0 43 C0.09765625 49.15234375 0.09765625 49.15234375 0 51 C-1.9549243 52.9549243 -5.45163185 52.71524167 -8.0625 53.0625 C-9.35285156 53.23910156 -10.64320312 53.41570312 -11.97265625 53.59765625 C-16.05339211 54.1422455 -19.76034079 54 -24 54 C-24 37.17 -24 20.34 -24 3 C-15.69280701 0.62651629 -8.53883493 -0.17789239 0 0 Z " fill="#359AC8" transform="translate(128,69)"/>
<path d="M0 0 C0 2.31 0 4.62 0 7 C-1.32 6.67 -2.64 6.34 -4 6 C-4.33 6.66 -4.66 7.32 -5 8 C-7.62194106 8.89800095 -10.28951964 9.39767103 -13 10 C-13.33 13.96 -13.66 17.92 -14 22 C-10.7 21.67 -7.4 21.34 -4 21 C-4 22.98 -4 24.96 -4 27 C-10.15234375 27.87890625 -10.15234375 27.87890625 -12 28 C-12.33 27.67 -12.66 27.34 -13 27 C-13.33 27.66 -13.66 28.32 -14 29 C-14.99 28.67 -15.98 28.34 -17 28 C-16.01 27.01 -15.02 26.02 -14 25 C-15.32 24.34 -16.64 23.68 -18 23 C-17.67 20.69 -17.34 18.38 -17 16 C-18.32 16.33 -19.64 16.66 -21 17 C-21.33 15.68 -21.66 14.36 -22 13 C-22.33 26.53 -22.66 40.06 -23 54 C-23.33 54 -23.66 54 -24 54 C-24 37.17 -24 20.34 -24 3 C-15.69280701 0.62651629 -8.53883493 -0.17789239 0 0 Z " fill="#8EC3DD" transform="translate(128,69)"/>
<path d="M0 0 C2.97 0 5.94 0 9 0 C9 6.6 9 13.2 9 20 C8.67 20 8.34 20 8 20 C7.8046875 17.94921875 7.609375 15.8984375 7.4140625 13.84765625 C7.20910156 12.93306641 7.20910156 12.93306641 7 12 C6.34 11.67 5.68 11.34 5 11 C5 10.01 5 9.02 5 8 C5.99 8 6.98 8 8 8 C7.34 7.01 6.68 6.02 6 5 C5.01 5 4.02 5 3 5 C3.33 5.99 3.66 6.98 4 8 C3.34 8 2.68 8 2 8 C2.99 9.485 2.99 9.485 4 11 C4 11.99 4 12.98 4 14 C4.66 14 5.32 14 6 14 C6 16 6 18 6 20 C5.01 20 4.02 20 3 20 C2.67 21.98 2.34 23.96 2 26 C3.32 26.66 4.64 27.32 6 28 C5.01 29.98 4.02 31.96 3 34 C3.66 34.33 4.32 34.66 5 35 C5 35.66 5 36.32 5 37 C6.41377341 34.36095629 7.37240135 31.92879371 8 29 C8.33 29 8.66 29 9 29 C9 36.59 9 44.18 9 52 C6.03 52 3.06 52 0 52 C0 34.84 0 17.68 0 0 Z " fill="#449FC9" transform="translate(38,79)"/>
<path d="M0 0 C2 1 2 1 3 2 C3.55071508 5.73699521 3.79576793 9.42827578 2.05859375 12.859375 C-0.51796436 16.1224768 -2.97000346 18.0840917 -7 19 C-11.67685438 19.54620197 -14.89661094 19.66663089 -19 17.1875 C-22.1803322 13.70901166 -22.11575037 10.8387814 -22.0625 6.3125 C-22.05347656 5.31863281 -22.04445312 4.32476562 -22.03515625 3.30078125 C-22.02355469 2.54152344 -22.01195312 1.78226562 -22 1 C-19.03 1 -16.06 1 -13 1 C-12.67 3.64 -12.34 6.28 -12 9 C-9.525 9.99 -9.525 9.99 -7 11 C-6.34 8.36 -5.68 5.72 -5 3 C-4.01 3 -3.02 3 -2 3 C-2 2.34 -2 1.68 -2 1 C-1.34 0.67 -0.68 0.34 0 0 Z " fill="#3F96BC" transform="translate(154,100)"/>
<path d="M0 0 C3.30629875 2.80316633 4.79924534 4.29485602 5.30859375 8.62109375 C5.3121117 11.10124618 5.21963771 13.53029601 5 16 C2.03 16.33 -0.94 16.66 -4 17 C-4.33 14.36 -4.66 11.72 -5 9 C-6.32 9 -7.64 9 -9 9 C-9.66 10.32 -10.32 11.64 -11 13 C-11.99 13 -12.98 13 -14 13 C-14.33 11.35 -14.66 9.7 -15 8 C-15.66 8.66 -16.32 9.32 -17 10 C-17 10.99 -17 11.98 -17 13 C-17.99 13.33 -18.98 13.66 -20 14 C-19.6464928 8.10821334 -18.38365812 5.01058084 -14 1 C-9.43899363 -1.04588352 -4.7588056 -1.69201977 0 0 Z " fill="#4D9DC3" transform="translate(152,66)"/>
<path d="M0 0 C-0.99 0.33 -1.98 0.66 -3 1 C-2.01 2.485 -2.01 2.485 -1 4 C-1.2421875 6.26171875 -1.2421875 6.26171875 -1.875 8.6875 C-2.07867187 9.49574219 -2.28234375 10.30398437 -2.4921875 11.13671875 C-2.65976563 11.75160156 -2.82734375 12.36648437 -3 13 C-3.66 13 -4.32 13 -5 13 C-5 13.66 -5 14.32 -5 15 C-4.01 15.33 -3.02 15.66 -2 16 C-2.33 16.66 -2.66 17.32 -3 18 C-2.34 18.33 -1.68 18.66 -1 19 C-1.144375 19.70125 -1.28875 20.4025 -1.4375 21.125 C-2.01478375 24.07556141 -2.51695141 27.03270151 -3 30 C-4.32 30.33 -5.64 30.66 -7 31 C-7 30.34 -7 29.68 -7 29 C-7.66 29 -8.32 29 -9 29 C-9 33.62 -9 38.24 -9 43 C-9.33 43 -9.66 43 -10 43 C-10 29.14 -10 15.28 -10 1 C-3.25 -1.25 -3.25 -1.25 0 0 Z " fill="#91CCE6" transform="translate(98,73)"/>
<path d="M0 0 C0.99 0 1.98 0 3 0 C3 9.57 3 19.14 3 29 C0.03 29.33 -2.94 29.66 -6 30 C-6 22.74 -6 15.48 -6 8 C-4.515 8.99 -4.515 8.99 -3 10 C-3 10.66 -3 11.32 -3 12 C-2.01 11.67 -1.02 11.34 0 11 C-0.556875 10.113125 -1.11375 9.22625 -1.6875 8.3125 C-3 5 -3 5 -1.875 2.125 C-1.25625 1.42375 -0.6375 0.7225 0 0 Z " fill="#51A0C4" transform="translate(62,99)"/>
<path d="M0 0 C0.66 0 1.32 0 2 0 C2 2.64 2 5.28 2 8 C2.66 8 3.32 8 4 8 C4.33 8.99 4.66 9.98 5 11 C7.00016466 12.20882096 7.00016466 12.20882096 9 13 C9 15.31 9 17.62 9 20 C12.3 19.67 15.6 19.34 19 19 C19 20.98 19 22.96 19 25 C12.84765625 25.87890625 12.84765625 25.87890625 11 26 C10.67 25.67 10.34 25.34 10 25 C9.67 25.66 9.34 26.32 9 27 C8.01 26.67 7.02 26.34 6 26 C6.99 25.01 7.98 24.02 9 23 C7.68 22.34 6.36 21.68 5 21 C5.33 18.69 5.66 16.38 6 14 C4.68 14.33 3.36 14.66 2 15 C1.67 13.68 1.34 12.36 1 11 C0.67 24.53 0.34 38.06 0 52 C-0.33 52 -0.66 52 -1 52 C-1.02526739 44.75513449 -1.0428318 37.51028026 -1.05493164 30.26538086 C-1.05997356 27.79857967 -1.06680691 25.33178148 -1.07543945 22.86499023 C-1.08751125 19.32795471 -1.09322956 15.79095855 -1.09765625 12.25390625 C-1.10281754 11.14350479 -1.10797882 10.03310333 -1.11329651 8.88905334 C-1.11337204 7.86807053 -1.11344757 6.84708771 -1.11352539 5.79516602 C-1.115746 4.89137711 -1.11796661 3.9875882 -1.12025452 3.05641174 C-1 1 -1 1 0 0 Z " fill="#73B8DA" transform="translate(105,71)"/>
<path d="M0 0 C0 3.63 0 7.26 0 11 C-0.99 11.495 -0.99 11.495 -2 12 C-2 10.68 -2 9.36 -2 8 C-2.99 8 -3.98 8 -5 8 C-4.67 9.32 -4.34 10.64 -4 12 C-5.65 11.67 -7.3 11.34 -9 11 C-9 18.92 -9 26.84 -9 35 C-7.02 34.505 -7.02 34.505 -5 34 C-3 35 -3 35 -2.296875 36.77734375 C-2.11640625 37.49019531 -1.9359375 38.20304687 -1.75 38.9375 C-1.55921875 39.64777344 -1.3684375 40.35804687 -1.171875 41.08984375 C-1.11515625 41.72019531 -1.0584375 42.35054687 -1 43 C-1.66 43.66 -2.32 44.32 -3 45 C-3.99 45 -4.98 45 -6 45 C-5.33333333 43.66666667 -4.66666667 42.33333333 -4 41 C-4.66 40.67 -5.32 40.34 -6 40 C-6.33 40.66 -6.66 41.32 -7 42 C-7.66 40.02 -8.32 38.04 -9 36 C-9 37.98 -9 39.96 -9 42 C-9.33 42 -9.66 42 -10 42 C-10 28.47 -10 14.94 -10 1 C-3 0 -3 0 0 0 Z " fill="#93C3DA" transform="translate(81,74)"/>
<path d="M0 0 C0.99 0.66 1.98 1.32 3 2 C4.65583225 2.69313908 6.32110979 3.36474424 8 4 C8 4.66 8 5.32 8 6 C8.66 6 9.32 6 10 6 C10 5.01 10 4.02 10 3 C8.68 2.67 7.36 2.34 6 2 C10.76307437 1.04738513 15.1666528 0.91666643 20 1 C20.09765625 7.15234375 20.09765625 7.15234375 20 9 C18.04392603 10.95607397 14.55254146 10.71758769 11.875 11.0625 C10.57304688 11.23910156 9.27109375 11.41570312 7.9296875 11.59765625 C4.25129227 11.97427127 0.69401035 12.07196124 -3 12 C-3 11.34 -3 10.68 -3 10 C-0.36 10 2.28 10 5 10 C5 8.35 5 6.7 5 5 C3.02 5.33 1.04 5.66 -1 6 C-0.67 4.02 -0.34 2.04 0 0 Z " fill="#51A3CA" transform="translate(108,111)"/>
<path d="M0 0 C0.99 0.495 0.99 0.495 2 1 C1.67 2.65 1.34 4.3 1 6 C2.32 6.66 3.64 7.32 5 8 C4.01 9.98 3.02 11.96 2 14 C2.66 14.33 3.32 14.66 4 15 C4 15.66 4 16.32 4 17 C5.41377341 14.36095629 6.37240135 11.92879371 7 9 C7.33 9 7.66 9 8 9 C8 16.26 8 23.52 8 31 C6.35 30.67 4.7 30.34 3 30 C2.67 29.01 2.34 28.02 2 27 C1.34 27 0.68 27 0 27 C0 18.09 0 9.18 0 0 Z " fill="#208EC1" transform="translate(39,99)"/>
<path d="M0 0 C0.66 0 1.32 0 2 0 C1.67 1.32 1.34 2.64 1 4 C2.423125 3.690625 2.423125 3.690625 3.875 3.375 C4.90625 3.25125 5.9375 3.1275 7 3 C9 5 9 5 9.1953125 6.9453125 C9.13020833 8.96354167 9.06510417 10.98177083 9 13 C8.01 13 7.02 13 6 13 C4.68642084 15.68529342 4.68642084 15.68529342 4 19 C5.24943341 22.3350733 5.24943341 22.3350733 7 25 C5.68 25 4.36 25 3 25 C0 21.78571429 0 21.78571429 0 19 C-0.66 19 -1.32 19 -2 19 C-2.33 18.01 -2.66 17.02 -3 16 C-2.01 15.67 -1.02 15.34 0 15 C0 10.05 0 5.1 0 0 Z " fill="#7FC3E3" transform="translate(56,86)"/>
<path d="M0 0 C0.66 0.33 1.32 0.66 2 1 C2 2.65 2 4.3 2 6 C2.61875 6.0825 3.2375 6.165 3.875 6.25 C6 7 6 7 7.125 8.9375 C7.41375 9.618125 7.7025 10.29875 8 11 C8.66 11.66 9.32 12.32 10 13 C9.195625 13.28875 8.39125 13.5775 7.5625 13.875 C4.8673532 14.73262568 4.8673532 14.73262568 4 17 C7.465 16.505 7.465 16.505 11 16 C11.33 17.98 11.66 19.96 12 22 C12.99 22.33 13.98 22.66 15 23 C13.02 23 11.04 23 9 23 C9 22.01 9 21.02 9 20 C8.34 20 7.68 20 7 20 C6.67 20.66 6.34 21.32 6 22 C4.5 20.625 4.5 20.625 3 19 C3 18.34 3 17.68 3 17 C2.34 16.67 1.68 16.34 1 16 C1 14.68 1 13.36 1 12 C-0.32 11.67 -1.64 11.34 -3 11 C-3.33 9.68 -3.66 8.36 -4 7 C-3.34 7 -2.68 7 -2 7 C-1.67 6.01 -1.34 5.02 -1 4 C-1.33 3.34 -1.66 2.68 -2 2 C-1.34 2 -0.68 2 0 2 C0 1.34 0 0.68 0 0 Z " fill="#A3D7EB" transform="translate(136,73)"/>
<path d="M0 0 C3.46679688 0.04882812 3.46679688 0.04882812 6.93359375 0.09765625 C6.93359375 3.72765625 6.93359375 7.35765625 6.93359375 11.09765625 C1.93359375 13.09765625 1.93359375 13.09765625 -1.06640625 13.09765625 C-0.73640625 11.77765625 -0.40640625 10.45765625 -0.06640625 9.09765625 C-0.72640625 9.09765625 -1.38640625 9.09765625 -2.06640625 9.09765625 C-2.06640625 13.05765625 -2.06640625 17.01765625 -2.06640625 21.09765625 C-2.39640625 21.09765625 -2.72640625 21.09765625 -3.06640625 21.09765625 C-3.09528771 17.78517438 -3.11316424 14.47272458 -3.12890625 11.16015625 C-3.13728516 10.21462891 -3.14566406 9.26910156 -3.15429688 8.29492188 C-3.15751953 7.39580078 -3.16074219 6.49667969 -3.1640625 5.5703125 C-3.16929932 4.73765869 -3.17453613 3.90500488 -3.17993164 3.04711914 C-3.02126893 0.3225563 -2.72542838 0.12880096 0 0 Z " fill="#89C6E3" transform="translate(58.06640625,76.90234375)"/>
<path d="M0 0 C0.99 0.66 1.98 1.32 3 2 C4.65549531 2.38499891 6.3222433 2.72793135 8 3 C8.48801743 10.19825708 8.48801743 10.19825708 6.25 13.875 C3.22065638 16.73604675 1.44158684 17.93447333 -2.75 18.125 C-3.4925 18.08375 -4.235 18.0425 -5 18 C-5 16.68 -5 15.36 -5 14 C-4.34 14 -3.68 14 -3 14 C-2.67 13.34 -2.34 12.68 -2 12 C-2 12.99 -2 13.98 -2 15 C-0.68 15 0.64 15 2 15 C1.484375 14.01 0.96875 13.02 0.4375 12 C-1.45083465 7.68506709 -0.87934044 4.55658228 0 0 Z " fill="#379DC9" transform="translate(89,108)"/>
<path d="M0 0 C0.33 0.66 0.66 1.32 1 2 C3.02463255 2.65213292 3.02463255 2.65213292 5 3 C4.01 3.33 3.02 3.66 2 4 C2 4.66 2 5.32 2 6 C0 6 -2 6 -4 6 C-5.0745356 7.7763932 -5.0745356 7.7763932 -5 9 C-4.67 9.66 -4.34 10.32 -4 11 C-4.33 11.66 -4.66 12.32 -5 13 C-5.99 13 -6.98 13 -8 13 C-8.33 11.35 -8.66 9.7 -9 8 C-9.66 8.66 -10.32 9.32 -11 10 C-11 10.99 -11 11.98 -11 13 C-11.99 13.33 -12.98 13.66 -14 14 C-13.63074596 7.84576594 -12.17122773 5.27296499 -8 1 C-5.29120665 -0.35439668 -2.99066732 -0.06501451 0 0 Z " fill="#54A3C8" transform="translate(146,66)"/>
<path d="M0 0 C2.97 0 5.94 0 9 0 C9.22786458 2.01822917 9.45572917 4.03645833 9.68359375 6.0546875 C9.91292961 8.07404316 9.91292961 8.07404316 11 10 C10.01 10 9.02 10 8 10 C8 10.66 8 11.32 8 12 C5.03 11.505 5.03 11.505 2 11 C1.67 11.99 1.34 12.98 1 14 C-0.04976964 10.85069107 -0.10131595 8.61185544 -0.0625 5.3125 C-0.05347656 4.31863281 -0.04445312 3.32476562 -0.03515625 2.30078125 C-0.02355469 1.54152344 -0.01195312 0.78226562 0 0 Z " fill="#419FC7" transform="translate(132,101)"/>
<path d="M0 0 C0.99 0 1.98 0 3 0 C2.835 0.763125 2.67 1.52625 2.5 2.3125 C1.90854604 5.03596236 1.90854604 5.03596236 2 8 C1.67 8.99 1.34 9.98 1 11 C0.34 11 -0.32 11 -1 11 C-1 10.34 -1 9.68 -1 9 C-10.405 9.495 -10.405 9.495 -20 10 C-17 5 -17 5 -14.51953125 4.29296875 C-13.62621094 4.25816406 -12.73289062 4.22335938 -11.8125 4.1875 C-10.46091797 4.11595703 -10.46091797 4.11595703 -9.08203125 4.04296875 C-8.05142578 4.02169922 -8.05142578 4.02169922 -7 4 C-6.67 4.99 -6.34 5.98 -6 7 C-6 6.01 -6 5.02 -6 4 C-4.0625 3.4375 -4.0625 3.4375 -2 3 C-1.67 3.33 -1.34 3.66 -1 4 C-0.67 2.68 -0.34 1.36 0 0 Z " fill="#C2C2C2" transform="translate(92,134)"/>
<path d="M0 0 C3 2 3 2 4 5 C6.01508358 5.73323796 6.01508358 5.73323796 8 6 C8 6.99 8 7.98 8 9 C5.03 8.505 5.03 8.505 2 8 C2.495 8.45375 2.99 8.9075 3.5 9.375 C5 11 5 11 5 13 C4.34 13 3.68 13 3 13 C3.33 14.65 3.66 16.3 4 18 C4.66 17.67 5.32 17.34 6 17 C6 15.02 6 13.04 6 11 C6.66 11 7.32 11 8 11 C8 14.3 8 17.6 8 21 C4.04 21.495 4.04 21.495 0 22 C0 14.74 0 7.48 0 0 Z " fill="#2C92C0" transform="translate(56,107)"/>
<path d="M0 0 C3 2 3 2 3.51171875 4.1640625 C3.56972656 4.97617188 3.62773438 5.78828125 3.6875 6.625 C3.75324219 7.44226563 3.81898437 8.25953125 3.88671875 9.1015625 C3.92410156 9.72804688 3.96148437 10.35453125 4 11 C4.66 10.67 5.32 10.34 6 10 C5.814375 9.21625 5.62875 8.4325 5.4375 7.625 C5 5 5 5 6 3 C6.66 3 7.32 3 8 3 C8.37936772 14.84470327 8.37936772 14.84470327 6 20 C5.34 20.66 4.68 21.32 4 22 C3.01 21.67 2.02 21.34 1 21 C0.06145994 13.96094956 -0.10808032 7.09727428 0 0 Z " fill="#85C0D9" transform="translate(73,86)"/>
<path d="M0 0 C-0.99 0.33 -1.98 0.66 -3 1 C-2.01 2.485 -2.01 2.485 -1 4 C-1.0625 7.5 -1.0625 7.5 -2 11 C-4.4375 12.875 -4.4375 12.875 -7 14 C-7.99 14.495 -7.99 14.495 -9 15 C-9 10.05 -9 5.1 -9 0 C-3.375 -1.125 -3.375 -1.125 0 0 Z " fill="#63ABC6" transform="translate(98,73)"/>
<path d="M0 0 C0.66 0 1.32 0 2 0 C2 0.66 2 1.32 2 2 C4.31 2.33 6.62 2.66 9 3 C9 4.32 9 5.64 9 7 C10.32 7 11.64 7 13 7 C13 7.99 13 8.98 13 10 C12.34 10 11.68 10 11 10 C11 9.34 11 8.68 11 8 C7.02245872 7.26665571 7.02245872 7.26665571 3 7 C2.67 7.99 2.34 8.98 2 10 C3.98 9.67 5.96 9.34 8 9 C8 10.65 8 12.3 8 14 C5.36 14 2.72 14 0 14 C0 9.38 0 4.76 0 0 Z " fill="#2895CA" transform="translate(105,107)"/>
<path d="M0 0 C0.66 0 1.32 0 2 0 C2 1.65 2 3.3 2 5 C2.99 5 3.98 5 5 5 C5.33 4.34 5.66 3.68 6 3 C6.33 4.65 6.66 6.3 7 8 C5.02 8.99 5.02 8.99 3 10 C2.67 9.34 2.34 8.68 2 8 C2.99 8 3.98 8 5 8 C4.67 7.67 4.34 7.34 4 7 C-0.49099852 7.40044239 -0.49099852 7.40044239 -4 10 C-4 9.34 -4 8.68 -4 8 C-4.99 8 -5.98 8 -7 8 C-7.33 8.66 -7.66 9.32 -8 10 C-8 9.34 -8 8.68 -8 8 C-9.65 8.33 -11.3 8.66 -13 9 C-12.67 7.35 -12.34 5.7 -12 4 C-11.34 4 -10.68 4 -10 4 C-9.67 4.66 -9.34 5.32 -9 6 C-8.67 5.34 -8.34 4.68 -8 4 C-5.67843403 3.59270772 -3.3431213 3.25561323 -1 3 C-0.67 2.01 -0.34 1.02 0 0 Z " fill="#BFBFBF" transform="translate(128,130)"/>
<path d="M0 0 C2 0 2 0 3.5625 1.3125 C5 3 5 3 6 6 C8.00016466 7.20882096 8.00016466 7.20882096 10 8 C9.01 8 8.02 8 7 8 C7 15.26 7 22.52 7 30 C6.67 30 6.34 30 6 30 C5.67 24.39 5.34 18.78 5 13 C4.67 14.32 4.34 15.64 4 17 C2.68 16.34 1.36 15.68 0 15 C0.165 14.2575 0.33 13.515 0.5 12.75 C1.11925696 9.80993422 1.11925696 9.80993422 1 6 C0.34 5.67 -0.32 5.34 -1 5 C-0.67 3.35 -0.34 1.7 0 0 Z " fill="#55AFD9" transform="translate(41,100)"/>
<path d="M0 0 C3 1 3 1 4.75 3.25 C6.20298265 6.44656184 6.065121 7.71587692 5 11 C4.67 11.66 4.34 12.32 4 13 C-0.875 12.125 -0.875 12.125 -2 11 C-2.14115161 8.32941149 -2.04247107 5.67567762 -2 3 C-3.65 3 -5.3 3 -7 3 C-7 2.67 -7 2.34 -7 2 C-4.69 2 -2.38 2 0 2 C0 1.34 0 0.68 0 0 Z " fill="#E3F7FC" transform="translate(143,98)"/>
<path d="M0 0 C1.65 0.33 3.3 0.66 5 1 C5 3.64 5 6.28 5 9 C9.455 8.505 9.455 8.505 14 8 C14 5.69 14 3.38 14 1 C14.33 1 14.66 1 15 1 C15 3.64 15 6.28 15 9 C12.59454362 10.20272819 11.05003047 10.10071472 8.375 10.0625 C7.14910156 10.04896484 7.14910156 10.04896484 5.8984375 10.03515625 C4.95871094 10.01775391 4.95871094 10.01775391 4 10 C3.67 10.66 3.34 11.32 3 12 C0.60145094 9.91094114 -0.83687696 8.47771747 -1.875 5.4375 C-2 3 -2 3 0 0 Z " fill="#E4F7FC" transform="translate(143,74)"/>
<path d="M0 0 C0.33 0 0.66 0 1 0 C1 2.31 1 4.62 1 7 C-0.32 6.67 -1.64 6.34 -3 6 C-3.33 6.66 -3.66 7.32 -4 8 C-6.28515625 8.8515625 -6.28515625 8.8515625 -9.0625 9.625 C-9.98160156 9.88539062 -10.90070313 10.14578125 -11.84765625 10.4140625 C-12.55792969 10.60742188 -13.26820312 10.80078125 -14 11 C-14.33 9.68 -14.66 8.36 -15 7 C-14.34 7 -13.68 7 -13 7 C-12.4225 6.360625 -11.845 5.72125 -11.25 5.0625 C-8.48598873 2.528823 -6.70706137 2.16117658 -3 2 C-2.34 2.66 -1.68 3.32 -1 4 C-0.67 2.68 -0.34 1.36 0 0 Z " fill="#A0CDE2" transform="translate(127,69)"/>
<path d="M0 0 C1.4540625 0.0309375 1.4540625 0.0309375 2.9375 0.0625 C2.9375 0.3925 2.9375 0.7225 2.9375 1.0625 C1.2875 1.3925 -0.3625 1.7225 -2.0625 2.0625 C-2.05726318 2.76109131 -2.05202637 3.45968262 -2.04663086 4.17944336 C-1.89374566 27.74505145 -1.89374566 27.74505145 -2.5 38.125 C-2.53923584 38.8255249 -2.57847168 39.5260498 -2.61889648 40.24780273 C-2.93034887 44.93034887 -2.93034887 44.93034887 -4.0625 46.0625 C-5.72867115 46.10313832 -7.39638095 46.105221 -9.0625 46.0625 C-8.09026489 45.36096802 -8.09026489 45.36096802 -7.09838867 44.64526367 C-4.09604875 40.83644318 -4.47795592 37.46180786 -4.48828125 32.73828125 C-4.47411667 31.83627487 -4.45995209 30.93426849 -4.44535828 30.00492859 C-4.40346115 27.12816389 -4.3882139 24.25202692 -4.375 21.375 C-4.34598404 18.48755255 -4.31150544 15.60026572 -4.27250671 12.7129364 C-4.24994469 10.91679645 -4.23417093 9.12055655 -4.22566223 7.32429504 C-4.16262588 0.08495155 -4.16262588 0.08495155 0 0 Z " fill="#E4F9FD" transform="translate(91.0625,71.9375)"/>
<path d="M0 0 C0.33 0 0.66 0 1 0 C1 7.26 1 14.52 1 22 C-0.65 21.67 -2.3 21.34 -4 21 C-4.33 20.01 -4.66 19.02 -5 18 C-4.01 18 -3.02 18 -2 18 C-1.67 15.69 -1.34 13.38 -1 11 C-2.32 10.34 -3.64 9.68 -5 9 C-4.01 8.34 -3.02 7.68 -2 7 C-0.7811879 3.44327821 -0.7811879 3.44327821 0 0 Z " fill="#2B93C1" transform="translate(46,108)"/>
<path d="M0 0 C1.32 0.66 2.64 1.32 4 2 C3.67 2.33 3.34 2.66 3 3 C3.66 3.33 4.32 3.66 5 4 C5.33 3.01 5.66 2.02 6 1 C6.33 1.66 6.66 2.32 7 3 C9.31 2.34 11.62 1.68 14 1 C14.33 1.99 14.66 2.98 15 4 C14.06027344 4.16435547 14.06027344 4.16435547 13.1015625 4.33203125 C11.87566406 4.56986328 11.87566406 4.56986328 10.625 4.8125 C9.40683594 5.03873047 9.40683594 5.03873047 8.1640625 5.26953125 C5.64179359 5.87544942 5.64179359 5.87544942 4 9 C4 8.01 4 7.02 4 6 C3.319375 6.7115625 3.319375 6.7115625 2.625 7.4375 C1 9 1 9 -1 10 C-1.33 8.02 -1.66 6.04 -2 4 C-1.34 3.67 -0.68 3.34 0 3 C0 2.01 0 1.02 0 0 Z " fill="#489EC4" transform="translate(109,94)"/>
<path d="M0 0 C2.64 0 5.28 0 8 0 C8 6.6 8 13.2 8 20 C7.67 20 7.34 20 7 20 C6.8046875 17.94921875 6.609375 15.8984375 6.4140625 13.84765625 C6.20910156 12.93306641 6.20910156 12.93306641 6 12 C5.34 11.67 4.68 11.34 4 11 C4 10.01 4 9.02 4 8 C4.99 8 5.98 8 7 8 C5.33045181 4.77595022 5.33045181 4.77595022 2.375 4.3125 C1.59125 4.209375 0.8075 4.10625 0 4 C0 2.68 0 1.36 0 0 Z " fill="#3297C1" transform="translate(39,79)"/>
<path d="M0 0 C0.66 0 1.32 0 2 0 C2 0.99 2 1.98 2 3 C2.66 3 3.32 3 4 3 C3.690625 3.598125 3.38125 4.19625 3.0625 4.8125 C1.89790296 7.08956772 1.89790296 7.08956772 1 10 C-1.35270593 11.17635297 -2.820752 11.13359359 -5.4375 11.125 C-6.61119141 11.12886719 -6.61119141 11.12886719 -7.80859375 11.1328125 C-10 11 -10 11 -13 10 C-13 9.34 -13 8.68 -13 8 C-12.31292969 7.99742188 -11.62585938 7.99484375 -10.91796875 7.9921875 C-8.16130057 7.87387556 -5.67672233 7.68103402 -3 7 C-0.65768041 3.81657275 -0.65768041 3.81657275 0 0 Z " fill="#37A5DA" transform="translate(150,106)"/>
<path d="M0 0 C0.99 0.495 0.99 0.495 2 1 C2 7.93 2 14.86 2 22 C6.20180184 21.4260261 6.20180184 21.4260261 8 18 C7.34 17.67 6.68 17.34 6 17 C6.66 17 7.32 17 8 17 C8.33 16.34 8.66 15.68 9 15 C9 17.97 9 20.94 9 24 C6.03 24 3.06 24 0 24 C0 16.08 0 8.16 0 0 Z " fill="#4C9ABF" transform="translate(72,85)"/>
<path d="M0 0 C2.97 0 5.94 0 9 0 C9 3.63 9 7.26 9 11 C7.68 11 6.36 11 5 11 C5.66 9.02 6.32 7.04 7 5 C6.34 4.67 5.68 4.34 5 4 C5 4.66 5 5.32 5 6 C3.68 5.67 2.36 5.34 1 5 C1.33 4.34 1.66 3.68 2 3 C1.34 3 0.68 3 0 3 C0 2.01 0 1.02 0 0 Z " fill="#58A3C4" transform="translate(56,77)"/>
<path d="M0 0 C0.99 0 1.98 0 3 0 C5 3 5 3 5 7 C4.34 7 3.68 7 3 7 C3.33 9.97 3.66 12.94 4 16 C3.01 15.67 2.02 15.34 1 15 C0.3046875 13.2578125 0.3046875 13.2578125 -0.125 11.125 C-0.64418292 8.656604 -1.19832556 6.40502333 -2 4 C-1.34 3.67 -0.68 3.34 0 3 C0 2.01 0 1.02 0 0 Z " fill="#CFEAF7" transform="translate(76,82)"/>
<path d="M0 0 C2 1 2 1 3 2 C3.04080783 3.99958364 3.04254356 6.00045254 3 8 C2.34 8 1.68 8 1 8 C0.67 8.66 0.34 9.32 0 10 C-0.66 9.67 -1.32 9.34 -2 9 C-2 8.01 -2 7.02 -2 6 C-2.66 7.32 -3.32 8.64 -4 10 C-4.99 9.67 -5.98 9.34 -7 9 C-6.34 7.02 -5.68 5.04 -5 3 C-4.01 3 -3.02 3 -2 3 C-2 2.34 -2 1.68 -2 1 C-1.34 0.67 -0.68 0.34 0 0 Z " fill="#329ACA" transform="translate(154,100)"/>
<path d="M0 0 C0.66 0.33 1.32 0.66 2 1 C2.33333333 3 2.66666667 5 3 7 C3.66 7.33 4.32 7.66 5 8 C5 8.66 5 9.32 5 10 C5.66 10.66 6.32 11.32 7 12 C6.67 12.66 6.34 13.32 6 14 C3.9375 14.625 3.9375 14.625 2 15 C2 14.34 2 13.68 2 13 C1.34 13 0.68 13 0 13 C0 17.62 0 22.24 0 27 C-0.33 27 -0.66 27 -1 27 C-1 21.72 -1 16.44 -1 11 C-0.34 11 0.32 11 1 11 C1.042721 9.33388095 1.04063832 7.66617115 1 6 C0.67 5.67 0.34 5.34 0 5 C-0.04063832 3.33382885 -0.042721 1.66611905 0 0 Z " fill="#81C2DF" transform="translate(89,89)"/>
<path d="M0 0 C1.65 0 3.3 0 5 0 C5 0.99 5 1.98 5 3 C6.32 3 7.64 3 9 3 C8.67 4.32 8.34 5.64 8 7 C7.34 7 6.68 7 6 7 C5.01 8.485 5.01 8.485 4 10 C1.375 10.1875 1.375 10.1875 -1 10 C-1.33 8.68 -1.66 7.36 -2 6 C-1.34 6 -0.68 6 0 6 C0 6.99 0 7.98 0 9 C0.99 8.67 1.98 8.34 3 8 C3.33 7.01 3.66 6.02 4 5 C2.68 4.34 1.36 3.68 0 3 C0 2.01 0 1.02 0 0 Z " fill="#B7B7B7" transform="translate(63,137)"/>
<path d="M0 0 C1.65 0 3.3 0 5 0 C4.34 1.32 3.68 2.64 3 4 C6.465 3.505 6.465 3.505 10 3 C10.33 4.98 10.66 6.96 11 9 C11.99 9.33 12.98 9.66 14 10 C12.02 10 10.04 10 8 10 C8 9.01 8 8.02 8 7 C7.34 7 6.68 7 6 7 C5.67 7.66 5.34 8.32 5 9 C3.5 7.625 3.5 7.625 2 6 C2 5.34 2 4.68 2 4 C1.34 3.67 0.68 3.34 0 3 C0 2.01 0 1.02 0 0 Z " fill="#A4DBF2" transform="translate(137,86)"/>
<path d="M0 0 C0.99 0.33 1.98 0.66 3 1 C5.63804589 0.60602665 5.63804589 0.60602665 8 0 C7.56179109 4.55737263 7.14958831 7.57653445 4 11 C4 10.34 4 9.68 4 9 C3.34 8.67 2.68 8.34 2 8 C0 6 0 6 -0.125 2.875 C-0.08375 1.92625 -0.0425 0.9775 0 0 Z " fill="#56ADD6" transform="translate(89,102)"/>
<path d="M0 0 C0.33 0.99 0.66 1.98 1 3 C1.66 3 2.32 3 3 3 C3 3.99 3 4.98 3 6 C3.99 6.33 4.98 6.66 6 7 C-0.26079448 7.43177893 -3.09075703 6.92739438 -8 3 C-5.4345406 0.4345406 -3.52313332 0.45953913 0 0 Z " fill="#42A1D0" transform="translate(81,120)"/>
<path d="M0 0 C2.475 0.495 2.475 0.495 5 1 C5.33 1.99 5.66 2.98 6 4 C5.01 4 4.02 4 3 4 C3 4.99 3 5.98 3 7 C3.99 7.33 4.98 7.66 6 8 C6 10.31 6 12.62 6 15 C5.01 15.495 5.01 15.495 4 16 C3.34 14.68 2.68 13.36 2 12 C2.66 12 3.32 12 4 12 C4 11.34 4 10.68 4 10 C3.34 10 2.68 10 2 10 C0.68373308 6.38026598 0 3.90432869 0 0 Z " fill="#74C1E6" transform="translate(40,83)"/>
<path d="M0 0 C0.33 0 0.66 0 1 0 C1 7.26 1 14.52 1 22 C1.66 22 2.32 22 3 22 C4.02196992 22.97753644 5.01979625 23.9805881 6 25 C6.99 25.66 7.98 26.32 9 27 C6.03 27 3.06 27 0 27 C0 18.09 0 9.18 0 0 Z " fill="#479CC4" transform="translate(38,104)"/>
<path d="M0 0 C0.66 0 1.32 0 2 0 C1.67 1.32 1.34 2.64 1 4 C2.98 3.67 4.96 3.34 7 3 C7 4.32 7 5.64 7 7 C5.02 7.33 3.04 7.66 1 8 C2.65 8.33 4.3 8.66 6 9 C4 11 4 11 0 12 C0 8.04 0 4.08 0 0 Z " fill="#57A4C8" transform="translate(56,86)"/>
<path d="M0 0 C0 3.63 0 7.26 0 11 C-0.99 11.495 -0.99 11.495 -2 12 C-2.144375 11.2575 -2.28875 10.515 -2.4375 9.75 C-2.90187492 7.47972261 -3.41863569 5.24240521 -4 3 C-6.475 4.485 -6.475 4.485 -9 6 C-9 4.35 -9 2.7 -9 1 C-5.94152152 0.45627049 -3.11227195 0 0 0 Z " fill="#65A7C3" transform="translate(81,74)"/>
<path d="M0 0 C0.99 0 1.98 0 3 0 C3 0.66 3 1.32 3 2 C3.66 2.33 4.32 2.66 5 3 C6.0409066 4.64142963 7.04504326 6.30712215 8 8 C8.99 7.67 9.98 7.34 11 7 C11 7.99 11 8.98 11 10 C12.32 10.66 13.64 11.32 15 12 C14.01 12.495 14.01 12.495 13 13 C12.67 13.66 12.34 14.32 12 15 C10.5 13.625 10.5 13.625 9 12 C9 11.34 9 10.68 9 10 C8.443125 9.79375 7.88625 9.5875 7.3125 9.375 C4.02987629 7.42316968 2.29326754 5.05769006 0 2 C0 1.34 0 0.68 0 0 Z " fill="#79B4CE" transform="translate(134,86)"/>
<path d="M0 0 C0.66 0 1.32 0 2 0 C2 1.65 2 3.3 2 5 C2.33 3.35 2.66 1.7 3 0 C3.66 0 4.32 0 5 0 C4.67 1.98 4.34 3.96 4 6 C4.66 6.33 5.32 6.66 6 7 C4.56359829 7.19573608 3.12580496 7.38127816 1.6875 7.5625 C0.88699219 7.66691406 0.08648437 7.77132812 -0.73828125 7.87890625 C-3 8 -3 8 -6 7 C-5.67 6.34 -5.34 5.68 -5 5 C-4.34 5.33 -3.68 5.66 -3 6 C-2.690625 5.38125 -2.38125 4.7625 -2.0625 4.125 C-1.375 2.75 -0.6875 1.375 0 0 Z " fill="#B2B2B2" transform="translate(101,133)"/>
<path d="M0 0 C0.66 0 1.32 0 2 0 C2 0.66 2 1.32 2 2 C2.66 2 3.32 2 4 2 C4 9.92 4 17.84 4 26 C3.67 26 3.34 26 3 26 C3 18.74 3 11.48 3 4 C0.36 4 -2.28 4 -5 4 C-4.01 3.01 -3.02 2.02 -2 1 C-1.34 1.33 -0.68 1.66 0 2 C0 1.34 0 0.68 0 0 Z " fill="#63ABCC" transform="translate(52,103)"/>
<path d="M0 0 C0.66 0 1.32 0 2 0 C2 0.66 2 1.32 2 2 C4.31 2.33 6.62 2.66 9 3 C9 4.32 9 5.64 9 7 C10.32 7 11.64 7 13 7 C13 7.99 13 8.98 13 10 C12.34 10 11.68 10 11 10 C11 9.34 11 8.68 11 8 C8.03 7.505 8.03 7.505 5 7 C4.67 6.01 4.34 5.02 4 4 C2.68 4.99 1.36 5.98 0 7 C0 4.69 0 2.38 0 0 Z " fill="#2D93C0" transform="translate(105,107)"/>
<path d="M0 0 C1.65 0 3.3 0 5 0 C5.33 1.98 5.66 3.96 6 6 C5.01 6 4.02 6 3 6 C2.67 6.66 2.34 7.32 2 8 C1.34 7.67 0.68 7.34 0 7 C-0.33 8.32 -0.66 9.64 -1 11 C-1.0270043 9.54176788 -1.04639787 8.08339325 -1.0625 6.625 C-1.07410156 5.81289062 -1.08570313 5.00078125 -1.09765625 4.1640625 C-1 2 -1 2 0 0 Z " fill="#6AB6DB" transform="translate(149,72)"/>
<path d="M0 0 C0.99 0.33 1.98 0.66 3 1 C2.34 1 1.68 1 1 1 C2.72226496 4.24849977 2.72226496 4.24849977 6 5 C5 8 5 8 3 10 C4.98 10 6.96 10 9 10 C9 10.33 9 10.66 9 11 C6.36 11.33 3.72 11.66 1 12 C-0.26237731 9.47524538 -0.09856404 7.68799534 -0.0625 4.875 C-0.05347656 3.96492188 -0.04445313 3.05484375 -0.03515625 2.1171875 C-0.02355469 1.41851562 -0.01195313 0.71984375 0 0 Z " fill="#3795C1" transform="translate(72,110)"/>
<path d="M0 0 C0.38922918 1.28745036 0.76098036 2.58019597 1.125 3.875 C1.33382812 4.59429687 1.54265625 5.31359375 1.7578125 6.0546875 C1.83773437 6.69664063 1.91765625 7.33859375 2 8 C1.34 8.66 0.68 9.32 0 10 C-0.99 10 -1.98 10 -3 10 C-2.33333333 8.66666667 -1.66666667 7.33333333 -1 6 C-1.66 5.67 -2.32 5.34 -3 5 C-3.33 5.66 -3.66 6.32 -4 7 C-4.66 4.69 -5.32 2.38 -6 0 C-3.50907189 -1.24546405 -2.58919267 -0.7767578 0 0 Z " fill="#64BBE1" transform="translate(78,109)"/>
<path d="M0 0 C0 1.65 0 3.3 0 5 C-0.99 4.34 -1.98 3.68 -3 3 C-8.15455717 2.74227214 -12.92003172 3.15333862 -18 4 C-17.34 3.01 -16.68 2.02 -16 1 C-10.634985 -0.01750284 -5.44797276 -0.09728523 0 0 Z " fill="#64A7C5" transform="translate(127,69)"/>
<path d="M0 0 C2.31 0 4.62 0 7 0 C7.04241723 2.33294775 7.04092937 4.66702567 7 7 C6 8 6 8 3.4375 8.0625 C2.633125 8.041875 1.82875 8.02125 1 8 C1 6 1 6 3 4 C2.01 2.68 1.02 1.36 0 0 Z " fill="#3295C1" transform="translate(121,113)"/>
<path d="M0 0 C-0.5 1.9375 -0.5 1.9375 -2 4 C-6.67127399 4.99551741 -10.35236447 5.30714749 -15 4 C-15 3.34 -15 2.68 -15 2 C-12.03 2.495 -12.03 2.495 -9 3 C-9 2.34 -9 1.68 -9 1 C-2.25 0 -2.25 0 0 0 Z " fill="#2692C2" transform="translate(149,110)"/>
<path d="M0 0 C2 2 2 2 2.125 4.625 C2.08375 5.40875 2.0425 6.1925 2 7 C-0.64 7.33 -3.28 7.66 -6 8 C-6 6.68 -6 5.36 -6 4 C-4.02 3.67 -2.04 3.34 0 3 C0 2.01 0 1.02 0 0 Z " fill="#3694C1" transform="translate(155,75)"/>
<path d="M0 0 C0.66 0 1.32 0 2 0 C2 2.97 2 5.94 2 9 C-0.31 9 -2.62 9 -5 9 C-5 6.36 -5 3.72 -5 1 C-3.5 2.3125 -3.5 2.3125 -2 4 C-2 4.99 -2 5.98 -2 7 C-1.34 6.67 -0.68 6.34 0 6 C0 4.02 0 2.04 0 0 Z " fill="#1E91C8" transform="translate(62,118)"/>
<path d="M0 0 C0.33 0.99 0.66 1.98 1 3 C-2.79692186 5.82561627 -5.18569279 7.56638908 -10 7 C-10 5.68 -10 4.36 -10 3 C-9.34 3 -8.68 3 -8 3 C-7.67 2.34 -7.34 1.68 -7 1 C-7 1.99 -7 2.98 -7 4 C-5.68 4 -4.36 4 -3 4 C-2.67 3.01 -2.34 2.02 -2 1 C-1.34 0.67 -0.68 0.34 0 0 Z " fill="#2991C0" transform="translate(94,119)"/>
<path d="M0 0 C2.15266842 2.15266842 2.93474462 3.84773744 4.125 6.625 C4.47820313 7.44226563 4.83140625 8.25953125 5.1953125 9.1015625 C5.46085937 9.72804688 5.72640625 10.35453125 6 11 C4.68 11 3.36 11 2 11 C-0.72611199 8.27388801 -1.47679633 5.76706644 -2 2 C-1.34 2 -0.68 2 0 2 C0 1.34 0 0.68 0 0 Z " fill="#74BDDD" transform="translate(57,100)"/>
<path d="M0 0 C1.65 0.33 3.3 0.66 5 1 C4.67 3.31 4.34 5.62 4 8 C3.67 7.34 3.34 6.68 3 6 C0.47266765 5.34444881 0.47266765 5.34444881 -2 5 C-1.34 3.35 -0.68 1.7 0 0 Z " fill="#9BD0EB" transform="translate(92,76)"/>
<path d="M0 0 C2.97 0.495 2.97 0.495 6 1 C6 1.66 6 2.32 6 3 C5.34 3 4.68 3 4 3 C4.33 4.98 4.66 6.96 5 9 C3.02 9.99 3.02 9.99 1 11 C1 9.02 1 7.04 1 5 C1.66 5 2.32 5 3 5 C3 4.34 3 3.68 3 3 C2.01 2.67 1.02 2.34 0 2 C0 1.34 0 0.68 0 0 Z " fill="#32A1D5" transform="translate(58,115)"/>
<path d="M0 0 C0.33 0 0.66 0 1 0 C1.33 3.63 1.66 7.26 2 11 C5.96 11 9.92 11 14 11 C14 11.33 14 11.66 14 12 C9.38 12.33 4.76 12.66 0 13 C0 8.71 0 4.42 0 0 Z " fill="#DDFAFE" transform="translate(114,100)"/>
<path d="M0 0 C0.33 0 0.66 0 1 0 C1.22786458 2.01822917 1.45572917 4.03645833 1.68359375 6.0546875 C1.91292961 8.07404316 1.91292961 8.07404316 3 10 C2.01 10 1.02 10 0 10 C0 10.66 0 11.32 0 12 C-2.475 11.01 -2.475 11.01 -5 10 C-5 8.68 -5 7.36 -5 6 C-2.525 6.495 -2.525 6.495 0 7 C0 4.69 0 2.38 0 0 Z " fill="#66B6D9" transform="translate(140,101)"/>
<path d="M0 0 C0.66 0 1.32 0 2 0 C2.66 0.66 3.32 1.32 4 2 C6.60280568 1.67958603 6.60280568 1.67958603 9 1 C9.33 1.99 9.66 2.98 10 4 C9.34 4.66 8.68 5.32 8 6 C8 5.34 8 4.68 8 4 C7.01 4 6.02 4 5 4 C4.67 4.66 4.34 5.32 4 6 C4 5.34 4 4.68 4 4 C2.35 4.33 0.7 4.66 -1 5 C-0.67 3.35 -0.34 1.7 0 0 Z " fill="#B4B4B4" transform="translate(116,134)"/>
<path d="M0 0 C0 2.31 0 4.62 0 7 C-0.99 7.33 -1.98 7.66 -3 8 C-4.37562854 6.71034824 -5.70766393 5.37310707 -7 4 C-7 3.34 -7 2.68 -7 2 C-4 0 -4 0 0 0 Z " fill="#2A93C4" transform="translate(140,101)"/>
<path d="M0 0 C0.99 0.33 1.98 0.66 3 1 C2.34 1 1.68 1 1 1 C1 1.66 1 2.32 1 3 C2.65 3.33 4.3 3.66 6 4 C5.34 5.65 4.68 7.3 4 9 C2.68 8.67 1.36 8.34 0 8 C-0.38063221 5.6739143 -0.71269945 3.33944736 -1 1 C-0.67 0.67 -0.34 0.34 0 0 Z " fill="#99D0EC" transform="translate(74,99)"/>
<path d="M0 0 C2 0.66666667 4 1.33333333 6 2 C6 2.66 6 3.32 6 4 C5.34 4 4.68 4 4 4 C4 5.32 4 6.64 4 8 C2.68 8 1.36 8 0 8 C0 5.36 0 2.72 0 0 Z " fill="#9DD4EA" transform="translate(107,71)"/>
<path d="M0 0 C1.485 0.99 1.485 0.99 3 2 C4.65583225 2.69313908 6.32110979 3.36474424 8 4 C8 4.66 8 5.32 8 6 C7.34 6 6.68 6 6 6 C5.67 7.32 5.34 8.64 5 10 C5 8.35 5 6.7 5 5 C3.02 5.33 1.04 5.66 -1 6 C-0.67 4.02 -0.34 2.04 0 0 Z " fill="#48ADDB" transform="translate(108,111)"/>
<path d="M0 0 C2.63840764 1.03937271 3.54887645 2.4663835 5.0625 4.8125 C-0.5625 5.9375 -0.5625 5.9375 -3.9375 4.8125 C-3.9375 3.4925 -3.9375 2.1725 -3.9375 0.8125 C-1.9375 -0.1875 -1.9375 -0.1875 0 0 Z " fill="#81BCD6" transform="translate(140.9375,81.1875)"/>
<path d="M0 0 C0.33 0 0.66 0 1 0 C2.07533 11.52139281 2.07533 11.52139281 2 16.625 C1.74844235 19.8695627 1.74844235 19.8695627 3 22 C2.0625 24.125 2.0625 24.125 1 26 C-0.01973129 22.94080612 -0.11533602 20.87581975 -0.09765625 17.67578125 C-0.09443359 16.64775391 -0.09121094 15.61972656 -0.08789062 14.56054688 C-0.07951172 13.48869141 -0.07113281 12.41683594 -0.0625 11.3125 C-0.05798828 10.22904297 -0.05347656 9.14558594 -0.04882812 8.02929688 C-0.03703743 5.35280915 -0.02058063 2.67643223 0 0 Z " fill="#A7DBF1" transform="translate(88,74)"/>
<path d="M0 0 C0.94875 0.350625 1.8975 0.70125 2.875 1.0625 C1.885 1.3925 0.895 1.7225 -0.125 2.0625 C-0.125 2.7225 -0.125 3.3825 -0.125 4.0625 C-3.45833333 4.0625 -6.79166667 4.0625 -10.125 4.0625 C-3.76179245 -1.12853774 -3.76179245 -1.12853774 0 0 Z " fill="#83C9E9" transform="translate(148.125,67.9375)"/>
<path d="M0 0 C0.99 0 1.98 0 3 0 C2.835 0.763125 2.67 1.52625 2.5 2.3125 C1.90854604 5.03596236 1.90854604 5.03596236 2 8 C0.68 8 -0.64 8 -2 8 C-2.33 6.35 -2.66 4.7 -3 3 C-2.01 3.495 -2.01 3.495 -1 4 C-0.67 2.68 -0.34 1.36 0 0 Z " fill="#B6B6B6" transform="translate(92,134)"/>
<path d="M0 0 C2 2 2 2 2.125 5.625 C2.08375 6.73875 2.0425 7.8525 2 9 C0.0625 8.6875 0.0625 8.6875 -2 8 C-2.33 7.01 -2.66 6.02 -3 5 C-1.5625 2.3125 -1.5625 2.3125 0 0 Z " fill="#3D9CCA" transform="translate(62,99)"/>
<path d="M0 0 C1.32 0.66 2.64 1.32 4 2 C3.67 2.33 3.34 2.66 3 3 C3.66 3.66 4.32 4.32 5 5 C1.25 8.875 1.25 8.875 -1 10 C-1.33 8.02 -1.66 6.04 -2 4 C-1.34 3.67 -0.68 3.34 0 3 C0 2.01 0 1.02 0 0 Z " fill="#49AEDB" transform="translate(109,94)"/>
<path d="M0 0 C0.66 0 1.32 0 2 0 C2.02696365 1.79158489 2.04637917 3.58328473 2.0625 5.375 C2.07410156 6.37273437 2.08570312 7.37046875 2.09765625 8.3984375 C2 11 2 11 1 13 C-0.65 13 -2.3 13 -4 13 C-4 12.34 -4 11.68 -4 11 C-3.01 11 -2.02 11 -1 11 C-1 10.34 -1 9.68 -1 9 C-0.34 9 0.32 9 1 9 C0.34414811 5.39007621 0.34414811 5.39007621 -1 2 C-0.67 1.34 -0.34 0.68 0 0 Z " fill="#A0C5D7" transform="translate(79,89)"/>
<path d="M0 0 C1.65 0.99 3.3 1.98 5 3 C4.67 5.31 4.34 7.62 4 10 C2.68 9.67 1.36 9.34 0 9 C0 8.34 0 7.68 0 7 C0.66 7 1.32 7 2 7 C1.34 4.69 0.68 2.38 0 0 Z " fill="#48B0DE" transform="translate(40,116)"/>
<path d="M0 0 C0.99 0.495 0.99 0.495 2 1 C1.67 2.65 1.34 4.3 1 6 C2.32 6.66 3.64 7.32 5 8 C4.01 9.98 3.02 11.96 2 14 C1.67 13.01 1.34 12.02 1 11 C1.33 10.67 1.66 10.34 2 10 C1.34 9.67 0.68 9.34 0 9 C0 6.03 0 3.06 0 0 Z " fill="#309ACA" transform="translate(39,99)"/>
<path d="M0 0 C1.33333333 2.66666667 2.66666667 5.33333333 4 8 C3.34 8 2.68 8 2 8 C2.99 9.485 2.99 9.485 4 11 C4 11.99 4 12.98 4 14 C2 13 2 13 0 10 C-0.1953125 7.51953125 -0.1953125 7.51953125 -0.125 4.8125 C-0.10695312 3.91144531 -0.08890625 3.01039062 -0.0703125 2.08203125 C-0.04710937 1.39496094 -0.02390625 0.70789063 0 0 Z " fill="#5BAACE" transform="translate(38,79)"/>
<path d="M0 0 C0.99 0 1.98 0 3 0 C3.0825 1.27875 3.165 2.5575 3.25 3.875 C3.45869931 6.05333418 3.45869931 6.05333418 4 8 C5.92064793 9.5899433 5.92064793 9.5899433 8 10 C5.69 10 3.38 10 1 10 C0.67 6.7 0.34 3.4 0 0 Z " fill="#3192BE" transform="translate(78,109)"/>
<path d="M0 0 C1.65 0 3.3 0 5 0 C5 0.99 5 1.98 5 3 C5.99 3 6.98 3 8 3 C7.67 3.66 7.34 4.32 7 5 C4.625 5.125 4.625 5.125 2 5 C1.34 4.34 0.68 3.68 0 3 C0 2.01 0 1.02 0 0 Z " fill="#D9D9D9" transform="translate(63,137)"/>
<path d="M0 0 C0.66 0 1.32 0 2 0 C1.5206753 4.31392226 0.2542015 6.16569547 -3 9 C-3.99 8.67 -4.98 8.34 -6 8 C-5.34 8 -4.68 8 -4 8 C-3.8453125 7.13375 -3.8453125 7.13375 -3.6875 6.25 C-2.89103535 3.64338842 -1.80934723 2.0264689 0 0 Z " fill="#3093BE" transform="translate(155,108)"/>
<path d="M0 0 C0.99 0.33 1.98 0.66 3 1 C3 2.98 3 4.96 3 7 C1.68 6.67 0.36 6.34 -1 6 C-1.33 4.68 -1.66 3.36 -2 2 C-1.34 2 -0.68 2 0 2 C0 1.34 0 0.68 0 0 Z " fill="#9CC7DD" transform="translate(134,78)"/>
<path d="M0 0 C1.65 0.33 3.3 0.66 5 1 C5.33 1.99 5.66 2.98 6 4 C3.36 4.66 0.72 5.32 -2 6 C-2.33 4.68 -2.66 3.36 -3 2 C-2.34 2 -1.68 2 -1 2 C-0.67 1.34 -0.34 0.68 0 0 Z " fill="#9ECDE0" transform="translate(115,74)"/>
<path d="M0 0 C0.66 0.66 1.32 1.32 2 2 C1.979375 2.99 1.95875 3.98 1.9375 5 C1.958125 5.99 1.97875 6.98 2 8 C2.99 8.66 3.98 9.32 5 10 C4.01 10 3.02 10 2 10 C1.67 10.99 1.34 11.98 1 13 C0.67 13 0.34 13 0 13 C0 8.71 0 4.42 0 0 Z " fill="#2990BC" transform="translate(105,90)"/>
<path d="M0 0 C0.33 0 0.66 0 1 0 C1 4.95 1 9.9 1 15 C0.67 15 0.34 15 0 15 C-0.1953125 12.94921875 -0.390625 10.8984375 -0.5859375 8.84765625 C-0.79089844 7.93306641 -0.79089844 7.93306641 -1 7 C-1.66 6.67 -2.32 6.34 -3 6 C-3 5.01 -3 4.02 -3 3 C-2.01 3 -1.02 3 0 3 C0 2.01 0 1.02 0 0 Z " fill="#479AC0" transform="translate(46,84)"/>
<path d="M0 0 C0.66 0.99 1.32 1.98 2 3 C1.01 4.485 1.01 4.485 0 6 C0 6.99 0 7.98 0 9 C-0.99 9.33 -1.98 9.66 -3 10 C-2.25 3.375 -2.25 3.375 0 0 Z " fill="#79B3D2" transform="translate(135,70)"/>
<path d="M0 0 C2.31 0 4.62 0 7 0 C6.67 2.31 6.34 4.62 6 7 C5.67 6.34 5.34 5.68 5 5 C4.34 4.67 3.68 4.34 3 4 C3.99 4 4.98 4 6 4 C4.02 3.34 2.04 2.68 0 2 C0 1.34 0 0.68 0 0 Z " fill="#2290C5" transform="translate(90,111)"/>
<path d="M0 0 C1.98 0.66 3.96 1.32 6 2 C5.01 3.32 4.02 4.64 3 6 C2.34 5.34 1.68 4.68 1 4 C0.67 4.99 0.34 5.98 0 7 C-0.66 7 -1.32 7 -2 7 C-2.33 6.01 -2.66 5.02 -3 4 C-2.01 3.67 -1.02 3.34 0 3 C0 2.01 0 1.02 0 0 Z " fill="#9DD3F2" transform="translate(56,98)"/>
<path d="M0 0 C2 1 2 1 4 4 C4.125 7.1875 4.125 7.1875 4 10 C3.01 9.67 2.02 9.34 1 9 C-0.4783226 6.04335481 -0.06032783 3.25770263 0 0 Z " fill="#C6E3F1" transform="translate(76,88)"/>
<path d="M0 0 C0.33 0 0.66 0 1 0 C1 1.65 1 3.3 1 5 C1.66 5.33 2.32 5.66 3 6 C0.69 6.66 -1.62 7.32 -4 8 C-2.25 2.25 -2.25 2.25 0 0 Z " fill="#9AD0E9" transform="translate(77,76)"/>
<path d="M0 0 C1.98 0.66 3.96 1.32 6 2 C4.68 2.33 3.36 2.66 2 3 C2 3.66 2 4.32 2 5 C0.35 5 -1.3 5 -3 5 C-2.01 3.35 -1.02 1.7 0 0 Z " fill="#CDCDCD" transform="translate(75,139)"/>
<path d="M0 0 C0.33 0 0.66 0 1 0 C1 2.97 1 5.94 1 9 C-1.31 8.67 -3.62 8.34 -6 8 C-5.38125 7.731875 -4.7625 7.46375 -4.125 7.1875 C-1.7004767 6.04443152 -1.7004767 6.04443152 0 3 C-0.66 2.67 -1.32 2.34 -2 2 C-1.34 2 -0.68 2 0 2 C0 1.34 0 0.68 0 0 Z " fill="#5FA3C4" transform="translate(80,100)"/>
<path d="M0 0 C1.65 0 3.3 0 5 0 C4.34 1.32 3.68 2.64 3 4 C3.66 4 4.32 4 5 4 C5.33 5.65 5.66 7.3 6 9 C4 7.625 4 7.625 2 6 C2 5.34 2 4.68 2 4 C1.34 3.67 0.68 3.34 0 3 C0 2.01 0 1.02 0 0 Z " fill="#96CDE9" transform="translate(137,86)"/>
<path d="M0 0 C0.99 0 1.98 0 3 0 C3 1.98 3 3.96 3 6 C1.68 6 0.36 6 -1 6 C-1.042721 4.33388095 -1.04063832 2.66617115 -1 1 C-0.67 0.67 -0.34 0.34 0 0 Z " fill="#4CA8D6" transform="translate(111,86)"/>
<path d="M0 0 C2.64 0 5.28 0 8 0 C8 0.66 8 1.32 8 2 C6.02253397 2.73080266 4.01927511 3.39421747 2 4 C1.34 3.67 0.68 3.34 0 3 C0 2.01 0 1.02 0 0 Z " fill="#3493BD" transform="translate(56,77)"/>
<path d="M0 0 C2.0625 0.4375 2.0625 0.4375 4 1 C3.67 1.33 3.34 1.66 3 2 C3.40929986 4.05396726 3.40929986 4.05396726 4 6 C2.68 6 1.36 6 0 6 C-0.38218767 4.34385343 -0.71395102 2.67542976 -1 1 C-0.67 0.67 -0.34 0.34 0 0 Z " fill="#3EA3D6" transform="translate(87,117)"/>
<path d="M0 0 C1.67542976 0.28604898 3.34385343 0.61781233 5 1 C5 1.66 5 2.32 5 3 C3.03852126 4.38938077 1.03833424 5.7260411 -1 7 C-1.04254356 5.00045254 -1.04080783 2.99958364 -1 1 C-0.67 0.67 -0.34 0.34 0 0 Z " fill="#73B1CD" transform="translate(90,81)"/>
<path d="M0 0 C0.66 0 1.32 0 2 0 C2 0.99 2 1.98 2 3 C2.66 3 3.32 3 4 3 C3.34 4.32 2.68 5.64 2 7 C1.01 7 0.02 7 -1 7 C-0.67 4.69 -0.34 2.38 0 0 Z " fill="#48ACDA" transform="translate(150,106)"/>
<path d="M0 0 C1.32 0.33 2.64 0.66 4 1 C4 2.32 4 3.64 4 5 C1.69 4.67 -0.62 4.34 -3 4 C-2.01 3.67 -1.02 3.34 0 3 C0 2.01 0 1.02 0 0 Z " fill="#41A2D6" transform="translate(110,105)"/>
<path d="M0 0 C1.32 0.66 2.64 1.32 4 2 C3.34 3.32 2.68 4.64 2 6 C1.67 5.67 1.34 5.34 1 5 C0.67 5.66 0.34 6.32 0 7 C-0.99 6.67 -1.98 6.34 -3 6 C-2.505 5.566875 -2.01 5.13375 -1.5 4.6875 C0.33218192 3.00259517 0.33218192 3.00259517 0 0 Z " fill="#82C8EA" transform="translate(114,91)"/>
<path d="M0 0 C1.32 0 2.64 0 4 0 C3.67 0.66 3.34 1.32 3 2 C2.9254644 3.2236068 2.9254644 3.2236068 4 5 C3.67 5.66 3.34 6.32 3 7 C2.01 7 1.02 7 0 7 C-0.38133299 5.0085944 -0.71325582 3.00720923 -1 1 C-0.67 0.67 -0.34 0.34 0 0 Z " fill="#68B2D5" transform="translate(138,72)"/>
<path d="M0 0 C1.32 0.66 2.64 1.32 4 2 C3.67 3.32 3.34 4.64 3 6 C2.01 6 1.02 6 0 6 C0 5.01 0 4.02 0 3 C-0.66 2.67 -1.32 2.34 -2 2 C-1.34 2 -0.68 2 0 2 C0 1.34 0 0.68 0 0 Z " fill="#F4F4F3" transform="translate(63,140)"/>
<path d="M0 0 C0.66 0 1.32 0 2 0 C2 0.66 2 1.32 2 2 C2.66 2 3.32 2 4 2 C4 2.66 4 3.32 4 4 C2.35 4 0.7 4 -1 4 C-1.33 4.99 -1.66 5.98 -2 7 C-2.33 6.01 -2.66 5.02 -3 4 C-1.6875 1.8125 -1.6875 1.8125 0 0 Z " fill="#52AAD1" transform="translate(150,68)"/>
<path d="M0 0 C0.33 0.99 0.66 1.98 1 3 C-1.64 3.33 -4.28 3.66 -7 4 C-7 3.34 -7 2.68 -7 2 C-4.69 1.34 -2.38 0.68 0 0 Z " fill="#479FC1" transform="translate(55,98)"/>
<path d="M0 0 C2.475 0.99 2.475 0.99 5 2 C4.01 2.33 3.02 2.66 2 3 C2.99 4.98 3.98 6.96 5 9 C3.68 8.67 2.36 8.34 1 8 C0.67 5.36 0.34 2.72 0 0 Z " fill="#D7EFFA" transform="translate(132,83)"/>
<path d="M0 0 C0.66 1.32 1.32 2.64 2 4 C0.35 4.33 -1.3 4.66 -3 5 C-3 4.34 -3 3.68 -3 3 C-3.66 2.67 -4.32 2.34 -5 2 C-3.35 1.34 -1.7 0.68 0 0 Z " fill="#B5DBEF" transform="translate(121,71)"/>
<path d="M0 0 C0.66 0 1.32 0 2 0 C2 0.66 2 1.32 2 2 C2.66 2.33 3.32 2.66 4 3 C3.67 3.66 3.34 4.32 3 5 C2.34 5 1.68 5 1 5 C1.33 5.99 1.66 6.98 2 8 C1.34 8 0.68 8 0 8 C0 5.36 0 2.72 0 0 Z " fill="#2A95C7" transform="translate(39,118)"/>
<path d="M0 0 C0.99 0.495 0.99 0.495 2 1 C2.33333333 3 2.66666667 5 3 7 C3.66 7.33 4.32 7.66 5 8 C3.02 8.99 3.02 8.99 1 10 C0.67 6.7 0.34 3.4 0 0 Z " fill="#7FB5CD" transform="translate(89,89)"/>
<path d="M0 0 C1.134375 0.020625 2.26875 0.04125 3.4375 0.0625 C2.4475 1.5475 2.4475 1.5475 1.4375 3.0625 C0.7775 3.0625 0.1175 3.0625 -0.5625 3.0625 C-0.8925 3.7225 -1.2225 4.3825 -1.5625 5.0625 C-2.5525 3.7425 -3.5425 2.4225 -4.5625 1.0625 C-3.5625 0.0625 -3.5625 0.0625 0 0 Z " fill="#5CB5E4" transform="translate(122.5625,115.9375)"/>
<path d="M0 0 C0.33 0 0.66 0 1 0 C1 1.98 1 3.96 1 6 C-0.65 6.33 -2.3 6.66 -4 7 C-3 4 -3 4 -1 2 C-0.67 1.34 -0.34 0.68 0 0 Z " fill="#70B0CD" transform="translate(64,93)"/>
<path d="M0 0 C0.66 0 1.32 0 2 0 C2 0.66 2 1.32 2 2 C1.34 2 0.68 2 0 2 C0.33 3.32 0.66 4.64 1 6 C-0.65 5.67 -2.3 5.34 -4 5 C-2.71937515 3.2925002 -1.38232443 1.62626404 0 0 Z " fill="#99D1EF" transform="translate(93,84)"/>
</svg>
