<svg width="75" height="29" viewBox="0 0 75 29" fill="none" xmlns="http://www.w3.org/2000/svg">
<g clip-path="url(#clip0_268_918)">
<path fill-rule="evenodd" clip-rule="evenodd" d="M72.7234 5.09354C73.9652 5.09354 75 4.08209 75 2.8113C75 1.56644 73.9652 0.529053 72.7234 0.529053C71.4816 0.529053 70.4467 1.56644 70.4467 2.8113C70.4726 4.08209 71.4816 5.09354 72.7234 5.09354ZM70.8089 2.83723C70.8089 1.77391 71.6885 0.892137 72.7492 0.892137C73.81 0.892137 74.6896 1.77391 74.6896 2.83723C74.6896 3.90055 73.81 4.78232 72.7492 4.78232C71.6627 4.75639 70.8089 3.90055 70.8089 2.83723ZM71.8696 3.97835H72.3094V2.99284H72.8269L73.2149 3.95242H73.7065L73.2667 2.91503C73.4219 2.83723 73.6806 2.75943 73.6806 2.31854C73.6806 1.61831 73.1632 1.5405 72.6975 1.5405H71.8955V3.97835H71.8696ZM72.3094 1.98139H72.801C73.0597 1.98139 73.2149 2.08513 73.2149 2.2926C73.2149 2.50008 73.0597 2.60382 72.8527 2.60382H72.3353V1.98139H72.3094Z" fill="#007CC3"/>
<path d="M0 3.84868V3.82275V1.12555H2.69058V3.82275V3.84868V20.784V20.8358V23.4812H0V20.8099V20.784V3.84868Z" fill="#007CC3"/>
<path d="M27.2939 15.3377C27.3715 19.4094 29.881 22.6512 32.9338 22.5994C35.9865 22.5475 38.3925 19.2019 38.3149 15.1561C38.2373 11.0844 35.7278 7.84259 32.675 7.89446C29.6223 7.94633 27.2163 11.2919 27.2939 15.3377ZM49.4912 10.436C49.5688 10.5917 49.3877 10.2026 49.3877 10.2026L49.4912 10.436ZM51.328 27.2676C51.4574 27.0601 51.6126 26.7489 51.8196 26.3339L51.328 27.2676ZM51.4833 9.03558C51.5091 9.11338 51.5609 9.21712 51.5867 9.32086L52.4922 11.5253L51.4833 9.03558ZM40.2552 20.1874C41.911 21.6917 43.4115 22.4697 45.326 22.4697C47.2922 22.4956 49.0255 21.536 49.0255 19.6947C49.0255 18.1646 47.6544 17.2568 45.2225 16.2195C43.1528 15.3377 41.6264 14.6893 40.8244 13.4185C40.9279 13.9891 40.9796 14.5596 40.9796 15.1561C40.9796 20.1356 37.3577 24.1814 32.9079 24.1814C28.4322 24.1814 24.8361 20.1356 24.8361 15.1561C24.8361 12.1477 26.1556 9.47647 28.1735 7.84259H22.6888V20.7839V20.8358V23.5071H20.257V20.9396C20.257 20.8877 20.257 20.8358 20.257 20.8099V7.84259H18.1097V6.20871H20.2828C20.5933 2.91502 22.6112 1.04773 25.4312 1.04773C27.268 1.04773 28.2511 1.22927 28.8461 1.51455V3.74493C28.8461 3.90053 28.8461 4.00427 28.8461 4.00427C28.8203 4.00427 28.7685 4.00427 28.7685 4.00427C27.8889 3.2003 27.0352 2.57787 24.9914 2.57787C23.3874 2.57787 22.3267 3.90053 22.6888 6.18278H31.7696C32.1318 6.13091 32.5198 6.10497 32.9079 6.10497C36.1418 6.10497 38.9358 8.23161 40.2035 11.3178C40.2035 11.1363 40.1776 10.9807 40.1776 10.7732C40.1776 7.55731 43.2822 6.20871 46.4902 6.20871C46.6195 6.20871 46.723 6.20871 46.8524 6.20871C47.9907 6.18278 49.5947 6.5718 50.5778 6.83114L51.4833 9.03558L52.4922 11.5253L55.2346 18.1905L55.545 19.2538L55.9072 18.1905L59.348 9.63208C59.9948 7.27203 62.5043 6.26058 65.2984 6.26058C66.6954 6.26058 67.7044 6.41619 68.9203 6.85708V9.45053C67.4198 8.36128 66.3332 7.71292 64.6257 7.71292C63.1252 7.71292 61.3142 8.38722 61.3142 10.5917C61.2884 12.2515 62.2973 12.5627 65.2208 14.015C67.6268 15.0524 69.8517 16.2195 69.8775 18.8907C69.8775 23.3515 65.4795 24.1295 63.3322 24.1295C61.4177 24.1295 59.6844 23.6627 58.7013 22.8587V19.9281L58.8565 20.0578C60.5898 21.6917 62.1162 22.5216 64.1083 22.5216C66.0745 22.5475 67.8079 21.5879 67.8079 19.7466C67.8079 18.2164 66.4367 17.3087 64.0048 16.2713C61.6764 15.2599 60.15 14.5856 59.5291 12.9258C58.5719 15.2339 54.1738 25.9968 53.139 28.305H50.7589L51.328 27.2417L51.8196 26.308L51.8455 26.2821C52.4405 25.115 53.3201 23.2737 54.0704 21.4842L49.4912 10.4101C49.4653 10.3323 49.3877 10.1767 49.2325 9.81362C48.8703 9.00965 48.5598 8.28348 47.5767 7.89446C47.0593 7.71292 46.4902 7.63511 45.8175 7.63511C44.317 7.63511 42.3767 8.30941 42.3767 10.5139C42.3508 12.1737 43.4633 12.4849 46.3867 13.9372C48.7927 14.9746 51.0176 16.1417 51.0435 18.8129C51.0435 23.2737 46.6454 24.0517 44.4981 24.0517C42.7906 24.0517 41.2383 23.6886 40.2035 23.0143V20.1874H40.2552Z" fill="#007CC3"/>
<path d="M7.68366 6.36433L7.70953 8.30942V8.4391H7.7354C7.76127 8.36129 7.81301 8.28349 7.83888 8.23162C8.82198 7.1683 10.0638 6.13092 13.0131 6.13092C15.833 6.13092 17.6699 8.54284 17.7475 10.047V20.758V20.8099V23.4552H15.3156V20.2653V11.1363C15.3156 9.24307 13.6599 7.89447 11.6419 7.89447C9.96031 7.89447 7.78714 9.39868 7.7354 10.9548V20.784V20.8618V23.5071H5.30353V20.784V8.62064V6.36433H5.74333H7.06275H7.68366Z" fill="#007CC3"/>
</g>
<defs>
<clipPath id="clip0_268_918">
<rect width="75" height="27.75" fill="white" transform="translate(0 0.554993)"/>
</clipPath>
</defs>
</svg>
