<svg width="75" height="17" viewBox="0 0 75 17" fill="none" xmlns="http://www.w3.org/2000/svg">
<g clip-path="url(#clip0_268_951)">
<path d="M7.57633 0.945007H3.16623V1.31419H4.57972V8.641C4.57972 10.8277 3.95778 11.4525 2.60083 11.4525C2.09197 11.5093 1.63965 11.1401 1.58311 10.6289C1.58311 10.5721 1.58311 10.5153 1.58311 10.4585C1.58311 9.66335 1.52657 9.18058 0.819827 9.18058C0.11308 9.18058 0 9.91894 0 10.1461C0 11.1685 0.452318 11.9352 2.45948 11.9352C4.86242 11.9352 6.13456 11.1401 6.13456 8.44221V1.31419H7.6046L7.57633 0.945007Z" fill="#503629"/>
<path d="M8.14172 10.2029C7.91556 10.2029 7.6894 10.2881 7.51978 10.4585C7.35016 10.6289 7.26535 10.8561 7.26535 11.0833C7.26535 11.3105 7.35016 11.5377 7.51978 11.6797C7.6894 11.8501 7.91556 11.9353 8.14172 11.9353C8.36788 11.9353 8.59403 11.8501 8.76365 11.6797C8.93327 11.5093 9.01808 11.3105 9.01808 11.0833C9.01808 10.6005 8.65057 10.2313 8.16999 10.2313H8.14172" fill="#503629"/>
<path d="M17.9514 10.2029C17.4991 10.2029 17.1033 10.5721 17.075 11.0265V11.0549C17.075 11.282 17.1881 11.5092 17.3577 11.6512C17.5273 11.8216 17.7535 11.9068 17.9796 11.9068C18.2058 11.9068 18.432 11.8216 18.6016 11.6512C18.7712 11.5092 18.856 11.282 18.856 11.0549C18.856 10.8277 18.7712 10.6005 18.6016 10.4301C18.432 10.2597 18.2341 10.1745 18.0079 10.1745" fill="#503629"/>
<path d="M14.8982 0.945007H10.5447V1.31419H11.8168V9.66335C11.8451 10.0041 11.8168 10.3449 11.7037 10.6857C11.5906 10.9129 11.3928 11.1117 11.1666 11.1685C10.9122 11.2537 10.6295 11.3105 10.3468 11.3105V11.6512H14.9548V11.3105C14.6438 11.3105 14.3611 11.2821 14.0784 11.1969C13.824 11.1117 13.6261 10.9413 13.5413 10.7141C13.4565 10.4869 13.3999 10.2597 13.4282 10.0325V7.13588H14.5873C17.9231 7.13588 18.856 5.80115 18.856 4.01205C18.856 2.22294 18.2623 0.945007 14.8982 0.945007ZM14.2763 6.7099H13.3999V1.37098H14.1915C16.764 1.37098 17.386 2.42173 17.386 4.12564C17.386 5.82955 16.3683 6.7667 14.3328 6.7667" fill="#503629"/>
<path d="M32.6235 10.6573C32.5387 10.4301 32.5104 10.1745 32.5387 9.91892V1.31417H33.6977V0.973389H30.9555L27.6197 9.12376C27.6197 9.15216 27.5914 9.18056 27.5632 9.18056C27.5349 9.18056 27.5066 9.15216 27.4783 9.12376C27.4783 9.12376 24.0294 1.05858 24.0011 0.973389H20.948V1.31417H22.2767V10.3733C22.2767 10.5721 22.1919 10.7425 22.1071 10.9129C21.994 11.0833 21.8244 11.1969 21.6265 11.2536C21.4286 11.3104 21.2024 11.3104 21.0045 11.3104V11.6512H24.0294V11.3104C23.8315 11.3104 23.6619 11.282 23.4923 11.2253C23.2661 11.1685 23.0965 11.0549 22.9552 10.8845C22.8421 10.7141 22.7855 10.5437 22.7573 10.3449L22.729 9.57814V2.42171H22.8986C22.8986 2.42171 26.8281 11.5376 26.8281 11.6512H27.1956L30.899 2.50691H30.9838V9.86212C30.9838 10.1177 30.9555 10.3733 30.899 10.6289C30.8142 10.8561 30.6446 11.0265 30.4467 11.1117C30.1922 11.1969 29.9378 11.2536 29.6834 11.2536V11.5944H33.8956V11.2536C33.6412 11.2536 33.3585 11.1969 33.104 11.1117C32.8779 10.9981 32.7083 10.7993 32.6235 10.5721" fill="#503629"/>
<path d="M38.3057 3.81323C36.0441 3.81323 34.6306 5.28995 34.6306 7.90262C34.6306 11.7364 37.599 11.9636 38.2492 11.9636C39.5213 11.9636 41.9242 11.1684 41.9242 7.81742C41.896 5.20476 40.3694 3.81323 38.3057 3.81323ZM38.2774 11.4808C36.5812 11.4808 36.3268 10.6289 36.3268 7.93102C36.3268 5.82953 36.4682 4.23921 38.2774 4.23921C40.2281 4.23921 40.2563 5.88632 40.2563 7.76062C40.2563 10.5153 39.7757 11.4808 38.2774 11.4808Z" fill="#503629"/>
<path d="M47.8044 3.92688C46.4474 3.92688 46.0516 4.72204 45.6559 5.5456H45.5428C45.5428 5.5456 45.3449 4.38126 45.2883 4.01208H42.6592V4.40965H44.0727V9.72018C44.101 10.0894 44.0445 10.4585 43.9031 10.7993C43.7618 11.0549 43.4225 11.1969 42.9137 11.1969H42.6875V11.6797H47.0411V11.1969H46.8432C46.2778 11.1969 46.0234 11.0833 45.882 10.8277C45.7407 10.4869 45.6558 10.0894 45.7124 9.72018V6.96552C45.7124 6.05677 46.4191 4.97762 47.239 4.97762C48.0871 4.97762 48.0871 6.31235 49.0765 5.77278C49.5854 5.4604 49.4723 3.92688 47.8044 3.92688Z" fill="#503629"/>
<path d="M65.1904 10.8561C64.7098 10.8561 64.5684 10.6005 64.5402 10.1745V5.97156C64.5967 5.40359 64.3988 4.80722 64.003 4.38124C63.6073 3.98366 62.8157 3.75648 61.6849 3.75648C60.8368 3.69968 60.017 3.89847 59.282 4.35284C58.8579 4.60843 58.6035 5.09121 58.6035 5.57398C58.5752 5.77277 58.66 5.97156 58.8014 6.11355C58.9427 6.22715 59.1123 6.28394 59.282 6.28394C59.706 6.28394 59.9604 6.05675 60.0453 5.48878C60.0453 5.148 60.1866 4.83562 60.3845 4.58003C60.6672 4.32445 61.063 4.18245 61.4305 4.23925C61.8545 4.18245 62.3068 4.35284 62.5895 4.69363C62.8157 5.03441 62.9005 5.40359 62.9005 5.80117V7.1359C61.5153 7.24949 58.2077 7.53348 58.3491 10.0325C58.4621 11.0833 59.3668 11.8785 60.4128 11.8501C61.4022 11.8217 62.3351 11.3673 62.957 10.5721C63.0984 11.2821 63.7203 11.7649 64.4271 11.7365C65.4448 11.7365 66.0667 11.2253 66.1233 10.0041H65.8688C65.8123 10.5721 65.4731 10.8561 65.1904 10.8561ZM62.9005 10.0325C62.9005 10.0609 62.9005 10.0609 62.9005 10.0893V10.1177C62.4482 10.6289 61.8263 10.9413 61.1478 11.0265C60.4976 11.0549 59.9322 10.5437 59.9039 9.86215C59.9039 9.80536 59.9039 9.74856 59.9039 9.69176C59.9039 8.27184 61.8545 7.56188 62.9288 7.56188L62.9005 10.0325Z" fill="#503629"/>
<path d="M74.1236 10.7993C73.9257 10.4585 73.8409 10.061 73.8409 9.66338V6.19876C73.8692 5.74438 73.7844 5.3184 73.5865 4.92082C73.4169 4.60844 73.1342 4.32446 72.8232 4.15407C72.4557 3.98367 72.0599 3.89848 71.6642 3.89848C70.6182 3.87008 69.657 4.43805 69.1764 5.3752H69.0068L68.7241 3.98367H66.3777V4.38125H67.565V9.66338C67.565 9.97576 67.5367 10.2597 67.4802 10.5721C67.4237 10.7993 67.2541 10.9981 67.0279 11.0549C66.83 11.1401 66.6038 11.1685 66.3777 11.1685V11.6513H70.1376V11.1685C69.8549 11.1969 69.5722 11.0549 69.3743 10.8561C69.2047 10.5153 69.1199 10.1462 69.1764 9.77697V7.76068C69.0916 7.02231 69.2047 6.28395 69.4591 5.57399C69.7701 5.03442 70.3637 4.69364 70.9857 4.72204C71.4097 4.66524 71.8338 4.89243 72.0317 5.26161C72.2296 5.82958 72.3144 6.45434 72.2861 7.05071V9.54978C72.3144 9.86217 72.3144 10.1745 72.2861 10.4869C72.2578 10.7141 72.1447 10.9129 71.9469 11.0265C71.749 11.1401 71.5511 11.1969 71.3532 11.1969V11.6797H75V11.1969C74.5477 11.1401 74.265 11.0265 74.1236 10.7993Z" fill="#503629"/>
<path d="M57.0769 3.50086C56.8225 3.61446 56.6528 3.84164 56.6246 4.09723C56.568 4.40961 56.455 4.58001 56.2853 4.6368C56.1157 4.6936 55.9178 4.6652 55.7482 4.6084C55.0697 4.01203 54.1651 3.72805 53.2887 3.78485C51.7339 3.67125 50.3487 4.83559 50.2356 6.39751C50.2356 6.5111 50.2356 6.6247 50.2356 6.73829C50.2356 8.38541 50.8575 9.12377 52.2145 9.43615C52.2993 9.43615 52.2993 9.54974 52.2145 9.54974C51.0554 9.74853 50.0377 10.0893 50.0377 11.2253C50.0377 11.7648 50.3769 12.2476 50.8858 12.418C51.6208 12.6736 52.3841 12.7872 53.1474 12.7588C53.741 12.7588 54.363 12.7872 54.9566 12.844C55.2959 12.8724 55.6351 12.986 55.9461 13.1848C56.2005 13.4119 56.3419 13.7243 56.3136 14.0651C56.3136 14.6047 55.9744 15.0875 55.4938 15.2862C54.8436 15.5986 54.1368 15.7406 53.4301 15.7122C52.7799 15.769 52.1014 15.627 51.536 15.2862C51.1968 15.0307 51.0271 14.6047 51.1402 14.2071C51.2533 13.8947 51.0837 13.5255 50.7444 13.4119H50.6596C50.4052 13.3835 50.1508 13.4971 50.0094 13.6959C49.8963 13.8947 49.8115 14.1503 49.8398 14.4059C49.8681 15.1443 50.3769 15.7406 51.1119 15.8826C51.7904 16.1098 52.4972 16.195 53.2039 16.195C54.0237 16.2234 54.8436 16.0814 55.6069 15.7406C56.5115 15.343 57.1334 14.4627 57.1334 13.4687C57.1617 12.986 57.0204 12.5316 56.7659 12.134C56.0026 11.0833 54.9284 11.2253 52.4972 11.1117C51.3381 11.1117 51.1119 10.9129 51.1119 10.5721C51.1119 10.0325 51.536 9.83373 53.2039 9.57814C54.8718 9.32256 56.4267 8.69779 56.4267 6.6815C56.4267 6.19872 56.3419 5.68755 56.1157 5.23317C56.4267 5.31837 56.7659 5.31837 57.0769 5.23317C57.3596 5.14798 57.614 4.94919 57.7554 4.6936C57.8967 4.49481 57.9533 4.21082 57.8967 3.98364C57.7554 3.55766 57.4727 3.38727 57.0769 3.50086ZM53.317 9.09537C52.3276 9.09537 51.7339 8.72619 51.7339 6.70989C51.7339 5.28997 52.2145 4.23922 53.317 4.23922C54.5609 4.23922 54.9001 5.20477 54.9001 6.6815C54.8718 8.78298 54.2216 9.09537 53.317 9.09537Z" fill="#503629"/>
</g>
<defs>
<clipPath id="clip0_268_951">
<rect width="75" height="15.25" fill="white" transform="translate(0 0.945007)"/>
</clipPath>
</defs>
</svg>
