<svg width="87" height="12" viewBox="0 0 87 12" fill="none" xmlns="http://www.w3.org/2000/svg">
<g clip-path="url(#clip0_268_947)">
<path d="M12.2214 10.806V5.99901C12.2214 4.18401 11.059 2.97401 9.18819 2.95201C8.20295 2.94101 7.1845 3.23801 6.47601 4.31601C5.94465 3.46901 5.10332 2.95201 3.92989 2.95201C3.1107 2.95201 2.30258 3.19401 1.67159 4.08501V3.15001H0V10.806H1.69373V6.56001C1.69373 5.22901 2.43542 4.52501 3.57565 4.52501C4.68266 4.52501 5.24723 5.25101 5.24723 6.54901V10.806H6.94096V6.56001C6.94096 5.22901 7.71587 4.52501 8.82288 4.52501C9.9631 4.52501 10.5166 5.25101 10.5166 6.54901V10.806H12.2214ZM37.2841 3.15001H34.5387V0.818007H32.845V3.15001H31.2841V4.66801H32.845V8.16601C32.845 9.94801 33.5424 11.004 35.524 11.004C36.2546 11.004 37.0849 10.784 37.6162 10.41L37.1292 8.98001C36.631 9.26601 36.0775 9.40901 35.6458 9.40901C34.8044 9.40901 34.5387 8.89201 34.5387 8.12201V4.66801H37.2841V3.15001ZM51.5756 2.95201C50.6125 2.95201 49.9815 3.40301 49.5387 4.07401V3.15001H47.8782V10.806H49.5498V6.51601C49.5498 5.25101 50.1033 4.54701 51.1993 4.54701C51.5424 4.54701 51.8967 4.59101 52.2509 4.73401L52.7712 3.16101C52.4059 3.01801 51.9188 2.95201 51.5756 2.95201ZM29.9557 3.75501C29.1476 3.22701 28.0406 2.95201 26.8118 2.95201C24.8635 2.95201 23.6015 3.87601 23.6015 5.40501C23.6015 6.65901 24.5314 7.42901 26.2583 7.66001L27.0443 7.77001C27.9631 7.90201 28.3948 8.13301 28.3948 8.57301C28.3948 9.16701 27.786 9.49701 26.6347 9.49701C25.4723 9.49701 24.631 9.12301 24.0664 8.69401L23.2804 9.99201C24.1993 10.663 25.3616 10.982 26.6236 10.982C28.8487 10.982 30.1439 9.93701 30.1439 8.48501C30.1439 7.14301 29.1255 6.43901 27.4539 6.19701L26.6679 6.08701C25.9373 5.98801 25.3616 5.84501 25.3616 5.33901C25.3616 4.77801 25.9151 4.43701 26.8339 4.43701C27.8192 4.43701 28.7712 4.81101 29.2362 5.09701L29.9557 3.75501ZM74.8782 2.95201C73.9151 2.95201 73.2841 3.40301 72.8413 4.07401V3.15001H71.1808V10.806H72.8524V6.51601C72.8524 5.25101 73.4059 4.54701 74.5018 4.54701C74.845 4.54701 75.1993 4.59101 75.5535 4.73401L76.0738 3.16101C75.6974 3.01801 75.2214 2.95201 74.8782 2.95201ZM53.2694 6.97801C53.2694 9.29901 54.8967 11.004 57.3764 11.004C58.5387 11.004 59.3137 10.751 60.155 10.091L59.3469 8.74901C58.7159 9.20001 58.0517 9.44201 57.3321 9.44201C55.9926 9.43101 55.0074 8.46301 55.0074 6.98901C55.0074 5.51501 55.9926 4.55801 57.3321 4.53601C58.0627 4.53601 58.7159 4.77801 59.3469 5.22901L60.155 3.88701C59.3137 3.22701 58.5387 2.97401 57.3764 2.97401C54.9077 2.95201 53.2694 4.65701 53.2694 6.97801ZM68.9779 6.97801V3.15001H67.3063V4.07401C66.7749 3.38101 65.9668 2.95201 64.8708 2.95201C62.7122 2.95201 61.0185 4.63501 61.0185 6.97801C61.0185 9.32101 62.7122 11.004 64.8708 11.004C65.9668 11.004 66.7749 10.575 67.3063 9.88201V10.806H68.9779V6.97801ZM62.7343 6.97801C62.7343 5.63601 63.6199 4.52501 65.0701 4.52501C66.4539 4.52501 67.3948 5.58101 67.3948 6.97801C67.3948 8.37501 66.4649 9.43101 65.0701 9.43101C63.6199 9.43101 62.7343 8.32001 62.7343 6.97801ZM42.4982 2.95201C40.2399 2.95201 38.6568 4.59101 38.6568 6.97801C38.6568 9.40901 40.3063 11.004 42.6089 11.004C43.7712 11.004 44.8339 10.718 45.7638 9.92601L44.9446 8.69401C44.3026 9.21101 43.4723 9.49701 42.7085 9.49701C41.6236 9.49701 40.6494 9.00201 40.4059 7.62701H46.1292C46.1402 7.41801 46.1624 7.20901 46.1624 6.98901C46.1513 4.59101 44.6679 2.95201 42.4982 2.95201ZM42.476 4.44801C43.5609 4.44801 44.2472 5.11901 44.4244 6.30701H40.428C40.6052 5.19601 41.2804 4.44801 42.476 4.44801ZM84.5424 6.97801V0.0700073H82.8708V4.07401C82.3395 3.38101 81.5314 2.95201 80.4354 2.95201C78.2767 2.95201 76.583 4.63501 76.583 6.97801C76.583 9.32101 78.2767 11.004 80.4354 11.004C81.5314 11.004 82.3395 10.575 82.8708 9.88201V10.806H84.5424V6.97801ZM86.5018 10.102C86.5683 10.102 86.6347 10.113 86.69 10.135C86.7454 10.157 86.8007 10.19 86.845 10.234C86.8893 10.278 86.9225 10.333 86.9557 10.388C86.9779 10.443 87 10.509 87 10.575C87 10.641 86.9889 10.707 86.9557 10.762C86.9336 10.817 86.8893 10.872 86.845 10.916C86.8007 10.96 86.7454 10.993 86.69 11.026C86.6347 11.048 86.5683 11.07 86.5018 11.07C86.4354 11.07 86.369 11.059 86.3026 11.026C86.2362 11.004 86.1919 10.96 86.1476 10.916C86.1033 10.872 86.0701 10.817 86.0369 10.762C86.0148 10.707 85.9926 10.641 85.9926 10.575C85.9926 10.509 86.0037 10.443 86.0369 10.388C86.059 10.333 86.1033 10.278 86.1476 10.234C86.1919 10.19 86.2472 10.157 86.3026 10.135C86.3579 10.113 86.4244 10.102 86.5018 10.102ZM86.5018 10.96C86.5572 10.96 86.6015 10.949 86.6458 10.927C86.69 10.905 86.7343 10.883 86.7675 10.85C86.8007 10.817 86.8339 10.773 86.845 10.729C86.8672 10.685 86.8782 10.63 86.8782 10.586C86.8782 10.531 86.8672 10.487 86.845 10.443C86.8229 10.399 86.8007 10.355 86.7675 10.322C86.7343 10.289 86.69 10.256 86.6458 10.245C86.6015 10.223 86.5461 10.212 86.5018 10.212C86.4465 10.212 86.4022 10.223 86.3469 10.245C86.3026 10.267 86.2583 10.289 86.2251 10.322C86.1919 10.355 86.1587 10.399 86.1476 10.443C86.1255 10.487 86.1144 10.542 86.1144 10.586C86.1144 10.641 86.1255 10.685 86.1476 10.729C86.1697 10.773 86.1919 10.817 86.2251 10.85C86.2583 10.883 86.3026 10.916 86.3469 10.927C86.3911 10.949 86.4465 10.96 86.5018 10.96ZM86.524 10.355C86.5793 10.355 86.6236 10.366 86.6568 10.399C86.69 10.421 86.7011 10.465 86.7011 10.509C86.7011 10.542 86.69 10.575 86.6679 10.597C86.6458 10.619 86.6015 10.641 86.5572 10.641L86.7011 10.806H86.5793L86.4465 10.641H86.4022V10.806H86.3026V10.355H86.524ZM86.4133 10.443V10.564H86.524C86.5461 10.564 86.5683 10.564 86.5904 10.553C86.6015 10.542 86.6125 10.531 86.6125 10.509C86.6125 10.487 86.6015 10.476 86.5904 10.465C86.5793 10.454 86.5572 10.454 86.524 10.454H86.4133V10.443ZM78.2989 6.97801C78.2989 5.63601 79.1845 4.52501 80.6347 4.52501C82.0185 4.52501 82.9594 5.58101 82.9594 6.97801C82.9594 8.37501 82.0295 9.43101 80.6347 9.43101C79.1845 9.43101 78.2989 8.32001 78.2989 6.97801ZM21.6753 6.97801V3.15001H20.0037V4.07401C19.4723 3.38101 18.6642 2.95201 17.5683 2.95201C15.4096 2.95201 13.7159 4.63501 13.7159 6.97801C13.7159 9.32101 15.4096 11.004 17.5683 11.004C18.6642 11.004 19.4723 10.575 20.0037 9.88201V10.806H21.6753V6.97801ZM15.4317 6.97801C15.4317 5.63601 16.3173 4.52501 17.7675 4.52501C19.1513 4.52501 20.0923 5.58101 20.0923 6.97801C20.0923 8.37501 19.1624 9.43101 17.7675 9.43101C16.3173 9.43101 15.4317 8.32001 15.4317 6.97801Z" fill="#141414"/>
</g>
<defs>
<clipPath id="clip0_268_947">
<rect width="87" height="11" fill="white" transform="translate(0 0.0700073)"/>
</clipPath>
</defs>
</svg>
