<svg width="91" height="14" viewBox="0 0 91 14" fill="none" xmlns="http://www.w3.org/2000/svg">
<path d="M3.9196 4.45277C3.85352 4.20337 3.87004 3.95397 3.90308 3.81369C3.98568 3.424 4.26652 3.00313 5.07599 3.00313C5.8359 3.00313 6.26542 3.43958 6.26542 4.10985C6.26542 4.32807 6.26542 4.85805 6.26542 4.85805H9.47026V4.00074C9.48678 1.35086 6.95925 0.929993 5.14207 0.929993C2.86233 0.929993 0.995595 1.64702 0.648678 3.62664C0.549559 4.1722 0.53304 4.65541 0.681718 5.26333C1.24339 7.74174 5.81938 8.45877 6.48018 10.0331C6.61233 10.3293 6.56278 10.7034 6.51322 10.9372C6.4141 11.3425 6.11674 11.7633 5.25771 11.7633C4.44824 11.7633 3.96916 11.3269 3.96916 10.6566V9.48755H0.5V10.4228C0.5 13.135 2.76322 13.9456 5.17511 13.9456C7.50441 13.9456 9.40419 13.1974 9.71806 11.171C9.86674 10.1266 9.7511 9.44078 9.70154 9.19138C9.17291 6.61944 4.28304 5.87124 3.9196 4.45277ZM45.7643 4.46836C45.7148 4.23455 45.7313 3.96956 45.7478 3.84486C45.8469 3.45517 46.1112 3.03431 46.9207 3.03431C47.6641 3.03431 48.0936 3.47076 48.0936 4.12544C48.0936 4.34366 48.0936 4.87364 48.0936 4.87364H51.2654V4.03191C51.2654 1.41321 48.7874 1.00793 46.9868 1.00793C44.7236 1.00793 42.8733 1.70937 42.5264 3.6734C42.4438 4.20337 42.4108 4.68659 42.5595 5.2945C43.1046 7.74174 47.6311 8.45877 48.2918 10.0175C48.4075 10.3137 48.3744 10.6878 48.3084 10.906C48.2093 11.3113 47.9284 11.7166 47.0694 11.7166C46.2764 11.7166 45.7808 11.2801 45.7808 10.6254V9.45637H42.3612V10.376C42.3612 13.0571 44.5914 13.8676 46.9868 13.8676C49.283 13.8676 51.1828 13.1194 51.4802 11.1242C51.6289 10.0799 51.5132 9.40961 51.4637 9.16021C50.9515 6.63503 46.1278 5.88683 45.7643 4.46836ZM74.9714 11.0931L71.9482 1.31968H67.174V13.3377H70.3293L70.1476 3.25253L73.402 13.3377H77.978V1.31968H74.8062L74.9714 11.0931ZM14.2775 1.31968L11.8822 13.4624H15.3513L17.152 2.22376L18.9031 13.4624H22.3557L19.9934 1.31968H14.2775ZM33.7048 1.31968L32.0859 10.8125L30.467 1.31968H25.2137L24.9328 13.4624H28.1542L28.2368 2.22376L30.4504 13.4624H33.7048L35.9185 2.22376L36.0011 13.4624H39.2225L38.9416 1.31968H33.7048ZM63.6057 1.31968H60.3513V10.2981C60.3513 10.454 60.3513 10.6254 60.3183 10.7657C60.2522 11.0619 59.9879 11.6542 59.0793 11.6542C58.1872 11.6542 57.9229 11.0775 57.8568 10.7657C57.8238 10.641 57.8238 10.454 57.8238 10.2981V1.31968H54.5694V10.0175C54.5694 10.2357 54.5859 10.7034 54.6024 10.8125C54.8337 13.0727 56.717 13.8209 59.0793 13.8209C61.4416 13.8209 63.3414 13.0883 63.5727 10.8125C63.5892 10.6878 63.6222 10.2357 63.6057 10.0175V1.31968ZM85.9405 6.63503V8.41201H87.2621V10.1734C87.2621 10.3293 87.2621 10.5007 87.2291 10.641C87.1795 10.9684 86.8491 11.5295 85.9075 11.5295C84.9824 11.5295 84.652 10.9684 84.6024 10.641C84.5859 10.5007 84.5694 10.3293 84.5694 10.1734V4.62424C84.5694 4.4216 84.5859 4.21896 84.6355 4.0475C84.7015 3.75134 84.9824 3.1746 85.9075 3.1746C86.8987 3.1746 87.13 3.78251 87.196 4.0475C87.2291 4.21896 87.2291 4.51512 87.2291 4.51512V5.18539H90.467V4.78011C90.467 4.78011 90.4835 4.35925 90.4504 3.96956C90.2026 1.70937 88.2037 0.992343 85.924 0.992343C83.6443 0.992343 81.6949 1.72496 81.4141 3.98515C81.3811 4.18779 81.348 4.56189 81.348 4.7957V9.89282C81.348 10.111 81.348 10.2825 81.3976 10.6878C81.6123 12.9012 83.6443 13.6806 85.924 13.6806C88.2203 13.6806 90.2357 12.9012 90.4504 10.6878C90.4835 10.2825 90.5 10.111 90.5 9.89282V6.63503H85.9405Z" fill="#1428A0"/>
</svg>
