<svg width="75" height="31" viewBox="0 0 75 31" fill="none" xmlns="http://www.w3.org/2000/svg">
<path d="M26.6953 19.576L27.4425 17.8354C28.25 18.4398 29.3227 18.754 30.3832 18.754C31.1666 18.754 31.6608 18.4519 31.6608 17.9925C31.6487 16.7113 26.9725 17.7145 26.9364 14.4993C26.9243 12.8675 28.3705 11.6105 30.4194 11.6105C31.6367 11.6105 32.8539 11.9127 33.7217 12.6016L33.0226 14.3785C32.2272 13.8708 31.2389 13.5082 30.2989 13.5082C29.6601 13.5082 29.2383 13.8104 29.2383 14.1971C29.2504 15.4542 33.9627 14.7653 34.0109 17.8354C34.0109 19.5035 32.6008 20.6759 30.5761 20.6759C29.0937 20.6759 27.7318 20.3254 26.6953 19.576Z" fill="black"/>
<path d="M55.3672 17.2069C54.9936 17.8596 54.2945 18.3068 53.4871 18.3068C52.2939 18.3068 51.3297 17.3398 51.3297 16.1432C51.3297 14.9466 52.2939 13.9796 53.4871 13.9796C54.2945 13.9796 54.9936 14.4268 55.3672 15.0795L57.4281 13.9312C56.6567 12.5533 55.1743 11.6105 53.4871 11.6105C50.9923 11.6105 48.9675 13.6411 48.9675 16.1432C48.9675 18.6453 50.9923 20.6759 53.4871 20.6759C55.1864 20.6759 56.6567 19.7452 57.4281 18.3552L55.3672 17.2069Z" fill="black"/>
<path d="M37.6265 7.85132H35.0474V20.5067H37.6265V7.85132Z" fill="black"/>
<path d="M58.4404 7.85132V20.5067H61.0196V16.7113L64.0808 20.5067H67.3831L63.4902 15.9981L67.0938 11.7918H63.9362L61.0196 15.285V7.85132H58.4404Z" fill="black"/>
<path d="M45.2916 17.2311C44.918 17.8475 44.1467 18.3068 43.2789 18.3068C42.0858 18.3068 41.1216 17.3398 41.1216 16.1432C41.1216 14.9466 42.0858 13.9796 43.2789 13.9796C44.1467 13.9796 44.918 14.4631 45.2916 15.0916V17.2311ZM45.2916 11.7918V12.8192C44.8698 12.1061 43.8213 11.6105 42.7245 11.6105C40.4588 11.6105 38.675 13.617 38.675 16.1311C38.675 18.6453 40.4588 20.6759 42.7245 20.6759C43.8213 20.6759 44.8698 20.1803 45.2916 19.4672V20.4946H47.8708V11.7918H45.2916Z" fill="black"/>
<path d="M10.7505 17.2189C10.7505 18.1013 10.0394 18.8145 9.1596 18.8145C8.2798 18.8145 7.56873 18.1013 7.56873 17.2189C7.56873 16.3366 8.2798 15.6234 9.1596 15.6234H10.7505V17.2189Z" fill="#E01E5A"/>
<path d="M11.5459 17.2189C11.5459 16.3366 12.257 15.6234 13.1368 15.6234C14.0166 15.6234 14.7276 16.3366 14.7276 17.2189V21.2077C14.7276 22.0901 14.0166 22.8032 13.1368 22.8032C12.257 22.8032 11.5459 22.0901 11.5459 21.2077V17.2189Z" fill="#E01E5A"/>
<path d="M13.1368 10.8127C12.257 10.8127 11.5459 10.0995 11.5459 9.21716C11.5459 8.33479 12.257 7.62164 13.1368 7.62164C14.0166 7.62164 14.7276 8.33479 14.7276 9.21716V10.8127H13.1368Z" fill="#36C5F0"/>
<path d="M13.1367 11.6225C14.0165 11.6225 14.7276 12.3356 14.7276 13.218C14.7276 14.1004 14.0165 14.8135 13.1367 14.8135H9.14751C8.26771 14.8135 7.55664 14.1004 7.55664 13.218C7.55664 12.3356 8.26771 11.6225 9.14751 11.6225H13.1367Z" fill="#36C5F0"/>
<path d="M19.5123 13.218C19.5123 12.3356 20.2234 11.6225 21.1032 11.6225C21.983 11.6225 22.6941 12.3356 22.6941 13.218C22.6941 14.1004 21.983 14.8135 21.1032 14.8135H19.5123V13.218Z" fill="#2EB67D"/>
<path d="M18.7169 13.218C18.7169 14.1004 18.0058 14.8136 17.126 14.8136C16.2462 14.8136 15.5352 14.1004 15.5352 13.218V9.21716C15.5352 8.33479 16.2462 7.62164 17.126 7.62164C18.0058 7.62164 18.7169 8.33479 18.7169 9.21716V13.218Z" fill="#2EB67D"/>
<path d="M17.126 19.6122C18.0058 19.6122 18.7169 20.3253 18.7169 21.2077C18.7169 22.0901 18.0058 22.8032 17.126 22.8032C16.2462 22.8032 15.5352 22.0901 15.5352 21.2077V19.6122H17.126Z" fill="#ECB22E"/>
<path d="M17.126 18.8145C16.2462 18.8145 15.5352 18.1013 15.5352 17.2189C15.5352 16.3366 16.2462 15.6234 17.126 15.6234H21.1153C21.9951 15.6234 22.7061 16.3366 22.7061 17.2189C22.7061 18.1013 21.9951 18.8145 21.1153 18.8145H17.126Z" fill="#ECB22E"/>
</svg>
