<svg width="75" height="25" viewBox="0 0 75 25" fill="none" xmlns="http://www.w3.org/2000/svg">
<g clip-path="url(#clip0_268_983)">
<path d="M48.8658 0.445007C43.5475 0.445007 38.7724 3.21236 38.7724 8.2906C38.7724 14.1391 47.2074 14.5385 47.2074 17.4485C47.2074 18.6753 45.7777 19.7879 43.3759 19.7879C39.9447 19.7879 37.3713 18.2474 37.3713 18.2474L36.2848 23.3827C36.2848 23.3827 39.2299 24.695 43.1758 24.695C49.0088 24.695 53.5837 21.8135 53.5837 16.6212C53.5837 10.4588 45.1201 10.0594 45.1201 7.34912C45.1201 6.37913 46.2924 5.32354 48.6942 5.32354C51.4106 5.32354 53.6409 6.43618 53.6409 6.43618L54.7274 1.47207C54.6988 1.47207 52.2684 0.445007 48.8658 0.445007ZM0.142966 0.81589L0 1.55765C0 1.55765 2.23027 1.95707 4.26039 2.78442C6.86237 3.72589 7.03393 4.26795 7.49142 5.95118L12.2665 24.2956H18.6714L28.4788 0.81589H22.1026L15.7835 16.7924L13.2101 3.24089C12.9813 1.7003 11.7804 0.81589 10.2936 0.81589H0.142966ZM31.0522 0.81589L26.0484 24.2956H32.1388L37.114 0.81589H31.0522ZM64.9638 0.81589C63.5055 0.81589 62.7335 1.58618 62.1616 2.9556L53.2406 24.2956H59.6169L60.8464 20.7294H68.6237L69.3671 24.2956H75L70.1106 0.81589H64.9638ZM65.793 7.17795L67.6801 15.9935H62.6191L65.793 7.17795Z" fill="#1434CB"/>
</g>
<defs>
<clipPath id="clip0_268_983">
<rect width="75" height="24.25" fill="white" transform="translate(0 0.445007)"/>
</clipPath>
</defs>
</svg>
