<svg width="39" height="31" viewBox="0 0 39 31" fill="none" xmlns="http://www.w3.org/2000/svg">
<g clip-path="url(#clip0_268_833)">
<path d="M35.1624 12.156C35.3779 12.9771 36.2195 13.4697 37.0508 13.2439C37.8719 13.0284 38.3645 12.1868 38.1387 11.3555C37.9232 10.5344 37.0816 10.0418 36.2503 10.2675C35.4395 10.4933 34.9468 11.3349 35.1624 12.156Z" fill="#2A4C87"/>
<path d="M33.0792 13.7981C33.6334 13.6442 33.9721 13.0694 33.8182 12.5152C33.6642 11.961 33.0895 11.6223 32.5353 11.7762C31.9811 11.9302 31.6424 12.5049 31.7963 13.0591C31.94 13.6134 32.5147 13.9418 33.0792 13.7981Z" fill="#2A4C87"/>
<path d="M30 14.3318C30.4106 14.2189 30.6569 13.7981 30.544 13.3875C30.4311 12.977 30.0103 12.7307 29.5998 12.8436C29.1892 12.9565 28.9429 13.3773 29.0558 13.7878C29.1687 14.1983 29.5895 14.4447 30 14.3318Z" fill="#2A4C87"/>
<path d="M27.6089 14.691C27.8655 14.6192 28.0195 14.3524 27.9579 14.0958C27.8963 13.8392 27.6192 13.6852 27.3626 13.7468C27.106 13.8187 26.9521 14.0855 27.0137 14.3421C27.0752 14.5987 27.3421 14.7526 27.6089 14.691Z" fill="#2E4E88"/>
<path d="M34.0224 9.03603C34.4124 9.70315 35.2642 9.9392 35.9314 9.5492C36.5985 9.15919 36.8345 8.30734 36.4445 7.64023C36.0545 6.97311 35.2027 6.73706 34.5355 7.12706C33.8684 7.51707 33.6324 8.36892 34.0224 9.03603Z" fill="#1F3D70"/>
<path d="M30.9333 10.8115C31.2001 11.2837 31.7954 11.4376 32.2675 11.1708C32.7396 10.9039 32.8936 10.3086 32.6267 9.83653C32.3599 9.36442 31.7646 9.21047 31.2925 9.47732C30.8306 9.74416 30.6664 10.3394 30.9333 10.8115Z" fill="#1F3D70"/>
<path d="M28.738 11.2734C28.3993 11.4684 28.2864 11.8892 28.4814 12.2279C28.6764 12.5666 29.0972 12.6795 29.4359 12.4844C29.7746 12.2894 29.8875 11.8687 29.6925 11.53C29.5077 11.2015 29.0767 11.0886 28.738 11.2734Z" fill="#1F3D70"/>
<path d="M26.7784 12.6897C26.5629 12.8129 26.4808 13.09 26.6039 13.3055C26.7271 13.5211 27.0042 13.6032 27.2197 13.48C27.4352 13.3568 27.5174 13.0797 27.3942 12.8642C27.271 12.6487 26.9939 12.5666 26.7784 12.6897Z" fill="#1F3D70"/>
<path d="M33.87 6.29566C34.3626 5.80303 34.3626 5.01275 33.87 4.52011C33.3774 4.02748 32.5871 4.02748 32.0945 4.52011C31.6018 5.01275 31.6018 5.80303 32.0945 6.29566C32.5768 6.7883 33.3774 6.7883 33.87 6.29566Z" fill="#194C88"/>
<path d="M30.8007 7.57862C30.4415 7.2194 29.8668 7.2194 29.5178 7.57862C29.1586 7.93783 29.1586 8.51258 29.5178 8.86153C29.877 9.22074 30.4518 9.22074 30.8007 8.86153C31.16 8.50231 31.16 7.92757 30.8007 7.57862Z" fill="#194C88"/>
<path d="M27.517 9.96998C27.2707 10.2163 27.2707 10.6166 27.517 10.8629C27.7633 11.1092 28.1636 11.1092 28.4099 10.8629C28.6562 10.6166 28.6562 10.2163 28.4099 9.98024C28.1636 9.72366 27.7633 9.72366 27.517 9.96998Z" fill="#194C88"/>
<path d="M25.967 12.4125C26.1312 12.5767 26.3981 12.5767 26.5623 12.4125C26.7265 12.2483 26.7265 11.9815 26.5623 11.8173C26.3981 11.653 26.1312 11.653 25.967 11.8173C25.8028 11.9815 25.8028 12.2483 25.967 12.4125Z" fill="#194C88"/>
<path d="M29.4455 4.18138C30.01 4.50981 30.7387 4.31481 31.0671 3.75033C31.3955 3.18584 31.2005 2.45715 30.6361 2.12873C30.0716 1.8003 29.3429 1.9953 29.0145 2.55978C28.6758 3.12426 28.8708 3.85296 29.4455 4.18138Z" fill="#3468A3"/>
<path d="M27.3219 6.18276C27.0859 6.58303 27.2296 7.0962 27.6298 7.33225C28.0301 7.56831 28.5433 7.42462 28.7793 7.02436C29.0154 6.62409 28.8717 6.11092 28.4714 5.87487C28.0609 5.63881 27.5477 5.7825 27.3219 6.18276Z" fill="#3468A3"/>
<path d="M26.7681 8.81012C26.5012 8.65617 26.1626 8.74854 26.0086 9.01538C25.8547 9.28223 25.947 9.62092 26.2139 9.77487C26.4807 9.92882 26.8194 9.83645 26.9734 9.5696C27.1273 9.30275 27.0349 8.96407 26.7681 8.81012Z" fill="#3468A3"/>
<path d="M25.4737 11.0475C25.2889 10.9449 25.0529 11.0065 24.9503 11.1912C24.8476 11.376 24.9092 11.612 25.0939 11.7147C25.2787 11.8173 25.5147 11.7557 25.6174 11.571C25.72 11.3862 25.6584 11.1502 25.4737 11.0475Z" fill="#3468A3"/>
<path d="M26.3255 2.81643C26.9207 2.98065 27.5365 2.62143 27.6905 2.02616C27.8547 1.43089 27.4955 0.81509 26.9002 0.661141C26.3049 0.507192 25.6891 0.856144 25.5352 1.45142C25.371 2.04669 25.7302 2.66248 26.3255 2.81643Z" fill="#4C8DCB"/>
<path d="M25.3812 6.32645C25.7918 6.43935 26.2126 6.19303 26.3255 5.7825C26.4384 5.37196 26.192 4.95117 25.7815 4.83827C25.371 4.72538 24.9502 4.9717 24.8373 5.38223C24.7347 5.79276 24.9707 6.21355 25.3812 6.32645Z" fill="#4C8DCB"/>
<path d="M24.6434 9.09755C24.9205 9.1694 25.2079 9.00518 25.2797 8.72808C25.3516 8.45097 25.1874 8.16359 24.9103 8.09175C24.6332 8.01991 24.3458 8.18412 24.2739 8.46123C24.2021 8.72808 24.3663 9.01545 24.6434 9.09755Z" fill="#4C8DCB"/>
<path d="M23.8226 10.8218C23.7713 11.0065 23.8842 11.2015 24.0689 11.2528C24.2536 11.3041 24.4486 11.1913 24.5 11.0065C24.5513 10.8218 24.4384 10.6268 24.2536 10.5755C24.0586 10.5241 23.8636 10.637 23.8226 10.8218Z" fill="#4C8DCB"/>
<path d="M22.9395 2.30331C23.5142 2.30331 23.9864 1.8312 23.9864 1.25645C23.9864 0.681707 23.5142 0.209595 22.9395 0.209595C22.3648 0.209595 21.8926 0.681707 21.8926 1.25645C21.8926 1.84146 22.3648 2.30331 22.9395 2.30331Z" fill="#3498B3"/>
<path d="M22.9391 4.54065C22.549 4.54065 22.2411 4.84855 22.2411 5.23855C22.2411 5.62856 22.549 5.93646 22.9391 5.93646C23.3291 5.93646 23.637 5.62856 23.637 5.23855C23.637 4.85881 23.3291 4.54065 22.9391 4.54065Z" fill="#3498B3"/>
<path d="M23.4314 8.34835C23.4314 8.08151 23.2159 7.85571 22.9388 7.85571C22.6617 7.85571 22.4462 8.07124 22.4462 8.34835C22.4462 8.62546 22.6617 8.84099 22.9388 8.84099C23.2159 8.84099 23.4314 8.6152 23.4314 8.34835Z" fill="#3498B3"/>
<path d="M22.9393 10.4421C22.7648 10.4421 22.6211 10.5858 22.6211 10.7602C22.6211 10.9347 22.7648 11.0784 22.9393 11.0784C23.1137 11.0784 23.2574 10.9347 23.2574 10.7602C23.2574 10.5858 23.1137 10.4421 22.9393 10.4421Z" fill="#3498B3"/>
<path d="M19.5205 2.69328C20.044 2.5496 20.3519 2.0159 20.2082 1.49248C20.0645 0.969048 19.5308 0.661149 19.0074 0.804835C18.4839 0.948521 18.176 1.48221 18.3197 2.00564C18.4634 2.51881 19.0074 2.8267 19.5205 2.69328Z" fill="#0AA496"/>
<path d="M19.5231 5.9594C19.6154 6.29809 19.9541 6.49309 20.2928 6.40072C20.6315 6.30835 20.8265 5.96966 20.7341 5.63097C20.6418 5.29228 20.3031 5.09728 19.9644 5.18965C19.636 5.28202 19.4307 5.63097 19.5231 5.9594Z" fill="#0AA496"/>
<path d="M20.6707 8.71776C20.7323 8.96408 20.9888 9.10776 21.2249 9.03592C21.4712 8.97434 21.6149 8.71776 21.5431 8.4817C21.4815 8.23538 21.2249 8.0917 20.9888 8.16354C20.7425 8.22512 20.6091 8.47144 20.6707 8.71776C20.6707 8.7075 20.6707 8.7075 20.6707 8.71776Z" fill="#0AA496"/>
<path d="M21.461 10.9962C21.502 11.1502 21.656 11.2323 21.7997 11.1912C21.9536 11.1502 22.0357 10.9962 21.9947 10.8525C21.9536 10.6986 21.7997 10.6165 21.656 10.6575C21.5123 10.6986 21.4199 10.8423 21.461 10.9962Z" fill="#0AA496"/>
<path d="M16.309 3.95567C16.7401 3.70935 16.894 3.14487 16.6477 2.71381C16.4014 2.28275 15.8369 2.1288 15.4058 2.37512C14.9748 2.62144 14.8208 3.18592 15.0671 3.61698C15.3237 4.0583 15.8779 4.20199 16.309 3.95567Z" fill="#00AA75"/>
<path d="M18.1262 7.09616C18.393 6.94221 18.4854 6.60352 18.3314 6.33667C18.1775 6.06983 17.8388 5.97746 17.572 6.13141C17.3051 6.28536 17.2127 6.62405 17.3667 6.89089C17.5104 7.15774 17.8593 7.25011 18.1262 7.09616Z" fill="#00AA75"/>
<path d="M19.6039 9.67227C19.8092 9.55937 19.8707 9.30279 19.7578 9.09752C19.6449 8.89226 19.3884 8.83068 19.1831 8.94357C18.9778 9.05647 18.9162 9.31305 19.0291 9.51832C19.1523 9.71332 19.4089 9.78516 19.6039 9.67227Z" fill="#00AA75"/>
<path d="M20.8147 11.2733C20.7429 11.1604 20.5992 11.1194 20.476 11.1809C20.3631 11.2528 20.3221 11.3965 20.3836 11.5196C20.4555 11.6325 20.5992 11.6736 20.7121 11.612C20.8455 11.5402 20.8865 11.3862 20.8147 11.2733Z" fill="#00AA75"/>
<path d="M13.5067 6.01853C13.8352 5.6901 13.8352 5.15641 13.5067 4.82798C13.1783 4.49956 12.6446 4.49956 12.3162 4.82798C11.9878 5.15641 11.9878 5.6901 12.3162 6.01853C12.6549 6.34695 13.1886 6.34695 13.5067 6.01853Z" fill="#4FBA6A"/>
<path d="M16.0828 7.89674C15.8878 7.70174 15.5799 7.70174 15.3952 7.89674C15.2002 8.09174 15.2002 8.39964 15.3952 8.58438C15.5902 8.77938 15.8981 8.77938 16.0828 8.58438C16.2675 8.38938 16.2675 8.08148 16.0828 7.89674Z" fill="#4FBA6A"/>
<path d="M18.2072 10.165C18.0533 10.011 17.8172 10.011 17.6633 10.165C17.5093 10.3189 17.5093 10.555 17.6633 10.7089C17.8172 10.8629 18.0533 10.8629 18.2072 10.7089C18.3509 10.555 18.3509 10.3189 18.2072 10.165Z" fill="#4FBA6A"/>
<path d="M19.7875 11.9917C19.7054 11.9096 19.572 11.9199 19.5001 12.002C19.418 12.0841 19.4283 12.2175 19.5104 12.2894C19.5925 12.3612 19.7156 12.3612 19.7977 12.2894C19.8696 12.2073 19.8696 12.0739 19.7875 11.9917Z" fill="#4FBA6A"/>
<path d="M10.2635 9.00516C10.633 9.22069 11.1051 9.08727 11.3104 8.72805C11.5259 8.35857 11.3925 7.88646 11.0333 7.68119C10.6638 7.46567 10.1917 7.59909 9.98643 7.9583C9.7709 8.31752 9.89406 8.78963 10.2635 9.00516Z" fill="#7EC45F"/>
<path d="M14.3274 9.99048C14.1222 9.87758 13.8758 9.94943 13.7527 10.1444C13.6398 10.3497 13.7116 10.596 13.9066 10.7192C14.1119 10.8321 14.3582 10.7705 14.4814 10.5652C14.5943 10.36 14.5224 10.1034 14.3274 9.99048Z" fill="#7EC45F"/>
<path d="M16.9868 11.6018C16.8226 11.5095 16.607 11.5608 16.5147 11.7352C16.4223 11.8995 16.4736 12.115 16.6481 12.2074C16.8123 12.2997 17.0278 12.2484 17.1202 12.0842C17.2126 11.92 17.151 11.7045 16.9868 11.6018Z" fill="#7EC45F"/>
<path d="M37.1434 13.7468C36.2197 13.7468 35.4603 14.496 35.4603 15.4299C35.4603 16.3536 36.2095 17.1131 37.1434 17.1131C38.0671 17.1131 38.8164 16.3639 38.8266 15.4402C38.8164 14.5062 38.0671 13.7468 37.1434 13.7468Z" fill="#4C609B"/>
<path d="M34.3616 15.4299C34.3616 14.7628 33.8279 14.2291 33.1608 14.2291C32.4937 14.2291 31.96 14.7628 31.96 15.4299C31.96 16.097 32.4937 16.6307 33.1608 16.6307C33.8177 16.6307 34.3616 16.097 34.3616 15.4299Z" fill="#4C609B"/>
<path d="M30.0517 14.6089C29.6001 14.6089 29.2307 14.9784 29.2307 15.43C29.2307 15.8816 29.6001 16.2511 30.0517 16.2511C30.5033 16.2511 30.8728 15.8816 30.8728 15.43C30.8728 14.9784 30.5033 14.6089 30.0517 14.6089Z" fill="#4C609B"/>
<path d="M28.1741 15.43C28.1741 15.1324 27.9381 14.8963 27.6404 14.8963C27.3428 14.8963 27.1068 15.1324 27.1068 15.43C27.1068 15.7276 27.3428 15.9637 27.6404 15.9637C27.9381 15.9637 28.1741 15.7276 28.1741 15.43Z" fill="#54669F"/>
<path d="M37.0509 17.6059C36.2298 17.3801 35.3882 17.8727 35.1624 18.6938C34.9367 19.5148 35.4293 20.3564 36.2504 20.5822C37.0714 20.808 37.913 20.3154 38.1388 19.4943C38.1388 19.4943 38.1388 19.4943 38.1388 19.484C38.3543 18.6732 37.8617 17.8317 37.0509 17.6059Z" fill="#746FA7"/>
<path d="M32.536 19.0735C33.0902 19.2274 33.6649 18.8887 33.8189 18.3345C33.9728 17.7803 33.6341 17.2056 33.0799 17.0516C32.5257 16.8977 31.951 17.2364 31.797 17.7906C31.6431 18.3448 31.9715 18.9195 32.536 19.0735Z" fill="#746FA7"/>
<path d="M29.6004 18.0061C30.0109 18.119 30.4317 17.8727 30.5446 17.4621C30.6575 17.0516 30.4112 16.6308 30.0006 16.5179C29.5901 16.405 29.1693 16.6513 29.0564 17.0619C28.9538 17.4724 29.1898 17.8932 29.6004 18.0061Z" fill="#746FA7"/>
<path d="M27.353 17.1132C27.6096 17.185 27.8765 17.0311 27.9483 16.7642C28.0201 16.5076 27.8662 16.2408 27.5993 16.1689C27.3428 16.0971 27.0759 16.251 27.0041 16.5179C26.9322 16.7642 27.0862 17.0413 27.353 17.1132C27.353 17.1029 27.353 17.1029 27.353 17.1132Z" fill="#746FA7"/>
<path d="M35.9314 21.3006C35.2642 20.9106 34.4124 21.1467 34.0224 21.8138C33.6324 22.4809 33.8684 23.3328 34.5355 23.7228C35.2027 24.1128 36.0545 23.8767 36.4445 23.2096C36.8243 22.5425 36.5985 21.6906 35.9314 21.3006Z" fill="#99558E"/>
<path d="M32.6385 21.0132C32.9054 20.5411 32.7514 19.9458 32.2793 19.679C31.8072 19.4121 31.2119 19.5661 30.9451 20.0382C30.6782 20.5103 30.8322 21.1056 31.3043 21.3724C31.7662 21.6393 32.3614 21.4751 32.6385 21.0132Z" fill="#99558E"/>
<path d="M29.6925 19.3198C29.8875 18.9811 29.7746 18.5603 29.4359 18.3653C29.0972 18.1703 28.6764 18.2832 28.4814 18.6219C28.2864 18.9606 28.3993 19.3814 28.738 19.5764C29.0767 19.7611 29.4975 19.6482 29.6925 19.3198Z" fill="#99558E"/>
<path d="M27.404 17.9856C27.5272 17.77 27.4553 17.4929 27.2398 17.3595C27.0243 17.2363 26.7472 17.3082 26.6138 17.5237C26.4803 17.7392 26.5624 18.0164 26.778 18.1498C26.778 18.1498 26.778 18.1498 26.7882 18.1498C27.0038 18.2729 27.2809 18.2011 27.404 17.9856Z" fill="#99558E"/>
<path d="M32.0835 24.554C31.5908 25.0467 31.5908 25.837 32.0835 26.3296C32.5761 26.8222 33.3664 26.8222 33.859 26.3296C34.3517 25.837 34.3517 25.0467 33.859 24.554C33.3766 24.0717 32.5761 24.0717 32.0835 24.554Z" fill="#AF3379"/>
<path d="M30.8007 23.2712C31.16 22.912 31.16 22.3372 30.8007 21.9883C30.4415 21.6291 29.8668 21.6291 29.5178 21.9883C29.1586 22.3475 29.1586 22.9222 29.5178 23.2712C29.8668 23.6304 30.4415 23.6304 30.8007 23.2712Z" fill="#AF3379"/>
<path d="M28.4099 20.8798C28.6562 20.6335 28.6562 20.2332 28.4099 19.9869C28.1636 19.7406 27.7633 19.7406 27.517 19.9869C27.2707 20.2332 27.2707 20.6335 27.517 20.8696C27.7633 21.1262 28.1636 21.1262 28.4099 20.8798Z" fill="#AF3379"/>
<path d="M25.967 19.0221C26.1312 19.1864 26.3981 19.1864 26.5623 19.0221C26.7265 18.8579 26.7265 18.5911 26.5623 18.4269C26.3981 18.2627 26.1312 18.2627 25.967 18.4269C25.8028 18.5911 25.8028 18.8579 25.967 19.0221Z" fill="#AF3379"/>
<path d="M29.4455 26.6683C28.881 26.9967 28.686 27.7254 29.0145 28.2899C29.3429 28.8544 30.0716 29.0494 30.6361 28.7209C31.2005 28.3925 31.3956 27.6638 31.0671 27.0993C30.7387 26.5349 30.01 26.3399 29.4455 26.6683Z" fill="#BE266A"/>
<path d="M28.7684 23.8357C28.5324 23.4354 28.0295 23.2917 27.6189 23.5278C27.2187 23.7638 27.075 24.2667 27.311 24.6772C27.5471 25.0775 28.05 25.2212 28.4605 24.9851C28.8608 24.7491 29.0045 24.2359 28.7684 23.8357Z" fill="#BE266A"/>
<path d="M26.7681 22.0396C27.0349 21.8856 27.1273 21.5469 26.9734 21.2801C26.8194 21.0132 26.4807 20.9209 26.2139 21.0748C25.947 21.2288 25.8547 21.5675 26.0086 21.8343C26.1626 22.1012 26.5012 22.1935 26.7681 22.0396Z" fill="#BE266A"/>
<path d="M25.0939 19.135C24.9092 19.2376 24.8476 19.4737 24.9503 19.6584C25.0529 19.8432 25.2889 19.9048 25.4737 19.8021C25.6584 19.6995 25.72 19.4634 25.6174 19.2787C25.5147 19.094 25.2787 19.0324 25.0939 19.135Z" fill="#BE266A"/>
<path d="M26.3255 28.0333C25.7302 28.1975 25.371 28.803 25.5352 29.3983C25.6994 29.9936 26.3049 30.3528 26.9002 30.1886C27.4955 30.0244 27.8547 29.4188 27.6905 28.8236C27.5365 28.2283 26.9207 27.8691 26.3255 28.0333Z" fill="#D4525C"/>
<path d="M25.7815 26.0012C26.192 25.8883 26.4384 25.4675 26.3255 25.057C26.2126 24.6464 25.7918 24.4001 25.3812 24.513C24.9707 24.6259 24.7347 25.0467 24.8373 25.4572C24.9502 25.878 25.371 26.1141 25.7815 26.0012C25.7815 26.0115 25.7815 26.0115 25.7815 26.0012Z" fill="#D4525C"/>
<path d="M25.2797 22.1216C25.2079 21.8445 24.9205 21.6803 24.6434 21.7522C24.3663 21.824 24.2021 22.1114 24.2739 22.3885C24.3458 22.6656 24.6332 22.8298 24.9103 22.758C25.1976 22.6964 25.3618 22.409 25.2797 22.1216C25.2797 22.1319 25.2797 22.1319 25.2797 22.1216Z" fill="#D4525C"/>
<path d="M24.489 19.8432C24.4377 19.6585 24.2427 19.5456 24.058 19.5969C23.8732 19.6482 23.7603 19.8432 23.8117 20.0279C23.863 20.2127 24.0477 20.3256 24.2427 20.2743C24.4275 20.2229 24.5404 20.0279 24.489 19.8432Z" fill="#D4525C"/>
<path d="M22.9395 28.5465C22.3648 28.5465 21.8926 29.0186 21.8926 29.5934C21.8926 30.1681 22.3648 30.6402 22.9395 30.6402C23.5142 30.6402 23.9864 30.1784 23.9864 29.5934C23.9864 29.0186 23.5245 28.5465 22.9395 28.5465Z" fill="#E0654F"/>
<path d="M22.2411 25.6112C22.2411 26.0012 22.549 26.3091 22.9391 26.3091C23.3291 26.3091 23.637 26.0012 23.637 25.6112C23.637 25.2212 23.3291 24.9133 22.9391 24.9133C22.5593 24.9133 22.2411 25.2212 22.2411 25.6112Z" fill="#E0654F"/>
<path d="M22.9388 22.9838C23.2056 22.9838 23.4314 22.7683 23.4314 22.4912C23.4314 22.2141 23.2159 21.9985 22.9388 21.9985C22.672 21.9985 22.4462 22.2141 22.4462 22.4912C22.4564 22.7683 22.672 22.9838 22.9388 22.9838C22.9388 22.9941 22.9388 22.9941 22.9388 22.9838Z" fill="#E0654F"/>
<path d="M22.9393 19.7714C22.7648 19.7714 22.6211 19.915 22.6211 20.0895C22.6211 20.264 22.7648 20.4077 22.9393 20.4077C23.1137 20.4077 23.2574 20.264 23.2574 20.0895C23.2574 19.915 23.1137 19.7714 22.9393 19.7714Z" fill="#E0654F"/>
<path d="M19.5212 28.1565C18.9978 28.0128 18.4641 28.331 18.3204 28.8441C18.1767 29.3676 18.4949 29.9013 19.0081 30.0449C19.5315 30.1886 20.0652 29.8705 20.2089 29.3573C20.3526 28.8339 20.0447 28.3002 19.5212 28.1565Z" fill="#F57F2A"/>
<path d="M20.465 24.6464C20.1263 24.554 19.7876 24.7593 19.6952 25.0877C19.6029 25.4264 19.8081 25.7651 20.1366 25.8575C20.4752 25.9498 20.8139 25.7446 20.9063 25.4162C20.9987 25.0877 20.8037 24.7388 20.465 24.6464Z" fill="#F57F2A"/>
<path d="M21.2256 21.8138C20.9793 21.7522 20.7329 21.8959 20.6714 22.1319C20.6098 22.3782 20.7535 22.6246 20.9895 22.6861C21.2358 22.7477 21.4822 22.604 21.5437 22.368C21.6156 22.1319 21.4719 21.8856 21.2256 21.8138Z" fill="#F57F2A"/>
<path d="M22.005 19.9972C22.046 19.8432 21.9537 19.6893 21.81 19.6585C21.6663 19.6277 21.5021 19.7098 21.4713 19.8535C21.4405 19.9972 21.5226 20.1614 21.6663 20.1922C21.81 20.2332 21.9639 20.1511 22.005 19.9972Z" fill="#F57F2A"/>
<path d="M16.3088 26.8941C15.8778 26.6478 15.3236 26.7915 15.067 27.2225C14.8206 27.6536 14.9643 28.2078 15.3954 28.4644C15.8265 28.7107 16.3807 28.567 16.6373 28.136C16.8938 27.7049 16.7399 27.1507 16.3088 26.8941Z" fill="#F89828"/>
<path d="M18.1262 23.7535C17.8593 23.5996 17.5206 23.692 17.3667 23.9588C17.2127 24.2256 17.3051 24.5643 17.572 24.7183C17.8388 24.8722 18.1775 24.7799 18.3314 24.513C18.4854 24.2462 18.393 23.9075 18.1262 23.7535Z" fill="#F89828"/>
<path d="M19.1927 21.9062C19.3979 22.0191 19.6545 21.9575 19.7674 21.7522C19.8803 21.5469 19.8187 21.2904 19.6135 21.1775C19.4082 21.0646 19.1516 21.1261 19.0387 21.3314C18.9258 21.5367 18.9874 21.7933 19.1927 21.9062Z" fill="#F89828"/>
<path d="M20.7325 19.2377C20.6196 19.1659 20.4656 19.207 20.4041 19.3301C20.3322 19.443 20.3733 19.597 20.4964 19.6585C20.6093 19.7304 20.7633 19.6893 20.8249 19.5662C20.8864 19.4635 20.8454 19.3096 20.7325 19.2377C20.7325 19.248 20.7325 19.248 20.7325 19.2377Z" fill="#F89828"/>
<path d="M12.3258 24.8312C11.9974 25.1596 11.9974 25.6933 12.3258 26.0217C12.6542 26.3501 13.1879 26.3501 13.5163 26.0217C13.8448 25.6933 13.8448 25.1596 13.5163 24.8312C13.1879 24.5027 12.6542 24.5027 12.3258 24.8312Z" fill="#FEC127"/>
<path d="M15.3952 22.2654C15.2002 22.4604 15.2002 22.7683 15.3952 22.953C15.5902 23.148 15.8981 23.148 16.0828 22.953C16.2675 22.758 16.2778 22.4501 16.0828 22.2654C15.8981 22.0704 15.5799 22.0704 15.3952 22.2654Z" fill="#FEC127"/>
<path d="M17.6633 20.1409C17.5093 20.2948 17.5093 20.5309 17.6633 20.6848C17.8172 20.8388 18.0533 20.8388 18.2072 20.6848C18.3612 20.5309 18.3612 20.2948 18.2072 20.1409C18.0533 19.9869 17.8069 19.9869 17.6633 20.1409Z" fill="#FEC127"/>
<path d="M19.7875 18.5603C19.7054 18.4782 19.572 18.4884 19.5001 18.5706C19.418 18.6527 19.4283 18.7861 19.5104 18.8579C19.5925 18.9298 19.7156 18.9298 19.7977 18.8579C19.8696 18.7758 19.8696 18.6424 19.7875 18.5603Z" fill="#FEC127"/>
<path d="M10.284 21.824C9.91456 22.0395 9.7914 22.5014 10.0069 22.8709C10.2225 23.2403 10.6843 23.3635 11.0538 23.148C11.4233 22.9324 11.5464 22.4706 11.3309 22.1011C11.1256 21.7316 10.6535 21.6085 10.284 21.824Z" fill="#FED627"/>
<path d="M13.9066 20.1306C13.7116 20.2435 13.6398 20.5 13.7527 20.7053C13.8656 20.9003 14.1222 20.9721 14.3274 20.8592C14.5224 20.7464 14.5943 20.4898 14.4814 20.2845C14.3685 20.0895 14.1119 20.0177 13.9066 20.1306Z" fill="#FED627"/>
<path d="M16.6373 18.6424C16.4731 18.7348 16.4115 18.9503 16.5141 19.1145C16.6065 19.2787 16.822 19.3403 16.9862 19.2377C17.1504 19.1453 17.212 18.9298 17.1094 18.7656C17.017 18.6013 16.8015 18.5398 16.6373 18.6424Z" fill="#FED627"/>
<path d="M8.72451 12.9873H9.95611V17.729H8.72451V12.9873ZM9.47373 10.8731C9.09399 10.7705 8.70399 10.9963 8.60135 11.376C8.49872 11.7557 8.72451 12.1457 9.10425 12.2484C9.484 12.351 9.874 12.1252 9.97663 11.7455C10.0793 11.3657 9.85348 10.9655 9.47373 10.8731ZM13.7638 17.8316C13.4662 17.8316 13.1685 17.7803 12.8914 17.6571C12.6451 17.5442 12.4296 17.3698 12.2654 17.1542V20.0998H11.0645V12.9873H12.2551V13.6442C12.409 13.4081 12.6246 13.2234 12.8811 13.09C13.148 12.9565 13.4456 12.8847 13.7535 12.8847C14.0512 12.8847 14.3385 12.9463 14.6156 13.0592C14.8928 13.1721 15.1391 13.3465 15.3443 13.5518C15.5599 13.7776 15.7343 14.0445 15.8472 14.3318C15.9807 14.6602 16.0422 14.9989 16.032 15.3479C16.0422 15.6968 15.9704 16.0458 15.837 16.3742C15.7138 16.6616 15.5393 16.9284 15.3238 17.1542C14.9235 17.5853 14.3488 17.8316 13.7638 17.8316ZM13.5175 16.6821C13.6919 16.6821 13.8664 16.6513 14.0306 16.5795C14.1846 16.5076 14.3283 16.4153 14.4514 16.2921C14.5746 16.169 14.667 16.0253 14.7285 15.8713C14.862 15.5326 14.862 15.1632 14.7285 14.8245C14.667 14.6705 14.5643 14.5268 14.4514 14.4037C14.3283 14.2805 14.1846 14.1881 14.0306 14.1163C13.8664 14.0445 13.6919 14.0137 13.5175 14.0137C13.1685 14.0137 12.8298 14.1573 12.5732 14.4037C12.4501 14.5268 12.3577 14.6705 12.2961 14.8245C12.1627 15.1632 12.1627 15.5326 12.2961 15.8611C12.3577 16.015 12.4501 16.1587 12.5732 16.2818C12.8298 16.5487 13.1685 16.6924 13.5175 16.6821ZM16.9146 12.9873H18.1052V13.716C18.2078 13.4594 18.3823 13.2439 18.6183 13.1002C18.8646 12.9668 19.1315 12.895 19.4189 12.9052C19.5728 12.9052 19.7165 12.9258 19.8602 12.9565C19.9833 12.9873 20.1065 13.0284 20.2194 13.09L19.7781 14.2805C19.696 14.2292 19.6036 14.1881 19.5112 14.1573C19.3881 14.1266 19.2649 14.106 19.1418 14.106C18.8646 14.0958 18.5978 14.1881 18.3925 14.3626C18.2078 14.5371 18.1154 14.8245 18.1154 15.2145V17.7187H16.9146V12.9873ZM22.8981 17.8316C22.5594 17.8316 22.2207 17.77 21.9026 17.6366C21.6049 17.5134 21.3381 17.3287 21.102 17.1029C20.6402 16.6411 20.3836 16.015 20.3836 15.3582C20.3836 15.0297 20.4452 14.7013 20.5684 14.3934C20.6915 14.0958 20.866 13.8289 21.0918 13.6031C22.0873 12.6384 23.6679 12.6384 24.6634 13.6031C25.1253 14.065 25.3921 14.691 25.3921 15.3479C25.3921 15.6763 25.3305 16.0047 25.1971 16.3024C25.0739 16.6 24.8892 16.8669 24.6737 17.0927C24.4479 17.3184 24.181 17.5032 23.8731 17.6263C23.5755 17.7598 23.2368 17.8316 22.8981 17.8316ZM22.9084 16.6821C23.0829 16.6821 23.2573 16.6513 23.4216 16.5795C23.5755 16.5076 23.7089 16.4153 23.8321 16.3024C23.9552 16.1792 24.0476 16.0355 24.1092 15.8816C24.2426 15.5429 24.2426 15.1734 24.1092 14.845C24.0476 14.691 23.9552 14.5474 23.8321 14.4242C23.7089 14.301 23.5755 14.2087 23.4216 14.1471C23.0931 14.0034 22.7236 14.0034 22.4055 14.1471C22.2515 14.2189 22.1181 14.3113 21.995 14.4242C21.8718 14.5474 21.7794 14.691 21.7178 14.845C21.5844 15.1837 21.5844 15.5532 21.7178 15.8816C21.7794 16.0355 21.8718 16.1792 21.995 16.3024C22.1181 16.4255 22.2515 16.5179 22.4055 16.5795C22.5594 16.6411 22.7339 16.6821 22.9084 16.6821ZM0.154663 12.9873H1.38626L2.34074 16.015L3.46971 12.9873H4.53709L5.64553 16.015L6.64106 12.9873H7.87266L6.26132 17.729H5.1221L3.99314 14.6397L2.85391 17.729H1.69416L0.154663 12.9873Z" fill="#351A55"/>
</g>
<defs>
<clipPath id="clip0_268_833">
<rect width="39.0005" height="30.7899" fill="white" transform="translate(-0.000244141 0.0350342)"/>
</clipPath>
</defs>
</svg>
