<svg width="76" height="24" viewBox="0 0 76 24" fill="none" xmlns="http://www.w3.org/2000/svg">
<path d="M59.3896 15.1344L58.9995 17.5556C58.3946 17.8836 57.263 18.3555 55.9552 18.3555C53.731 18.3555 53.2821 17.1657 53.6333 14.642L54.1994 10.5798H53.1048L53.4144 7.95044L54.609 7.89247L55.0579 5.98433L58.4334 4.71241L58.0042 7.89247H60.3265C60.2482 8.22071 59.9751 10.0259 59.8972 10.5798H57.6336L57.1262 14.3343C56.9895 15.2986 57.0679 15.6474 57.731 15.6474C58.219 15.6474 58.941 15.3602 59.3896 15.1344ZM41.8606 11.0107C42.1143 9.26672 41.9774 7.68724 40.046 7.68724C38.6413 7.68724 37.1191 8.87711 36.0458 10.8672C36.2798 9.22576 36.1434 7.68724 34.2311 7.68724C32.7872 7.68724 31.226 8.93869 30.1531 11.0107C30.426 9.65674 30.3675 8.11802 30.2895 7.78958C29.1774 7.97467 28.2018 8.07686 26.8357 8.11802C26.8747 9.06186 26.816 10.2928 26.6405 11.462L26.1918 14.5396C26.0162 15.7499 25.8212 17.1455 25.6259 18.0274H29.2554C29.2747 17.4939 29.4113 16.6527 29.509 15.914L29.8211 13.8012C30.0749 12.4263 31.1677 10.8058 32.0067 10.8058C32.4946 10.8058 32.4749 11.2776 32.3385 12.1599L31.9872 14.5396C31.8116 15.7499 31.6164 17.1455 31.4213 18.0274H35.0896C35.1091 17.4939 35.2262 16.6527 35.3239 15.914L35.636 13.8012C35.8898 12.4263 36.9824 10.8058 37.8214 10.8058C38.3094 10.8058 38.2898 11.2568 38.2116 11.8726L37.3358 18.0274H40.6835L41.8606 11.0107ZM70.1999 12.1095C70.1999 15.56 67.7682 18.4283 64.5457 18.4283C61.6593 18.4283 60.1769 16.4536 60.1769 13.8762C60.1769 10.4468 62.6281 7.57817 65.8311 7.57817C68.7567 7.57817 70.1999 9.55276 70.1999 12.1095ZM63.6893 13.8084C63.6893 15.0601 64.0988 15.6961 64.8014 15.6961C65.7382 15.6961 66.4795 14.1781 66.4795 12.3314C66.4795 11.0593 66.0696 10.4439 65.3867 10.4439C64.4501 10.4439 63.6893 11.9416 63.6893 13.8084ZM25.4503 12.1809C25.4503 15.5864 23.0502 18.4177 19.8697 18.4177C17.0206 18.4177 15.5571 16.4687 15.5571 13.9248C15.5571 10.5398 17.9768 7.70855 21.1381 7.70855C24.0259 7.70855 25.4503 9.65758 25.4503 12.1809ZM19.0695 13.8084C19.0695 15.0601 19.4794 15.6961 20.1817 15.6961C21.1186 15.6961 21.8598 14.1781 21.8598 12.3314C21.8598 11.0593 21.4502 10.4439 20.7672 10.4439C19.8305 10.4439 19.0695 11.9416 19.0695 13.8084ZM15.6158 7.95383L15.5571 9.82095L10.6986 15.1142C12.7278 15.1142 14.0156 15.0933 14.7572 15.0526C14.5425 16.0578 14.3669 16.8785 14.1914 18.1089C13.2157 18.0274 11.6936 18.0069 10.1717 18.0069C8.47411 18.0069 6.99108 18.0274 5.80072 18.1089L5.83986 16.222L10.6986 10.9492C8.5715 10.9492 7.79113 10.9697 6.91292 10.9903C7.108 10.0467 7.24475 9.0002 7.38136 7.95383C8.92286 8.01535 9.5277 8.03582 11.5377 8.03582C13.3913 8.03582 14.4449 8.01535 15.6158 7.95383Z" fill="#100F0D"/>
<path d="M45.5404 18.1618C43.8069 18.3752 42.6651 17.6858 42.3222 16.1165C42.1067 15.1293 42.4052 14.0057 42.9278 13.3342C43.6269 12.4571 44.7674 11.8933 46.1575 11.7224C47.2773 11.5847 48.22 11.6528 49.1021 11.8201L49.1387 11.6683C49.1637 11.4262 49.1889 11.1838 49.1536 10.8936C49.0624 10.1506 48.4767 9.70745 47.0324 9.88504C46.0574 10.0051 45.1291 10.3584 44.4086 10.7601L43.7088 8.6381C44.6842 8.0764 45.9153 7.64914 47.3234 7.47586C50.0137 7.14479 51.9034 8.00467 52.1455 9.98071C52.2097 10.5066 52.2177 11.0641 52.1514 11.5688C51.8056 14.0126 51.5842 15.8509 51.4874 17.0842C51.4723 17.2743 51.4737 17.6019 51.4908 18.0676L48.1527 18.0645C48.2236 17.8712 48.2873 17.6108 48.344 17.2836C48.3811 17.068 48.408 16.7956 48.4252 16.4667C47.719 17.4367 46.75 18.013 45.5404 18.1618ZM46.5871 16.2858C47.815 16.1347 48.6604 14.9473 48.8638 13.7631L48.8978 13.4458C48.3703 13.3269 47.6077 13.2368 46.8675 13.3279C46.1632 13.4147 45.5762 13.7077 45.2614 14.1329C45.0241 14.4378 44.9037 14.8024 44.9569 15.2373C45.0371 15.8901 45.7566 16.3879 46.5871 16.2858Z" fill="#100F0D"/>
</svg>
