<svg width="40" height="40" viewBox="0 0 40 40" fill="none" xmlns="http://www.w3.org/2000/svg">
<path d="M20 0C20.7507 0 21.4907 0.0406669 22.22 0.122C22.4811 0.150891 22.7339 0.23092 22.964 0.357518C23.1942 0.484116 23.3971 0.654803 23.5613 0.859835C23.7255 1.06487 23.8476 1.30023 23.9209 1.55248C23.9941 1.80473 24.0169 2.06893 23.988 2.33C23.9591 2.59107 23.8791 2.84389 23.7525 3.07403C23.6259 3.30417 23.4552 3.50712 23.2502 3.67129C23.0451 3.83547 22.8098 3.95765 22.5575 4.03086C22.3053 4.10408 22.0411 4.12689 21.78 4.098C18.4841 3.72929 15.155 4.39388 12.2534 5.99985C9.35165 7.60581 7.02071 10.0738 5.58293 13.0624C4.14516 16.051 3.67161 19.4125 4.22778 22.682C4.78396 25.9515 6.34238 28.9674 8.68748 31.3125C11.0326 33.6576 14.0485 35.216 17.318 35.7722C20.5875 36.3284 23.949 35.8548 26.9376 34.4171C29.9262 32.9793 32.3942 30.6483 34.0002 27.7466C35.6061 24.845 36.2707 21.5159 35.902 18.22C35.8731 17.9589 35.8959 17.6947 35.9691 17.4425C36.0424 17.1902 36.1645 16.9549 36.3287 16.7498C36.6603 16.3358 37.1427 16.0703 37.67 16.012C38.1973 15.9537 38.7261 16.1071 39.1402 16.4387C39.3452 16.6029 39.5159 16.8058 39.6425 17.036C39.7691 17.2661 39.8491 17.5189 39.878 17.78C39.958 18.5093 39.9987 19.2493 40 20C40 31.046 31.046 40 20 40C8.954 40 0 31.046 0 20C0 8.954 8.954 0 20 0ZM19.936 11.754C20.0678 12.2674 19.9904 12.8122 19.7208 13.2686C19.4511 13.725 19.0113 14.0557 18.498 14.188C17.0877 14.5574 15.8601 15.4273 15.0441 16.6354C14.2281 17.8435 13.8795 19.3072 14.0634 20.7534C14.2473 22.1996 14.9511 23.5295 16.0435 24.4949C17.1358 25.4603 18.5422 25.9953 20 26C21.3306 26.0006 22.6237 25.5588 23.6758 24.7442C24.7279 23.9296 25.4793 22.7884 25.812 21.5C25.9538 20.9967 26.287 20.5689 26.7403 20.3083C27.1936 20.0478 27.7309 19.975 28.2372 20.1058C28.7435 20.2365 29.1784 20.5604 29.4488 21.0079C29.7193 21.4554 29.8037 21.991 29.684 22.5C29.0705 24.8519 27.6217 26.8999 25.6083 28.2615C23.5949 29.6232 21.1547 30.2052 18.7435 29.899C16.3323 29.5928 14.1151 28.4192 12.506 26.5975C10.897 24.7758 10.0061 22.4306 10 20C9.99966 17.7828 10.7362 15.6283 12.0938 13.8753C13.4515 12.1224 15.3532 10.8703 17.5 10.316C17.7544 10.2504 18.0192 10.2356 18.2793 10.2724C18.5394 10.3092 18.7897 10.3969 19.0159 10.5304C19.2421 10.6639 19.4398 10.8407 19.5976 11.0507C19.7555 11.2606 19.8705 11.4996 19.936 11.754ZM33.008 0.254C33.3731 0.405358 33.6851 0.661474 33.9047 0.990019C34.1243 1.31856 34.2417 1.70481 34.242 2.1V5.76H37.9C38.2955 5.76008 38.6821 5.87743 39.0109 6.0972C39.3397 6.31697 39.596 6.62929 39.7474 6.99469C39.8987 7.36009 39.9383 7.76216 39.8612 8.15006C39.784 8.53797 39.5936 8.8943 39.314 9.174L32.24 16.24C31.865 16.6151 31.3564 16.8259 30.826 16.826H26L22.344 20.484C21.9687 20.8593 21.4597 21.0701 20.929 21.0701C20.3983 21.0701 19.8893 20.8593 19.514 20.484C19.1387 20.1087 18.9279 19.5997 18.9279 19.069C18.9279 18.5383 19.1387 18.0293 19.514 17.654L23.172 14V9.172C23.1721 8.64161 23.3829 8.13299 23.758 7.758L30.828 0.686C31.1077 0.406135 31.4641 0.215517 31.8522 0.138263C32.2402 0.0610088 32.6425 0.10059 33.008 0.252M30.242 6.926L27.172 10V12.828H30L33.072 9.758H32.242C31.7116 9.758 31.2029 9.54729 30.8278 9.17221C30.4527 8.79714 30.242 8.28843 30.242 7.758V6.926Z" fill="#C81315"/>
</svg>
